<?xml version="1.0" encoding="UTF-8" standalone="no"?>
<svg width="50px" height="50px" viewBox="0 0 50 50" version="1.1" xmlns="http://www.w3.org/2000/svg" xmlns:xlink="http://www.w3.org/1999/xlink">
    <!-- Generator: sketchtool 39.1 (31720) - http://www.bohemiancoding.com/sketch -->
    <title>9E49AC6B-7798-4DFB-85EC-335700A7D88C</title>
    <desc>Created with sketchtool.</desc>
    <defs>
        <ellipse id="path-1" cx="39.2608696" cy="39.2727273" rx="6.26086957" ry="6.27272727"></ellipse>
        <mask id="mask-2" maskContentUnits="userSpaceOnUse" maskUnits="objectBoundingBox" x="-1.56818182" y="-1.56818182" width="15.6581028" height="15.6818182">
            <rect x="31.4318182" y="31.4318182" width="15.6581028" height="15.6818182" fill="white"></rect>
            <use xlink:href="#path-1" fill="black"></use>
        </mask>
    </defs>
    <g id="Pricing-Upgrade-Purple" stroke="none" stroke-width="1" fill="none" fill-rule="evenodd">
        <g id="Date-History-Upgrade-Dialog" transform="translate(-364.000000, -448.000000)">
            <g id="Group-2-Copy" transform="translate(346.000000, 433.000000)">
                <g id="Group">
                    <g id="illustration.calendar" transform="translate(20.000000, 17.000000)">
                        <g id="Page-1" transform="translate(0.000000, 0.568182)">
                            <path d="M6.26097391,42.8601864 C3.67158261,42.8601864 1.56532174,40.7499364 1.56532174,38.1556409 L1.56532174,10.1102773 C1.56532174,7.51650455 3.67158261,5.40573182 6.26097391,5.40573182 L35.0599304,5.40573182 C37.6493217,5.40573182 39.7555826,7.51650455 39.7555826,10.1102773 L39.7555826,38.1556409 C39.7555826,40.7499364 37.6493217,42.8601864 35.0599304,42.8601864 L6.26097391,42.8601864 Z" id="Fill-1" fill="#EDF3F9"></path>
                            <path d="M35.0601391,3.83765455 L6.26066087,3.83765455 C2.81718261,3.83765455 -0.000208695652,6.66038182 -0.000208695652,10.1103818 L-0.000208695652,38.1552227 C-0.000208695652,41.6052227 2.81718261,44.42795 6.26066087,44.42795 L35.0601391,44.42795 C38.5036174,44.42795 41.3210087,41.6052227 41.3210087,38.1552227 L41.3210087,10.1103818 C41.3210087,6.66038182 38.5036174,3.83765455 35.0601391,3.83765455 M35.0601391,6.97401818 C36.7860522,6.97401818 38.1905739,8.3812 38.1905739,10.1103818 L38.1905739,38.1552227 C38.1905739,39.8849273 36.7860522,41.2915864 35.0601391,41.2915864 L6.26066087,41.2915864 C4.53474783,41.2915864 3.13022609,39.8849273 3.13022609,38.1552227 L3.13022609,10.1103818 C3.13022609,8.3812 4.53474783,6.97401818 6.26066087,6.97401818 L35.0601391,6.97401818" id="Fill-3" fill="#FFFFFF"></path>
                            <path d="M35.0601391,44.4281591 L6.26066087,44.4281591 C2.81718261,44.4281591 -0.000208695652,41.6054318 -0.000208695652,38.1554318 L-0.000208695652,10.1105909 C-0.000208695652,6.66059091 2.81718261,3.83786364 6.26066087,3.83786364 L35.0601391,3.83786364 C38.5036174,3.83786364 41.3210087,6.66059091 41.3210087,10.1105909 L41.3210087,38.1554318 C41.3210087,41.6054318 38.5036174,44.4281591 35.0601391,44.4281591 L35.0601391,44.4281591 Z" id="Stroke-5" stroke="#4BA8FF" stroke-width="2.09090909"></path>
                            <path d="M7.55363478,22.5186205 L12.5983304,22.5186205 C13.4127652,22.5186205 14.0790261,23.1861432 14.0790261,24.0021205 L14.0790261,24.0021205 C14.0790261,24.8180977 13.4127652,25.4856205 12.5983304,25.4856205 L7.55363478,25.4856205 C6.7392,25.4856205 6.07293913,24.8180977 6.07293913,24.0021205 L6.07293913,24.0021205 C6.07293913,23.1861432 6.7392,22.5186205 7.55363478,22.5186205" id="Fill-7" fill="#C4D6E5"></path>
                            <path d="M18.1382087,22.5186205 L23.1829043,22.5186205 C23.9973391,22.5186205 24.6636,23.1861432 24.6636,24.0021205 L24.6636,24.0021205 C24.6636,24.8180977 23.9973391,25.4856205 23.1829043,25.4856205 L18.1382087,25.4856205 C17.3237739,25.4856205 16.657513,24.8180977 16.657513,24.0021205 L16.657513,24.0021205 C16.657513,23.1861432 17.3237739,22.5186205 18.1382087,22.5186205" id="Fill-9" fill="#C4D6E5"></path>
                            <path d="M28.7227304,22.5186205 L33.7674261,22.5186205 C34.5818609,22.5186205 35.2481217,23.1861432 35.2481217,24.0021205 L35.2481217,24.0021205 C35.2481217,24.8180977 34.5818609,25.4856205 33.7674261,25.4856205 L28.7227304,25.4856205 C27.9082957,25.4856205 27.2420348,24.8180977 27.2420348,24.0021205 L27.2420348,24.0021205 C27.2420348,23.1861432 27.9082957,22.5186205 28.7227304,22.5186205" id="Fill-11" fill="#C4D6E5"></path>
                            <path d="M7.55363478,29.0900864 L12.5983304,29.0900864 C13.4127652,29.0900864 14.0790261,29.7576091 14.0790261,30.5735864 L14.0790261,30.5735864 C14.0790261,31.3895636 13.4127652,32.0570864 12.5983304,32.0570864 L7.55363478,32.0570864 C6.7392,32.0570864 6.07293913,31.3895636 6.07293913,30.5735864 L6.07293913,30.5735864 C6.07293913,29.7576091 6.7392,29.0900864 7.55363478,29.0900864" id="Fill-13" fill="#C4D6E5"></path>
                            <path d="M18.1382087,29.0900864 L23.1829043,29.0900864 C23.9973391,29.0900864 24.6636,29.7576091 24.6636,30.5735864 L24.6636,30.5735864 C24.6636,31.3895636 23.9973391,32.0570864 23.1829043,32.0570864 L18.1382087,32.0570864 C17.3237739,32.0570864 16.657513,31.3895636 16.657513,30.5735864 L16.657513,30.5735864 C16.657513,29.7576091 17.3237739,29.0900864 18.1382087,29.0900864" id="Fill-15" fill="#C4D6E5"></path>
                            <path d="M28.7227304,29.0900864 L33.7674261,29.0900864 C34.5818609,29.0900864 35.2481217,29.7576091 35.2481217,30.5735864 L35.2481217,30.5735864 C35.2481217,31.3895636 34.5818609,32.0570864 33.7674261,32.0570864 L28.7227304,32.0570864 C27.9082957,32.0570864 27.2420348,31.3895636 27.2420348,30.5735864 L27.2420348,30.5735864 C27.2420348,29.7576091 27.9082957,29.0900864 28.7227304,29.0900864" id="Fill-17" fill="#C4D6E5"></path>
                            <path d="M7.55363478,35.6615 L12.5983304,35.6615 C13.4127652,35.6615 14.0790261,36.3290227 14.0790261,37.145 L14.0790261,37.145 C14.0790261,37.9609773 13.4127652,38.6285 12.5983304,38.6285 L7.55363478,38.6285 C6.7392,38.6285 6.07293913,37.9609773 6.07293913,37.145 L6.07293913,37.145 C6.07293913,36.3290227 6.7392,35.6615 7.55363478,35.6615" id="Fill-19" fill="#C4D6E5"></path>
                            <path d="M18.1382087,35.6615 L23.1829043,35.6615 C23.9973391,35.6615 24.6636,36.3290227 24.6636,37.145 L24.6636,37.145 C24.6636,37.9609773 23.9973391,38.6285 23.1829043,38.6285 L18.1382087,38.6285 C17.3237739,38.6285 16.657513,37.9609773 16.657513,37.145 L16.657513,37.145 C16.657513,36.3290227 17.3237739,35.6615 18.1382087,35.6615" id="Fill-21" fill="#C4D6E5"></path>
                            <path d="M28.7227304,35.6615 L33.7674261,35.6615 C34.5818609,35.6615 35.2481217,36.3290227 35.2481217,37.145 L35.2481217,37.145 C35.2481217,37.9609773 34.5818609,38.6285 33.7674261,38.6285 L28.7227304,38.6285 C27.9082957,38.6285 27.2420348,37.9609773 27.2420348,37.145 L27.2420348,37.145 C27.2420348,36.3290227 27.9082957,35.6615 28.7227304,35.6615" id="Fill-23" fill="#C4D6E5"></path>
                            <path d="M2,18 L40,18" id="Stroke-25" stroke="#FFFFFF" stroke-width="2"></path>
                            <path d="M12.6105913,0 L12.6105913,9.88947727" id="Stroke-27" stroke="#FFFFFF" stroke-width="4.18181818" stroke-linecap="round"></path>
                            <path d="M28.7103652,0 L28.7103652,9.88947727" id="Stroke-29" stroke="#FFFFFF" stroke-width="4.18181818" stroke-linecap="round"></path>
                            <path d="M12.6105913,0 L12.6105913,9.88947727" id="Stroke-31" stroke="#4BA8FF" stroke-width="2.09090909" stroke-linecap="round"></path>
                            <path d="M28.7103652,0 L28.7103652,9.88947727" id="Stroke-33" stroke="#4BA8FF" stroke-width="2.09090909" stroke-linecap="round"></path>
                        </g>
                        <g id="Oval">
                            <use fill="#9270E2" fill-rule="evenodd" xlink:href="#path-1"></use>
                            <use stroke="#FFFFFF" mask="url(#mask-2)" stroke-width="3.13636364" xlink:href="#path-1"></use>
                        </g>
                        <g id="Page-1" transform="translate(37.000000, 35.000000)" fill="#FFFFFF">
                            <path d="M1.55525581,4.88007766 C1.57060465,4.83210957 1.56446512,4.78184362 1.53786047,4.74421596 C1.51144186,4.7065883 1.46688372,4.68504574 1.41581395,4.68504574 L0.08,4.68504574 C0.0586046512,4.68504574 0.048372093,4.67910957 0.0469767442,4.67642872 C0.0455813953,4.67365213 0.0466046512,4.66149255 0.0586976744,4.64330106 L3.45660791,0.530830037 C3.5632356,0.401779167 3.61000516,0.41681697 3.55611828,0.579355724 L2.45739535,3.89342872 C2.43934884,3.94091809 2.44297674,3.9910883 2.46809302,4.02890745 C2.49311628,4.06663085 2.53711628,4.08836489 2.58855814,4.08836489 L3.85116279,4.08836489 C3.87311628,4.08836489 3.88455814,4.09487553 3.88762791,4.10042872 C3.8907907,4.10598191 3.89051163,4.11948191 3.87953488,4.13901383 L0.679585947,8.52545028 C0.57917036,8.66309829 0.532951972,8.64510352 0.573819398,8.49459356 L1.55525581,4.88007766 Z" id="Fill-1"></path>
                        </g>
                    </g>
                </g>
            </g>
        </g>
    </g>
</svg>