<?xml version="1.0" encoding="UTF-8" standalone="no"?>
<svg width="52px" height="43px" viewBox="0 0 52 43" version="1.1" xmlns="http://www.w3.org/2000/svg" xmlns:xlink="http://www.w3.org/1999/xlink">
    <!-- Generator: sketchtool 39.1 (31720) - http://www.bohemiancoding.com/sketch -->
    <title>8DC3DB90-2C37-452E-8EC5-F81AD3E1EBC1</title>
    <desc>Created with sketchtool.</desc>
    <defs>
        <ellipse id="path-1" cx="42" cy="33" rx="7" ry="7"></ellipse>
        <mask id="mask-2" maskContentUnits="userSpaceOnUse" maskUnits="objectBoundingBox" x="-1.75" y="-1.75" width="17.5" height="17.5">
            <rect x="33.25" y="24.25" width="17.5" height="17.5" fill="white"></rect>
            <use xlink:href="#path-1" fill="black"></use>
        </mask>
    </defs>
    <g id="Pricing-Upgrade-Purple" stroke="none" stroke-width="1" fill="none" fill-rule="evenodd">
        <g id="Save-Bookmarks-Upgrade-Dialog" transform="translate(-997.000000, -183.000000)">
            <g id="Group-6-Copy-5" transform="translate(978.000000, 164.000000)">
                <g id="Group-4">
                    <g id="illustration.filter" transform="translate(20.000000, 20.000000)">
                        <g id="bookmark">
                            <path d="M1.97841818,27.9444706 C1.97841818,27.9134118 1.97496364,27.8310588 1.97397662,27.8207059 L1.97397662,2.82352941 C1.97397662,2.30447059 2.41665195,1.88235294 2.96098961,1.88235294 L34.9851195,1.88235294 C35.5294571,1.88235294 35.9721325,2.30447059 35.9721325,2.82352941 C35.9721325,2.82352941 35.972626,11.6009412 35.9731195,11.6216471 C35.973613,11.6404706 35.9750935,11.6602353 35.976574,11.6809412 L35.976574,37.6301176 L20.1014571,31.4211765 C19.7436649,31.2809412 19.3651455,31.2094118 18.9782364,31.2094118 C18.5928078,31.2094118 18.2152753,31.2804706 17.8564961,31.4202353 L1.97841818,37.6301176 L1.97841818,27.9444706 Z" id="Fill-1" fill="#EDF3F9"></path>
                            <path d="M34.9849714,0 L2.96084156,0 C1.32832208,0 -0.000197402597,1.26635294 -0.000197402597,2.82352941 L-0.000197402597,27.9035294 C-0.000197402597,27.9176471 0.00375064935,27.9308235 0.00424415584,27.9444706 L0.00424415584,39.0216471 L0.00424415584,39.0254118 L0.00424415584,39.0329412 C0.00424415584,39.0512941 0.00868571429,39.0682353 0.0101662338,39.0861176 C0.0126337662,39.1294118 0.0146077922,39.1722353 0.0234909091,39.2155294 C0.0318805195,39.256 0.0466857143,39.2941176 0.0600103896,39.3322353 C0.0669194805,39.3515294 0.0698805195,39.3712941 0.0782701299,39.3901176 C0.0787636364,39.3915294 0.0792571429,39.3924706 0.0802441558,39.3938824 C0.100971429,39.4414118 0.127127273,39.4856471 0.155750649,39.5289412 C0.170062338,39.5510588 0.185361039,39.5712941 0.201153247,39.592 C0.23027013,39.6291765 0.259387013,39.6658824 0.293438961,39.6988235 C0.319101299,39.7228235 0.348218182,39.7421176 0.375854545,39.7632941 C0.398062338,39.7802353 0.417802597,39.7995294 0.441490909,39.8145882 C0.462711688,39.8282353 0.4864,39.8376471 0.509101299,39.8494118 C0.542166234,39.8672941 0.574737662,39.8870588 0.61027013,39.9011765 C0.62852987,39.9087059 0.64827013,39.912 0.667023377,39.9181176 C0.718348052,39.9350588 0.77065974,39.9496471 0.825438961,39.9585882 C0.878737662,39.9670588 0.93252987,39.9736471 0.987309091,39.9741176 L0.991257143,39.9741176 C1.0109974,39.9741176 1.02975065,39.9698824 1.0489974,39.9689412 C1.09341299,39.9661176 1.13782857,39.9642353 1.18224416,39.9557647 C1.22517922,39.9477647 1.26515325,39.9341176 1.30562078,39.9209412 C1.32536104,39.9148235 1.34608831,39.9115294 1.36582857,39.904 L1.37372468,39.9007059 C1.37471169,39.9002353 1.3756987,39.9002353 1.37668571,39.8997647 L18.6025299,33.1628235 C18.7239325,33.1157647 18.8507636,33.0917647 18.9780883,33.0917647 C19.1049195,33.0917647 19.2312571,33.1152941 19.3521662,33.1628235 L36.5780104,39.8997647 C36.5789974,39.9002353 36.5799844,39.9002353 36.5804779,39.9007059 L36.5888675,39.904 C36.6155169,39.9143529 36.6426597,39.9190588 36.6693091,39.9270588 C36.702374,39.9369412 36.7344519,39.9491765 36.7694909,39.9557647 C36.8336468,39.968 36.8987896,39.9745882 36.9629455,39.9745882 C36.9659065,39.9745882 36.9688675,39.9736471 36.9723221,39.9736471 C37.0572052,39.9727059 37.1386338,39.9590588 37.2171013,39.9388235 C37.2383221,39.9336471 37.2580623,39.9275294 37.2787896,39.9204706 C37.3542961,39.8964706 37.4258545,39.8658824 37.4914909,39.8258824 C37.497413,39.8221176 37.5043221,39.8197647 37.5097506,39.816 C37.5808156,39.7712941 37.6425039,39.7157647 37.6987636,39.6550588 C37.7130753,39.64 37.7259065,39.6249412 37.7392312,39.6089412 C37.7930234,39.5425882 37.8408935,39.4715294 37.8749455,39.3929412 C37.875439,39.392 37.876426,39.3910588 37.876426,39.3901176 C37.8848156,39.3712941 37.8877766,39.3515294 37.8946857,39.3322353 C37.9080104,39.2941176 37.9228156,39.256 37.9312052,39.2155294 C37.9400883,39.1722353 37.9420623,39.1294118 37.9445299,39.0861176 C37.9460104,39.0682353 37.9504519,39.0512941 37.9504519,39.0329412 L37.9504519,39.0254118 L37.9504519,39.0216471 L37.9504519,11.6 C37.9504519,11.5858824 37.9465039,11.5727059 37.9460104,11.5590588 L37.9460104,2.82352941 C37.9460104,1.26635294 36.6179844,0 34.9849714,0 M33.9979584,3.76470588 L33.9979584,11.5590588 C33.9979584,11.6131765 33.999439,11.6677647 34.0019065,11.7218824 C34.0019065,11.7265882 34.0019065,11.7312941 34.0024,11.7355294 L34.0024,34.8235294 L20.853413,29.6809412 C20.2547896,29.4461176 19.6240883,29.3270588 18.9780883,29.3270588 C18.3355429,29.3270588 17.7068156,29.4451765 17.1042442,29.6795294 L3.9522961,34.8235294 L3.9522961,27.9444706 C3.9522961,27.8903529 3.95130909,27.8357647 3.94884156,27.7811765 C3.94834805,27.7769412 3.94834805,27.7727059 3.94785455,27.768 L3.94785455,3.76470588 L33.9979584,3.76470588" id="Fill-3" fill="#FFFFFF"></path>
                            <path d="M0.989233766,11.5999529 L0.989233766,39.0328941 L18.2259351,32.2921882 C18.7061169,32.1044235 19.244039,32.1044235 19.7242208,32.2921882 L36.9609221,39.0328941 L36.956974,27.9039529 L36.956974,2.82348235 C36.956974,1.78395294 36.0731039,0.941129412 34.9829481,0.941129412 L2.95881818,0.941129412 C1.86866234,0.941129412 0.984792208,1.78395294 0.984792208,2.82348235 L0.984792208,27.9039529" id="Stroke-5" stroke="#4BA8FF" stroke-width="2.359" stroke-linecap="round" stroke-linejoin="round"></path>
                            <path d="M0.980646753,2.82352941 L0.980646753,39.0329412 L0.989036364,39.0329412 L18.2262312,32.2917647 C18.7059195,32.1044706 19.2443351,32.1044706 19.7240234,32.2917647 L36.9612182,39.0329412" id="Stroke-7" stroke="#2788E3" stroke-width="2.359" stroke-linecap="round" stroke-linejoin="round"></path>
                        </g>
                        <g id="circle">
                            <use fill="#9270E2" fill-rule="evenodd" xlink:href="#path-1"></use>
                            <use stroke="#FFFFFF" mask="url(#mask-2)" stroke-width="3.5" xlink:href="#path-1"></use>
                        </g>
                        <g id="bolt" transform="translate(40.000000, 29.000000)" fill="#FFFFFF">
                            <path d="M1.55525581,4.88007766 C1.57060465,4.83210957 1.56446512,4.78184362 1.53786047,4.74421596 C1.51144186,4.7065883 1.46688372,4.68504574 1.41581395,4.68504574 L0.08,4.68504574 C0.0586046512,4.68504574 0.048372093,4.67910957 0.0469767442,4.67642872 C0.0455813953,4.67365213 0.0466046512,4.66149255 0.0586976744,4.64330106 L3.45660791,0.530830037 C3.5632356,0.401779167 3.61000516,0.41681697 3.55611828,0.579355724 L2.45739535,3.89342872 C2.43934884,3.94091809 2.44297674,3.9910883 2.46809302,4.02890745 C2.49311628,4.06663085 2.53711628,4.08836489 2.58855814,4.08836489 L3.85116279,4.08836489 C3.87311628,4.08836489 3.88455814,4.09487553 3.88762791,4.10042872 C3.8907907,4.10598191 3.89051163,4.11948191 3.87953488,4.13901383 L0.679585947,8.52545028 C0.57917036,8.66309829 0.532951972,8.64510352 0.573819398,8.49459356 L1.55525581,4.88007766 Z" id="Fill-1"></path>
                        </g>
                    </g>
                </g>
            </g>
        </g>
    </g>
</svg>