<?xml version="1.0" encoding="UTF-8"?>
<svg width="22px" height="22px" viewBox="0 0 22 22" version="1.1" xmlns="http://www.w3.org/2000/svg" xmlns:xlink="http://www.w3.org/1999/xlink">
    <title>anomaly-down</title>
    <desc>Created with Sketch.</desc>
    <defs></defs>
    <g id="anomaly-down" stroke="none" stroke-width="1" fill-rule="evenodd">
        <g id="16-x-16" transform="translate(3.000000, 3.000000)">
            <circle id="circle" fill="#FFC529" cx="8" cy="8" r="8"></circle>
            <path d="M10.9122456,7.33950855 L8.42452122,4.92105894 C8.1899095,4.69298035 7.81009051,4.69298035 7.57547877,4.92105894 L5.08775439,7.33950855 C4.97074854,7.45325618 4.97074854,7.638169 5.08775439,7.75191663 L5.5119756,8.1643247 C5.62898145,8.27807233 5.81919096,8.27807233 5.93619681,8.1643247 L7.39966998,6.74160434 L7.39966998,11.4583394 C7.39966998,11.6193361 7.5340767,11.75 7.69968499,11.75 L8.29971498,11.75 C8.46592329,11.75 8.59972998,11.6193361 8.59972998,11.4583394 L8.59972998,6.74160434 L10.0638032,8.1643247 C10.180809,8.27807233 10.3710186,8.27807233 10.4880244,8.1643247 L10.9122456,7.75191663 C11.0292515,7.638169 11.0292515,7.45325618 10.9122456,7.33950855" id="arrow-up" fill="#FFFFFF" transform="translate(8.000000, 8.250000) rotate(180.000000) translate(-8.000000, -8.250000) "></path>
        </g>
    </g>
</svg>