<?xml version="1.0" encoding="UTF-8"?>
<svg width="22px" height="22px" viewBox="0 0 22 22" version="1.1" xmlns="http://www.w3.org/2000/svg" xmlns:xlink="http://www.w3.org/1999/xlink">
    <title>thumbs-down</title>
    <desc>Anamoly Detection Thumbs Down Icon</desc>
    <defs></defs>
    <g id="thumbs-down" stroke="none" stroke-width="1" fill-rule="evenodd">
        <g id="16-x-16" fill-rule="nonzero" transform="translate(11.000000, 11.000000) rotate(180.000000) translate(-11.000000, -11.000000) translate(3.000000, 3.000000)">
            <path d="M1.33333333,12.9999656 L1.33333333,7.99998471 C3.71668467,6.66127956 5.33339754,4.58605115 6.0471433,2.31392737 L6.09434927,2.15549385 C6.21939618,1.68325067 6.65293291,1.33333333 7.16669533,1.33333333 C7.78055643,1.33333333 8.27780899,1.83055532 8.27780899,2.44438584 C8.27780899,2.55833446 8.26099339,2.66956201 8.22754563,2.77479709 L7.87793404,5.08327314 C7.87793404,5.46660766 8.18874746,5.7777574 8.57241829,5.7777574 L13.5556142,5.7777574 C14.1694753,5.7777574 14.6666667,6.27494881 14.6666667,6.88884048 C14.6666667,7.50270158 14.1694753,7.99995414 13.5556142,7.99995414 C14.1694753,7.99995414 14.6666667,8.49714555 14.6666667,9.11103722 C14.6666667,9.72489832 14.1694753,10.222212 13.5556142,10.222212 L12.9999962,10.222212 C13.6138879,10.222212 14.1110793,10.719434 14.1110793,11.3333257 C14.1110793,11.9471562 13.6138879,12.4443782 12.9999962,12.4443782 L12.9029243,12.4443782 C13.1335426,12.6472966 13.2777899,12.9474092 13.2777899,13.2777593 C13.2777899,13.6361762 13.1082886,13.9554585 12.8442532,14.158377 C12.6554904,14.3026242 12.2192632,14.4276406 11.8834098,14.4832543 C11.0249276,14.6249334 10.1443405,14.6666361 9.24996465,14.6666361 C6.49147258,14.6666361 3.69167528,14.069346 1.33333333,12.9999656 Z M14.2513318,9.23289838 C14.0308386,9.29822156 13.7973302,9.33328747 13.5556142,9.33328747 L13.5556142,6.66662081 C14.5057424,6.66662081 15.329055,7.2083901 15.7335697,7.99993533 C15.903921,8.33327494 16,8.71091142 16,9.11103722 C16,9.73952919 15.7629405,10.3125699 15.3733342,10.7456087 C14.9943702,11.1668188 14.4710795,11.4555709 13.8812365,11.5340553 C13.8176005,11.5425227 13.7531899,11.5485427 13.6881023,11.5520176 C13.6442371,11.5543595 13.6000644,11.5555454 13.5556142,11.5555454 L12.9999962,11.5555454 L12.9999962,8.8888787 C13.1911264,8.8888787 13.3771246,8.91080181 13.5556142,8.95227112 C13.8042284,9.01003283 14.0382751,9.10571633 14.2513318,9.23289838 C14.8037848,9.56267983 15.2151093,10.1042445 15.3733342,10.7456087 C15.419776,10.9338603 15.4444126,11.1307099 15.4444126,11.3333257 C15.4444126,12.0673704 15.1210324,12.7257349 14.6089281,13.173758 C14.1790513,13.5498429 13.6161909,13.7777115 12.9999962,13.7777115 L12.9029243,13.7777115 L12.9029243,12.4443782 L13.7836987,11.4433716 C13.8171073,11.4727674 13.8496276,11.5030097 13.8812365,11.5340553 C14.3194913,11.9644997 14.5825458,12.549369 14.6089281,13.173758 C14.610388,13.2083105 14.6111232,13.2429841 14.6111232,13.2777593 C14.6111232,14.0453211 14.2534737,14.7569572 13.6538299,15.2177934 C13.2640393,15.5156606 12.6857512,15.7018847 12.1005189,15.7987928 C11.2338288,15.9418264 10.326097,15.9999694 9.24996465,15.9999694 C6.31735285,15.9999694 3.32796714,15.3684296 0.782702925,14.2142901 L0,13.8593767 L0,7.21963741 L0.680366905,6.83748197 C2.69872198,5.70379165 4.13965129,3.93719758 4.76932443,1.93319554 L4.8054369,1.81419826 C5.08665823,0.752157991 6.053029,0 7.16669533,0 C8.51692018,0 9.61114232,1.09415974 9.61114232,2.44438584 C9.61114232,2.65187057 9.58522818,2.85768098 9.5333117,3.05721524 L9.32322319,4.44442406 L13.5556142,4.44442406 C14.9058653,4.44442406 16,5.53857954 16,6.88884048 C16,7.28895713 15.903921,7.66659261 15.7335697,7.99993533 C15.4319651,8.59011397 14.8975448,9.04145163 14.2513318,9.23289838 Z" id="glove-outside" fill="#3391E9"></path>
            <path d="M1.33666671,12.9999656 C3.69500866,14.069346 6.49480596,14.6666361 9.25329803,14.6666361 C10.1476739,14.6666361 11.028261,14.6249334 11.8867432,14.4832543 C12.2225966,14.4276406 12.6588238,14.3026242 12.8475866,14.158377 C13.111622,13.9554585 13.2811233,13.6361762 13.2811233,13.2777593 C13.2811233,12.9474092 13.136876,12.6472966 12.9062577,12.4443782 L13.0033296,12.4443782 C13.6172213,12.4443782 14.1144127,11.9471562 14.1144127,11.3333257 C14.1144127,10.719434 13.6172213,10.222212 13.0033296,10.222212 L13.5589476,10.222212 C14.1728087,10.222212 14.6700001,9.72489832 14.6700001,9.11103722 C14.6700001,8.49714555 14.1728087,7.99995414 13.5589476,7.99995414 C14.1728087,7.99995414 14.6700001,7.50270158 14.6700001,6.88884048 C14.6700001,6.27494881 14.1728087,5.7777574 13.5589476,5.7777574 L8.57575167,5.7777574 C8.19208084,5.7777574 7.88126742,5.46660766 7.88126742,5.08327314 L8.23087901,2.77479709 C8.26432677,2.66956201 8.28114237,2.55833446 8.28114237,2.44438584 C8.28114237,1.83055532 7.78388981,1.33333333 7.17002871,1.33333333 C6.65626629,1.33333333 6.22272956,1.68325067 6.09768265,2.15549385 L6.05047668,2.31392737 C5.33673092,4.58605115 3.72001805,6.66127956 1.33666671,7.99998471 L1.33666671,12.9999656 Z" id="glove-inside" fill="#FFFFFF"></path>
        </g>
    </g>
</svg>