<?xml version="1.0" encoding="UTF-8"?>
<svg width="22px" height="22px" viewBox="0 0 22 22" version="1.1" xmlns="http://www.w3.org/2000/svg" xmlns:xlink="http://www.w3.org/1999/xlink">
    <title>user-detection</title>
    <desc>Anomaly Detection User Detection Icon</desc>
    <defs></defs>
    <g id="user-detection" stroke="none" stroke-width="1" fill-rule="evenodd">
        <g id="16-x-16" fill-rule="nonzero" transform="translate(3.000000, 3.000000)">
            <circle id="circle" fill="#24D2EF" cx="8" cy="8" r="8"></circle>
            <path d="M8.87904692,8.46250923 C8.87904692,8.07644991 9.19906977,8.2034431 9.34130216,7.49736092 C9.39717916,7.20781643 9.68164393,7.49228119 9.73752093,6.82683684 C9.75580795,6.69527188 9.69383527,6.56523085 9.58004937,6.49665452 C9.58004937,6.49665452 9.66132502,6.10043575 9.69180338,5.79565207 C9.72736148,5.4197522 9.4581359,4.44444444 8.00025399,4.44444444 C6.54237207,4.44444444 6.27314649,5.4197522 6.30870459,5.79565207 C6.33918296,6.10043575 6.4204586,6.49665452 6.4204586,6.49665452 C6.3066727,6.56523085 6.24470002,6.69527188 6.26298704,6.82683684 C6.31886405,7.49228119 6.60332881,7.20781643 6.65920582,7.49736092 C6.8014382,8.2034431 7.12146106,8.07644991 7.12146106,8.46250923 C7.12146106,9.10255494 7.29417181,9.40225889 6.24266813,9.75783985 C5.19116445,10.1134208 4.44444444,10.4791612 4.44444444,10.7229881 L4.44444444,11.1395258 C4.45104809,11.3762412 4.64864951,11.5631751 4.88536483,11.5560635 L4.89095253,11.5560635 L11.1085395,11.5560635 C11.3457628,11.565715 11.5459041,11.3818289 11.5555556,11.1451135 L11.5555556,11.1395258 L11.5555556,10.7229881 C11.5555556,10.4791612 10.8088356,10.1134208 9.75733187,9.75783985 C8.70582819,9.40225889 8.87904692,9.10255494 8.87904692,8.46250923" id="user" fill="#FFFFFF"></path>
        </g>
    </g>
</svg>