<?xml version="1.0" encoding="UTF-8" standalone="no"?>
<svg width="52px" height="45px" viewBox="0 0 52 45" version="1.1" xmlns="http://www.w3.org/2000/svg" xmlns:xlink="http://www.w3.org/1999/xlink">
    <!-- Generator: sketchtool 39.1 (31720) - http://www.bohemiancoding.com/sketch -->
    <title>DF9621C7-DA6B-4CF5-8AF7-95BD63476BD2</title>
    <desc>Created with sketchtool.</desc>
    <defs>
        <ellipse id="path-1" cx="7" cy="7" rx="7" ry="7"></ellipse>
        <mask id="mask-2" maskContentUnits="userSpaceOnUse" maskUnits="objectBoundingBox" x="-1.75" y="-1.75" width="17.5" height="17.5">
            <rect x="-1.75" y="-1.75" width="17.5" height="17.5" fill="white"></rect>
            <use xlink:href="#path-1" fill="black"></use>
        </mask>
    </defs>
    <g id="Pricing-Upgrade-" stroke="none" stroke-width="1" fill="none" fill-rule="evenodd">
        <g id="Export-CSV-Upgrade" transform="translate(-919.000000, -822.000000)">
            <g id="Group-6-Copy-6" transform="translate(900.000000, 805.000000)">
                <g id="Group-4">
                    <g id="illustration.csv" transform="translate(20.000000, 18.000000)">
                        <path d="M5.9374,39.931 C3.8654,39.931 2.1794,38.245 2.1794,36.174 L2.1794,5.937 C2.1794,3.865 3.8654,2.18 5.9374,2.18 L28.3554,2.18 L36.1794,13.288 L36.1794,36.174 C36.1794,38.245 34.4944,39.931 32.4214,39.931 L5.9374,39.931 Z" id="Fill-1" fill="#EDF3F9"></path>
                        <g id="arrow_down" transform="translate(13.000000, 15.000000)" fill="#C4D6E5">
                            <path d="M11.8239,7.99516667 L10.9755,7.17033333 C10.7415,6.94283333 10.3611,6.94283333 10.1271,7.17033333 L7.1991,10.0158333 L7.1991,0.583333333 C7.1991,0.260166667 6.9315,0 6.5991,0 L5.3991,0 C5.0679,0 4.7991,0.260166667 4.7991,0.583333333 L4.7991,10.0158333 L1.8723,7.17033333 C1.6383,6.94283333 1.2579,6.94283333 1.0239,7.17033333 L0.1755,7.99516667 C-0.0585,8.22266667 -0.0585,8.5925 0.1755,8.82 L5.1507,13.6581667 C5.6199,14.1131667 6.3795,14.1131667 6.8487,13.6581667 L11.8239,8.82 C12.0579,8.5925 12.0579,8.22266667 11.8239,7.99516667" id="Fill-1"></path>
                        </g>
                        <path d="M29.3932,0.1795 L5.9372,0.1795 C2.7702,0.1795 0.1792,2.7705 0.1792,5.9375 L0.1792,36.1735 C0.1792,39.3405 2.7702,41.9315 5.9372,41.9315 L32.4222,41.9315 C35.5882,41.9315 38.1792,39.3405 38.1792,36.1735 L38.1792,12.6545 L29.3932,0.1795 Z M27.3182,4.1795 L34.1792,13.9215 L34.1792,36.1735 C34.1792,37.1265 33.3742,37.9315 32.4222,37.9315 L5.9372,37.9315 C4.9842,37.9315 4.1792,37.1265 4.1792,36.1735 L4.1792,5.9375 C4.1792,4.9845 4.9842,4.1795 5.9372,4.1795 L27.3182,4.1795 L27.3182,4.1795 Z" id="Fill-3" fill="#FFFFFF"></path>
                        <path d="M29.3932,0.1795 L5.9372,0.1795 C2.7702,0.1795 0.1792,2.7705 0.1792,5.9375 L0.1792,36.1735 C0.1792,39.3405 2.7702,41.9315 5.9372,41.9315 L32.4222,41.9315 C35.5882,41.9315 38.1792,39.3405 38.1792,36.1735 L38.1792,12.6545 L29.3932,0.1795 L29.3932,0.1795 Z" id="Stroke-5" stroke="#4BA8FF" stroke-width="2.359" stroke-linecap="round" stroke-linejoin="round"></path>
                        <path d="M29.0443,0.1795 L29.0443,11.4845 C29.0443,12.4125 29.7783,13.1725 30.6753,13.1725 L38.1793,13.1725 L29.0443,0.1795 L29.0443,0.1795 Z" id="Stroke-7" stroke="#4BA8FF" stroke-width="2.359" stroke-linecap="round" stroke-linejoin="round"></path>
                        <path d="M32.4218,41.9314 L5.9368,41.9314 C2.7708,41.9314 0.1798,39.3404 0.1798,36.1734 L0.1798,5.9374" id="Stroke-9" stroke="#2788E3" stroke-width="2.359" stroke-linecap="round"></path>
                        <g id="untitled" transform="translate(35.000000, 28.000000)">
                            <g id="circle">
                                <use fill="#9270E2" fill-rule="evenodd" xlink:href="#path-1"></use>
                                <use stroke="#FFFFFF" mask="url(#mask-2)" stroke-width="3.5" xlink:href="#path-1"></use>
                            </g>
                            <g id="bolt" transform="translate(5.000000, 3.000000)" fill="#FFFFFF">
                                <path d="M1.55525581,4.88007766 C1.57060465,4.83210957 1.56446512,4.78184362 1.53786047,4.74421596 C1.51144186,4.7065883 1.46688372,4.68504574 1.41581395,4.68504574 L0.08,4.68504574 C0.0586046512,4.68504574 0.048372093,4.67910957 0.0469767442,4.67642872 C0.0455813953,4.67365213 0.0466046512,4.66149255 0.0586976744,4.64330106 L3.45660791,0.530830037 C3.5632356,0.401779167 3.61000516,0.41681697 3.55611828,0.579355724 L2.45739535,3.89342872 C2.43934884,3.94091809 2.44297674,3.9910883 2.46809302,4.02890745 C2.49311628,4.06663085 2.53711628,4.08836489 2.58855814,4.08836489 L3.85116279,4.08836489 C3.87311628,4.08836489 3.88455814,4.09487553 3.88762791,4.10042872 C3.8907907,4.10598191 3.89051163,4.11948191 3.87953488,4.13901383 L0.679585947,8.52545028 C0.57917036,8.66309829 0.532951972,8.64510352 0.573819398,8.49459356 L1.55525581,4.88007766 Z" id="Fill-1"></path>
                            </g>
                        </g>
                    </g>
                </g>
            </g>
        </g>
    </g>
</svg>
