<?xml version="1.0" encoding="utf-8"?>
<!-- Generator: Adobe Illustrator 19.2.1, SVG Export Plug-In . SVG Version: 6.00 Build 0)  -->
<svg version="1.1" id="Layer_1" xmlns="http://www.w3.org/2000/svg" xmlns:xlink="http://www.w3.org/1999/xlink" x="0px" y="0px"
	 viewBox="0 0 33 30" style="enable-background:new 0 0 33 30;" xml:space="preserve">
<style type="text/css">
	.fill{fill:#D8E0E7;}
</style>
<path class="fill" d="M32.2,24L20,2.5c-1.9-3.3-5-3.3-6.9,0L0.8,23.6C-1.1,26.9,0.5,30,4.2,30h24.5C32.5,30,34.1,27.3,32.2,24z
	 M16.6,26c-1.2,0-2.1-0.9-2.1-2.1c0-1.2,0.9-2.1,2.1-2.1c1.2,0,2.1,0.9,2.1,2.1C18.7,25.1,17.8,26,16.6,26z M18.1,20.4h-3l-1-12.3h5
	L18.1,20.4z"/>
</svg>
