<?xml version="1.0" encoding="UTF-8"?>
<svg width="22px" height="22px" viewBox="0 0 22 22" version="1.1" xmlns="http://www.w3.org/2000/svg" xmlns:xlink="http://www.w3.org/1999/xlink">
    <!-- Generator: Sketch 42 (36781) - http://www.bohemiancoding.com/sketch -->
    <title>alert</title>
    <desc>Created with Sketch.</desc>
    <defs></defs>
    <g id="16-x-16" stroke="none" stroke-width="1" fill-rule="evenodd">
        <g id="alert">
            <g transform="translate(4.000000, 4.000000)">
                <g>
                    <path d="M13.718,9.969 L8.466,0.888 C7.781,-0.296 6.195,-0.296 5.51,0.888 L0.287,9.919 C-0.487,11.258 0.396,13 1.849,13 L12.181,13 C13.61,13 14.479,11.286 13.718,9.969 L13.718,9.969 Z" id="alert-shape"></path>
                    <polygon id="stem" fill="#FFFFFF" points="6.5 8.5 7.5 8.5 8 3.5 6 3.5"></polygon>
                    <path d="M7,9.5 C6.448,9.5 6,9.948 6,10.5 C6,11.052 6.448,11.5 7,11.5 C7.552,11.5 8,11.052 8,10.5 C8,9.948 7.552,9.5 7,9.5" id="circle" fill="#FFFFFF"></path>
                </g>
            </g>
        </g>
    </g>
</svg>