<?xml version="1.0" encoding="UTF-8" standalone="no"?>
<svg width="22px" height="22px" viewBox="0 0 22 22" version="1.1" xmlns="http://www.w3.org/2000/svg" xmlns:xlink="http://www.w3.org/1999/xlink">
    <!-- Generator: Sketch 39.1 (31720) - http://www.bohemiancoding.com/sketch -->
    <title>alert</title>
    <desc>Created with Sketch.</desc>
    <defs></defs>
    <g id="16-x-16" stroke="none" stroke-width="1">
        <g id="alert">
            <g transform="translate(4.000000, 4.000000)" id="Page-1">
                <g>
                    <path d="M5.51,0.8883 L0.287,9.9193 C-0.487,11.2573 0.396,13.0003 1.849,13.0003 L12.181,13.0003 C13.61,13.0003 14.479,11.2863 13.718,9.9693 L8.466,0.8883 C7.781,-0.2957 6.195,-0.2957 5.51,0.8883" id="Fill-1"></path>
                    <polygon id="Fill-4" points="6 3.5 8 3.5 7.5 8.5 6.5 8.5"></polygon>
                    <path d="M8,10.5 C8,11.052 7.552,11.5 7,11.5 C6.448,11.5 6,11.052 6,10.5 C6,9.948 6.448,9.5 7,9.5 C7.552,9.5 8,9.948 8,10.5" id="Fill-6"></path>
                </g>
            </g>
        </g>
    </g>
</svg>