<?xml version="1.0" encoding="utf-8"?>
<!-- Generated by IcoMoon.io -->
<!DOCTYPE svg PUBLIC "-//W3C//DTD SVG 1.1//EN" "http://www.w3.org/Graphics/SVG/1.1/DTD/svg11.dtd">
<svg version="1.1" xmlns="http://www.w3.org/2000/svg" xmlns:xlink="http://www.w3.org/1999/xlink" width="22" height="22" viewBox="0 0 22 22">
<path fill="#000" d="M19.707 10.293c-0.234-0.235-2.36-2.293-4.707-2.293s-4.473 2.058-4.706 2.292c-0.479 0.475-2.004 1.708-3.294 1.708s-2.815-1.233-3.294-1.708c-0.391-0.389-1.025-0.387-1.414 0.003-0.389 0.391-0.389 1.022 0.001 1.412 0.234 0.235 2.36 2.293 4.707 2.293s4.473-2.058 4.706-2.291c0.479-0.476 2.004-1.709 3.294-1.709s2.815 1.233 3.294 1.709c0.391 0.387 1.023 0.388 1.414-0.004 0.389-0.391 0.389-1.022-0.001-1.412z"></path>
</svg>
