<?xml version="1.0" encoding="UTF-8" standalone="no"?>
<svg width="22px" height="22px" viewBox="0 0 22 22" version="1.1" xmlns="http://www.w3.org/2000/svg" xmlns:xlink="http://www.w3.org/1999/xlink">
    <!-- Generator: Sketch 39.1 (31720) - http://www.bohemiancoding.com/sketch -->
    <title>analysis_logarithmic</title>
    <desc>Created with Sketch.</desc>
    <defs>
        <polygon id="path-1" points="8.00013991 14 16 14 16 0 8.00013991 0 0.000279820357 0 0.000279820357 14"></polygon>
    </defs>
    <g id="16-x-16-solid" stroke="none" stroke-width="1" fill="none" fill-rule="evenodd">
        <g id="analysis_logarithmic">
            <g id="Page-1" transform="translate(3.000000, 4.000000)">
                <mask id="mask-2" fill="white">
                    <use xlink:href="#path-1"></use>
                </mask>
                <g id="Clip-2"></g>
                <path d="M15.0001,0 C14.6971,0 7.5481,0.038 4.2931,3.293 C1.1031,6.483 0.0571,12.578 0.0141,12.836 C-0.0769,13.38 0.2911,13.895 0.8351,13.986 C0.8911,13.995 0.9461,14 1.0011,14 C1.4811,14 1.9041,13.653 1.9861,13.165 C1.9961,13.108 2.9731,7.441 5.7071,4.707 C8.3761,2.038 14.9351,2 15.0011,2 C15.5531,2 16.0001,1.551 16.0001,1 C15.9991,0.447 15.5521,0 15.0001,0" id="Fill-1" fill="#231F1F" mask="url(#mask-2)"></path>
            </g>
        </g>
    </g>
</svg>