<?xml version="1.0" encoding="utf-8"?>
<!-- Generated by IcoMoon.io -->
<!DOCTYPE svg PUBLIC "-//W3C//DTD SVG 1.1//EN" "http://www.w3.org/Graphics/SVG/1.1/DTD/svg11.dtd">
<svg version="1.1" xmlns="http://www.w3.org/2000/svg" xmlns:xlink="http://www.w3.org/1999/xlink" width="32" height="32" viewBox="0 0 32 32">
<path fill="#000" d="M28.664 14.972c-0.34-0.342-3.433-3.335-6.847-3.335s-6.506 2.993-6.845 3.334c-0.697 0.691-2.915 2.484-4.791 2.484s-4.095-1.793-4.791-2.484c-0.569-0.566-1.491-0.563-2.057 0.004-0.566 0.569-0.566 1.487 0.001 2.054 0.34 0.342 3.433 3.335 6.847 3.335s6.506-2.993 6.845-3.332c0.697-0.692 2.915-2.486 4.791-2.486s4.095 1.793 4.791 2.486c0.569 0.563 1.488 0.564 2.057-0.006 0.566-0.569 0.566-1.487-0.001-2.054z"></path>
</svg>
