<?xml version="1.0" encoding="UTF-8" standalone="no"?>
<svg width="22px" height="22px" viewBox="0 0 22 22" version="1.1" xmlns="http://www.w3.org/2000/svg" xmlns:xlink="http://www.w3.org/1999/xlink">
    <!-- Generator: Sketch 39.1 (31720) - http://www.bohemiancoding.com/sketch -->
    <title>analysis_rolling</title>
    <desc>Created with Sketch.</desc>
    <defs>
        <polygon id="path-1" points="8.99958744 6 17.999 6 17.999 0 8.99958744 0 0.000174879653 0 0.000174879653 6 8.99958744 6"></polygon>
    </defs>
    <g id="16-x-16-solid" stroke="none" stroke-width="1">
        <g id="analysis_rolling">
            <g id="Page-1" transform="translate(2.000000, 8.000000)">
                <mask id="mask-2">
                    <use xlink:href="#path-1"></use>
                </mask>
                <g id="Clip-2"></g>
                <path d="M17.7068,2.293 C17.4728,2.058 15.3468,0 12.9998,0 C10.6528,0 8.5268,2.058 8.2938,2.292 C7.8148,2.767 6.2898,4 4.9998,4 C3.7098,4 2.1848,2.767 1.7058,2.292 C1.3148,1.903 0.6808,1.905 0.2918,2.295 C-0.0972,2.686 -0.0972,3.317 0.2928,3.707 C0.5268,3.942 2.6528,6 4.9998,6 C7.3468,6 9.4728,3.942 9.7058,3.709 C10.1848,3.233 11.7098,2 12.9998,2 C14.2898,2 15.8148,3.233 16.2938,3.709 C16.6848,4.096 17.3168,4.097 17.7078,3.705 C18.0968,3.314 18.0968,2.683 17.7068,2.293" id="Fill-1" mask="url(#mask-2)"></path>
            </g>
        </g>
    </g>
</svg>