<?xml version="1.0" encoding="utf-8"?>
<!-- Generated by IcoMoon.io -->
<!DOCTYPE svg PUBLIC "-//W3C//DTD SVG 1.1//EN" "http://www.w3.org/Graphics/SVG/1.1/DTD/svg11.dtd">
<svg version="1.1" xmlns="http://www.w3.org/2000/svg" xmlns:xlink="http://www.w3.org/1999/xlink" width="32" height="32" viewBox="0 0 32 32">
<path fill="#000" d="M23.059 17.241l-1.028-1.028c-0.284-0.284-0.745-0.284-1.028 0l-3.549 3.548v-11.76c0-0.403-0.324-0.727-0.727-0.727h-1.455c-0.401 0-0.727 0.324-0.727 0.727v11.76l-3.548-3.548c-0.284-0.284-0.745-0.284-1.028 0l-1.028 1.028c-0.284 0.284-0.284 0.745 0 1.028l6.031 6.032c0.569 0.567 1.489 0.567 2.058 0l6.031-6.032c0.284-0.284 0.284-0.745 0-1.028z"></path>
</svg>
