<?xml version="1.0" encoding="UTF-8" standalone="no"?>
<svg width="22px" height="22px" viewBox="0 0 22 22" version="1.1" xmlns="http://www.w3.org/2000/svg" xmlns:xlink="http://www.w3.org/1999/xlink">
    <!-- Generator: Sketch 39.1 (31720) - http://www.bohemiancoding.com/sketch -->
    <title>arrow_right</title>
    <desc>Created with Sketch.</desc>
    <defs></defs>
    <g id="16-x-16-solid" stroke="none" stroke-width="1">
        <g id="arrow_right">
            <g id="Page-1" transform="translate(5.000000, 6.000000)">
                <path d="M11.707,4.29295 L7.561,0.14695 C7.365,-0.04905 7.049,-0.04905 6.853,0.14695 L6.146,0.85295 C5.951,1.04895 5.951,1.36495 6.146,1.56095 L8.586,3.99995 L0.5,3.99995 C0.224,3.99995 0,4.22395 0,4.49995 L0,5.49995 C0,5.77595 0.224,5.99995 0.5,5.99995 L8.586,5.99995 L6.146,8.43895 C5.951,8.63495 5.951,8.95095 6.146,9.14695 L6.853,9.85295 C7.049,10.04895 7.365,10.04895 7.561,9.85295 L11.707,5.70695 C12.097,5.31695 12.097,4.68295 11.707,4.29295" id="Fill-1"></path>
            </g>
        </g>
    </g>
</svg>