<?xml version="1.0" encoding="UTF-8" standalone="no"?>
<svg width="22px" height="22px" viewBox="0 0 22 22" version="1.1" xmlns="http://www.w3.org/2000/svg" xmlns:xlink="http://www.w3.org/1999/xlink">
    <!-- Generator: Sketch 39.1 (31720) - http://www.bohemiancoding.com/sketch -->
    <title>arrow_up</title>
    <desc>Created with Sketch.</desc>
    <defs>
        <polygon id="path-1" points="0.00015 11.9999 9.99965 11.9999 9.99965 5e-05 0.00015 5e-05"></polygon>
    </defs>
    <g id="16-x-16-solid" stroke="none" stroke-width="1">
        <g id="arrow_up">
            <g id="Page-1" transform="translate(6.000000, 5.000000)">
                <mask id="mask-2">
                    <use xlink:href="#path-1"></use>
                </mask>
                <g id="Clip-2"></g>
                <path d="M9.8534,4.4393 L5.7074,0.2933 C5.3164,-0.0977 4.6834,-0.0977 4.2924,0.2933 L0.1464,4.4393 C-0.0486,4.6343 -0.0486,4.9513 0.1464,5.1463 L0.8534,5.8533 C1.0484,6.0483 1.3654,6.0483 1.5604,5.8533 L3.9994,3.4143 L3.9994,11.5003 C3.9994,11.7763 4.2234,12.0003 4.4994,12.0003 L5.4994,12.0003 C5.7764,12.0003 5.9994,11.7763 5.9994,11.5003 L5.9994,3.4143 L8.4394,5.8533 C8.6344,6.0483 8.9514,6.0483 9.1464,5.8533 L9.8534,5.1463 C10.0484,4.9513 10.0484,4.6343 9.8534,4.4393" id="Fill-1" mask="url(#mask-2)"></path>
            </g>
        </g>
    </g>
</svg>