<?xml version="1.0" encoding="utf-8"?>
<!-- Generated by IcoMoon.io -->
<!DOCTYPE svg PUBLIC "-//W3C//DTD SVG 1.1//EN" "http://www.w3.org/Graphics/SVG/1.1/DTD/svg11.dtd">
<svg version="1.1" xmlns="http://www.w3.org/2000/svg" xmlns:xlink="http://www.w3.org/1999/xlink" width="32" height="32" viewBox="0 0 32 32">
<path fill="#000" d="M24 14.545h-11.761l3.548-3.548c0.285-0.285 0.285-0.745 0-1.028l-1.027-1.028c-0.285-0.285-0.745-0.285-1.030 0l-6.031 6.031c-0.569 0.567-0.569 1.489 0 2.057l6.031 6.032c0.285 0.284 0.745 0.284 1.030 0l1.027-1.028c0.285-0.285 0.285-0.745 0-1.030l-3.548-3.548h11.761c0.401 0 0.727-0.326 0.727-0.727v-1.455c0-0.401-0.326-0.727-0.727-0.727z"></path>
</svg>
