<?xml version="1.0" encoding="UTF-8" standalone="no"?>
<svg width="22px" height="22px" viewBox="0 0 22 22" version="1.1" xmlns="http://www.w3.org/2000/svg" xmlns:xlink="http://www.w3.org/1999/xlink">
    <!-- Generator: Sketch 39.1 (31720) - http://www.bohemiancoding.com/sketch -->
    <title>arrow_down</title>
    <desc>Created with Sketch.</desc>
    <defs></defs>
    <g id="16-x-16-solid" stroke="none" stroke-width="1" fill="none" fill-rule="evenodd">
        <g id="arrow_down" fill="#000000">
            <path d="M15.85325,11.853 L15.14625,11.146 C14.95125,10.951 14.63425,10.951 14.43925,11.146 L11.99925,13.585 L11.99925,5.5 C11.99925,5.223 11.77625,5 11.49925,5 L10.49925,5 C10.22325,5 9.99925,5.223 9.99925,5.5 L9.99925,13.585 L7.56025,11.146 C7.36525,10.951 7.04825,10.951 6.85325,11.146 L6.14625,11.853 C5.95125,12.048 5.95125,12.365 6.14625,12.56 L10.29225,16.707 C10.68325,17.097 11.31625,17.097 11.70725,16.707 L15.85325,12.56 C16.04825,12.365 16.04825,12.048 15.85325,11.853" id="Fill-1"></path>
        </g>
    </g>
</svg>