<?xml version="1.0" encoding="utf-8"?>
<!-- Generated by IcoMoon.io -->
<!DOCTYPE svg PUBLIC "-//W3C//DTD SVG 1.1//EN" "http://www.w3.org/Graphics/SVG/1.1/DTD/svg11.dtd">
<svg version="1.1" xmlns="http://www.w3.org/2000/svg" xmlns:xlink="http://www.w3.org/1999/xlink" width="32" height="32" viewBox="0 0 32 32">
<path fill="#000" d="M23.059 13.73l-6.031-6.031c-0.569-0.569-1.489-0.569-2.058 0l-6.031 6.031c-0.284 0.284-0.284 0.745 0 1.028l1.028 1.028c0.284 0.284 0.745 0.284 1.028 0l3.548-3.548v11.761c0 0.401 0.326 0.727 0.727 0.727h1.455c0.403 0 0.727-0.326 0.727-0.727v-11.761l3.549 3.548c0.284 0.284 0.745 0.284 1.028 0l1.028-1.028c0.284-0.284 0.284-0.745 0-1.028z"></path>
</svg>
