<?xml version="1.0" encoding="utf-8"?>
<!-- Generated by IcoMoon.io -->
<!DOCTYPE svg PUBLIC "-//W3C//DTD SVG 1.1//EN" "http://www.w3.org/Graphics/SVG/1.1/DTD/svg11.dtd">
<svg version="1.1" xmlns="http://www.w3.org/2000/svg" xmlns:xlink="http://www.w3.org/1999/xlink" width="22" height="22" viewBox="0 0 22 22">
<path fill="#000" d="M15.853 11.853l-0.707-0.707c-0.195-0.195-0.512-0.195-0.707 0l-2.44 2.439v-8.085c0-0.277-0.223-0.5-0.5-0.5h-1c-0.276 0-0.5 0.223-0.5 0.5v8.085l-2.439-2.439c-0.195-0.195-0.512-0.195-0.707 0l-0.707 0.707c-0.195 0.195-0.195 0.512 0 0.707l4.146 4.147c0.391 0.39 1.024 0.39 1.415 0l4.146-4.147c0.195-0.195 0.195-0.512 0-0.707z"></path>
</svg>
