<?xml version="1.0" encoding="utf-8"?>
<!-- Generated by IcoMoon.io -->
<!DOCTYPE svg PUBLIC "-//W3C//DTD SVG 1.1//EN" "http://www.w3.org/Graphics/SVG/1.1/DTD/svg11.dtd">
<svg version="1.1" xmlns="http://www.w3.org/2000/svg" xmlns:xlink="http://www.w3.org/1999/xlink" width="32" height="32" viewBox="0 0 32 32">
<path fill="#000" d="M24.301 14.972l-6.031-6.031c-0.285-0.285-0.745-0.285-1.030 0l-1.028 1.027c-0.284 0.285-0.284 0.745 0 1.030l3.549 3.548h-11.761c-0.401 0-0.727 0.326-0.727 0.727v1.455c0 0.401 0.326 0.727 0.727 0.727h11.761l-3.549 3.548c-0.284 0.285-0.284 0.745 0 1.030l1.028 1.027c0.285 0.285 0.745 0.285 1.030 0l6.031-6.031c0.567-0.567 0.567-1.489 0-2.057z"></path>
</svg>
