<?xml version="1.0" encoding="utf-8"?>
<!-- Generated by IcoMoon.io -->
<!DOCTYPE svg PUBLIC "-//W3C//DTD SVG 1.1//EN" "http://www.w3.org/Graphics/SVG/1.1/DTD/svg11.dtd">
<svg version="1.1" xmlns="http://www.w3.org/2000/svg" xmlns:xlink="http://www.w3.org/1999/xlink" width="22" height="22" viewBox="0 0 22 22">
<path fill="#000" d="M16.707 10.293l-4.146-4.146c-0.196-0.196-0.512-0.196-0.708 0l-0.707 0.706c-0.195 0.196-0.195 0.512 0 0.708l2.44 2.439h-8.086c-0.276 0-0.5 0.224-0.5 0.5v1c0 0.276 0.224 0.5 0.5 0.5h8.086l-2.44 2.439c-0.195 0.196-0.195 0.512 0 0.708l0.707 0.706c0.196 0.196 0.512 0.196 0.708 0l4.146-4.146c0.39-0.39 0.39-1.024 0-1.414z"></path>
</svg>
