<?xml version="1.0" encoding="utf-8"?>
<!-- Generated by IcoMoon.io -->
<!DOCTYPE svg PUBLIC "-//W3C//DTD SVG 1.1//EN" "http://www.w3.org/Graphics/SVG/1.1/DTD/svg11.dtd">
<svg version="1.1" xmlns="http://www.w3.org/2000/svg" xmlns:xlink="http://www.w3.org/1999/xlink" width="22" height="22" viewBox="0 0 22 22">
<path fill="#000" d="M16.5 10h-8.086l2.439-2.439c0.196-0.196 0.196-0.512 0-0.707l-0.706-0.707c-0.196-0.196-0.512-0.196-0.708 0l-4.146 4.146c-0.391 0.39-0.391 1.024 0 1.414l4.146 4.147c0.196 0.195 0.512 0.195 0.708 0l0.706-0.707c0.196-0.196 0.196-0.512 0-0.708l-2.439-2.439h8.086c0.276 0 0.5-0.224 0.5-0.5v-1c0-0.276-0.224-0.5-0.5-0.5z"></path>
</svg>
