<?xml version="1.0" encoding="utf-8"?>
<!-- Generated by IcoMoon.io -->
<!DOCTYPE svg PUBLIC "-//W3C//DTD SVG 1.1//EN" "http://www.w3.org/Graphics/SVG/1.1/DTD/svg11.dtd">
<svg version="1.1" xmlns="http://www.w3.org/2000/svg" xmlns:xlink="http://www.w3.org/1999/xlink" width="22" height="22" viewBox="0 0 22 22">
<path fill="#000" d="M15.853 9.439l-4.146-4.146c-0.391-0.391-1.024-0.391-1.415 0l-4.146 4.146c-0.195 0.195-0.195 0.512 0 0.707l0.707 0.707c0.195 0.195 0.512 0.195 0.707 0l2.439-2.439v8.086c0 0.276 0.224 0.5 0.5 0.5h1c0.277 0 0.5-0.224 0.5-0.5v-8.086l2.44 2.439c0.195 0.195 0.512 0.195 0.707 0l0.707-0.707c0.195-0.195 0.195-0.512 0-0.707z"></path>
</svg>
