<?xml version="1.0" encoding="UTF-8" standalone="no"?>
<svg width="22px" height="22px" viewBox="0 0 22 22" version="1.1" xmlns="http://www.w3.org/2000/svg" xmlns:xlink="http://www.w3.org/1999/xlink">
    <!-- Generator: Sketch 39.1 (31720) - http://www.bohemiancoding.com/sketch -->
    <title>arrow_left</title>
    <desc>Created with Sketch.</desc>
    <defs>
        <polygon id="path-1" points="11.9999 9.99985 0 9.99985 0 -0.00015 5.99995 -0.00015 11.9999 -0.00015"></polygon>
    </defs>
    <g id="16-x-16-solid" stroke="none" stroke-width="1" fill="none" fill-rule="evenodd">
        <g id="arrow_left">
            <g id="Page-1" transform="translate(5.000000, 6.000000)">
                <mask id="mask-2" fill="white">
                    <use xlink:href="#path-1"></use>
                </mask>
                <g id="Clip-2"></g>
                <path d="M11.4999,3.99985 L3.4139,3.99985 L5.8529,1.56085 C6.0489,1.36485 6.0489,1.04885 5.8529,0.85385 L5.1469,0.14685 C4.9509,-0.04915 4.6349,-0.04915 4.4389,0.14685 L0.2929,4.29285 C-0.0981,4.68285 -0.0981,5.31685 0.2929,5.70685 L4.4389,9.85385 C4.6349,10.04885 4.9509,10.04885 5.1469,9.85385 L5.8529,9.14685 C6.0489,8.95085 6.0489,8.63485 5.8529,8.43885 L3.4139,5.99985 L11.4999,5.99985 C11.7759,5.99985 11.9999,5.77585 11.9999,5.49985 L11.9999,4.49985 C11.9999,4.22385 11.7759,3.99985 11.4999,3.99985" id="Fill-1" fill="#000000" mask="url(#mask-2)"></path>
            </g>
        </g>
    </g>
</svg>