<?xml version="1.0" encoding="UTF-8" standalone="no"?>
<svg width="22px" height="22px" viewBox="0 0 22 22" version="1.1" xmlns="http://www.w3.org/2000/svg" xmlns:xlink="http://www.w3.org/1999/xlink">
    <!-- Generator: Sketch 39.1 (31720) - http://www.bohemiancoding.com/sketch -->
    <title>autotrack</title>
    <desc>Created with Sketch.</desc>
    <defs>
        <polygon id="path-1" points="15.984 7.10542736e-15 0 7.10542736e-15 0 7.9917 0 15.9834 15.984 15.9834 15.984 7.10542736e-15"></polygon>
        <polygon id="path-3" points="0.8485273 8 7.99985 8 7.99985 0.8481273 0.8485273 0.8481273"></polygon>
    </defs>
    <g id="16-x-16-solid" stroke="none" stroke-width="1">
        <g id="autotrack">
            <g id="Page-1" transform="translate(3.000000, 3.000000)">
                <g id="Group-3" transform="translate(0.000000, 0.000200)">
                    <mask id="mask-2">
                        <use xlink:href="#path-1"></use>
                    </mask>
                    <g id="Clip-2"></g>
                    <path d="M2,8.0564 C2,4.7164 4.717,1.9994 8.057,1.9994 C10.989,1.9994 13.496,4.0904 14.016,6.9714 L15.984,6.6164 C15.292,2.7824 11.958,-0.0006 8.057,-0.0006 C3.614,-0.0006 0,3.6144 0,8.0564 C0,11.9574 2.782,15.2914 6.616,15.9834 L6.972,14.0154 C4.091,13.4954 2,10.9894 2,8.0564" id="Fill-1" mask="url(#mask-2)"></path>
                </g>
                <path d="M8.0244,6 C9.0044,6 9.8414,6.699 10.0154,7.661 L11.9844,7.306 C11.6384,5.39 9.9724,4 8.0244,4 C5.8054,4 4.0004,5.805 4.0004,8.024 C4.0004,9.973 5.3904,11.638 7.3054,11.984 L7.6614,10.016 C6.6984,9.842 6.0004,9.005 6.0004,8.024 C6.0004,6.908 6.9084,6 8.0244,6" id="Fill-4"></path>
                <g id="Group-8" transform="translate(8.000000, 8.000200)">
                    <mask id="mask-4">
                        <use xlink:href="#path-3"></use>
                    </mask>
                    <g id="Clip-7"></g>
                    <path d="M7.8536,5.7322 L5.5556,3.4342 C5.4576,3.3362 5.4576,3.1782 5.5556,3.0802 L6.7786,1.8572 C6.9266,1.7092 6.8376,1.4552 6.6296,1.4322 L1.4036,0.8512 C1.0856,0.8162 0.8166,1.0852 0.8516,1.4032 L1.4326,6.6292 C1.4556,6.8382 1.7096,6.9272 1.8576,6.7782 L3.0806,5.5552 C3.1786,5.4582 3.3366,5.4582 3.4346,5.5552 L5.7326,7.8532 C5.9276,8.0492 6.2446,8.0492 6.4396,7.8532 L7.8536,6.4392 C8.0486,6.2442 8.0486,5.9272 7.8536,5.7322" id="Fill-6" mask="url(#mask-4)"></path>
                </g>
            </g>
        </g>
    </g>
</svg>