<?xml version="1.0" encoding="utf-8"?>
<!-- Generated by IcoMoon.io -->
<!DOCTYPE svg PUBLIC "-//W3C//DTD SVG 1.1//EN" "http://www.w3.org/Graphics/SVG/1.1/DTD/svg11.dtd">
<svg version="1.1" xmlns="http://www.w3.org/2000/svg" xmlns:xlink="http://www.w3.org/1999/xlink" width="32" height="32" viewBox="0 0 32 32">
<path fill="#000" d="M7.273 16.082c0-4.858 3.952-8.81 8.81-8.81 4.265 0 7.911 3.041 8.668 7.232l2.863-0.516c-1.007-5.577-5.856-9.625-11.53-9.625-6.463 0-11.719 5.258-11.719 11.719 0 5.674 4.047 10.524 9.623 11.53l0.518-2.863c-4.191-0.756-7.232-4.401-7.232-8.668z"></path>
<path fill="#000" d="M16.035 13.091c1.425 0 2.643 1.017 2.896 2.416l2.864-0.516c-0.503-2.787-2.927-4.809-5.76-4.809-3.228 0-5.853 2.625-5.853 5.853 0 2.835 2.022 5.257 4.807 5.76l0.518-2.863c-1.401-0.253-2.416-1.471-2.416-2.897 0-1.623 1.321-2.944 2.944-2.944z"></path>
<path fill="#000" d="M27.423 24.338l-3.343-3.343c-0.143-0.143-0.143-0.372 0-0.515l1.779-1.779c0.215-0.215 0.086-0.585-0.217-0.618l-7.601-0.845c-0.463-0.051-0.854 0.34-0.803 0.803l0.845 7.601c0.033 0.304 0.403 0.433 0.618 0.217l1.779-1.779c0.143-0.141 0.372-0.141 0.515 0l3.343 3.343c0.284 0.285 0.745 0.285 1.028 0l2.057-2.057c0.284-0.284 0.284-0.745 0-1.028z"></path>
</svg>
