<?xml version="1.0" encoding="utf-8"?>
<!-- Generated by IcoMoon.io -->
<!DOCTYPE svg PUBLIC "-//W3C//DTD SVG 1.1//EN" "http://www.w3.org/Graphics/SVG/1.1/DTD/svg11.dtd">
<svg version="1.1" xmlns="http://www.w3.org/2000/svg" xmlns:xlink="http://www.w3.org/1999/xlink" width="22" height="22" viewBox="0 0 22 22">
<path fill="#000" d="M5 11.056c0-3.34 2.717-6.057 6.057-6.057 2.932 0 5.439 2.091 5.959 4.972l1.968-0.355c-0.692-3.834-4.026-6.617-7.927-6.617-4.443 0-8.057 3.615-8.057 8.057 0 3.901 2.782 7.235 6.616 7.927l0.356-1.968c-2.881-0.52-4.972-3.026-4.972-5.959z"></path>
<path fill="#000" d="M11.024 9c0.98 0 1.817 0.699 1.991 1.661l1.969-0.355c-0.346-1.916-2.012-3.306-3.96-3.306-2.219 0-4.024 1.805-4.024 4.024 0 1.949 1.39 3.614 3.305 3.96l0.356-1.968c-0.963-0.174-1.661-1.011-1.661-1.992 0-1.116 0.908-2.024 2.024-2.024z"></path>
<path fill="#000" d="M18.853 16.732l-2.298-2.298c-0.098-0.098-0.098-0.256 0-0.354l1.223-1.223c0.148-0.148 0.059-0.402-0.149-0.425l-5.226-0.581c-0.318-0.035-0.587 0.234-0.552 0.552l0.581 5.226c0.023 0.209 0.277 0.298 0.425 0.149l1.223-1.223c0.098-0.097 0.256-0.097 0.354 0l2.298 2.298c0.195 0.196 0.512 0.196 0.707 0l1.414-1.414c0.195-0.195 0.195-0.512 0-0.707z"></path>
</svg>
