<?xml version="1.0" encoding="utf-8"?>
<!-- Generated by IcoMoon.io -->
<!DOCTYPE svg PUBLIC "-//W3C//DTD SVG 1.1//EN" "http://www.w3.org/Graphics/SVG/1.1/DTD/svg11.dtd">
<svg version="1.1" xmlns="http://www.w3.org/2000/svg" xmlns:xlink="http://www.w3.org/1999/xlink" width="22" height="22" viewBox="0 0 22 22">
<path fill="#000" d="M4 7h4c0.552 0 1-0.448 1-1v-1c0-0.552-0.448-1-1-1h-4c-0.552 0-1 0.448-1 1v1c0 0.552 0.448 1 1 1z"></path>
<path fill="#000" d="M11 7h3c0.552 0 1-0.448 1-1v-1c0-0.552-0.448-1-1-1h-3c-0.552 0-1 0.448-1 1v1c0 0.552 0.448 1 1 1z"></path>
<path fill="#000" d="M18 4h-1c-0.552 0-1 0.448-1 1v1c0 0.552 0.448 1 1 1h1c0.552 0 1-0.448 1-1v-1c0-0.552-0.448-1-1-1z"></path>
<path fill="#000" d="M11 9h-7c-0.552 0-1 0.448-1 1v1c0 0.552 0.448 1 1 1h7c0.552 0 1-0.448 1-1v-1c0-0.552-0.448-1-1-1z"></path>
<path fill="#000" d="M15 9h-1c-0.552 0-1 0.448-1 1v1c0 0.552 0.448 1 1 1h1c0.552 0 1-0.448 1-1v-1c0-0.552-0.448-1-1-1z"></path>
<path fill="#000" d="M7 14h-3c-0.552 0-1 0.448-1 1v1c0 0.552 0.448 1 1 1h3c0.552 0 1-0.448 1-1v-1c0-0.552-0.448-1-1-1z"></path>
<path fill="#000" d="M10 14c-0.552 0-1 0.448-1 1v1c0 0.552 0.448 1 1 1s1-0.448 1-1v-1c0-0.552-0.448-1-1-1z"></path>
</svg>
