<?xml version="1.0" encoding="UTF-8" standalone="no"?>
<svg width="22px" height="22px" viewBox="0 0 22 22" version="1.1" xmlns="http://www.w3.org/2000/svg" xmlns:xlink="http://www.w3.org/1999/xlink">
    <!-- Generator: Sketch 39.1 (31720) - http://www.bohemiancoding.com/sketch -->
    <title>bar</title>
    <desc>Created with Sketch.</desc>
    <defs></defs>
    <g id="16-x-16-solid" stroke="none" stroke-width="1" fill="none" fill-rule="evenodd">
        <g id="bar" fill="#000000">
            <g id="Page-1" transform="translate(3.000000, 4.000000)">
                <path d="M15,0 L1,0 C0.448,0 0,0.448 0,1 L0,2 C0,2.552 0.448,3 1,3 L15,3 C15.552,3 16,2.552 16,2 L16,1 C16,0.448 15.552,0 15,0" id="Fill-1"></path>
                <path d="M11,5 L1,5 C0.448,5 0,5.448 0,6 L0,7 C0,7.552 0.448,8 1,8 L11,8 C11.552,8 12,7.552 12,7 L12,6 C12,5.448 11.552,5 11,5" id="Fill-3"></path>
                <path d="M6,10 L1,10 C0.448,10 0,10.448 0,11 L0,12 C0,12.552 0.448,13 1,13 L6,13 C6.552,13 7,12.552 7,12 L7,11 C7,10.448 6.552,10 6,10" id="Fill-5"></path>
            </g>
        </g>
    </g>
</svg>