<?xml version="1.0" encoding="utf-8"?>
<!-- Generated by IcoMoon.io -->
<!DOCTYPE svg PUBLIC "-//W3C//DTD SVG 1.1//EN" "http://www.w3.org/Graphics/SVG/1.1/DTD/svg11.dtd">
<svg version="1.1" xmlns="http://www.w3.org/2000/svg" xmlns:xlink="http://www.w3.org/1999/xlink" width="22" height="22" viewBox="0 0 22 22">
<path fill="#000" d="M18 4h-14c-0.552 0-1 0.448-1 1v1c0 0.552 0.448 1 1 1h14c0.552 0 1-0.448 1-1v-1c0-0.552-0.448-1-1-1z"></path>
<path fill="#000" d="M14 9h-10c-0.552 0-1 0.448-1 1v1c0 0.552 0.448 1 1 1h10c0.552 0 1-0.448 1-1v-1c0-0.552-0.448-1-1-1z"></path>
<path fill="#000" d="M9 14h-5c-0.552 0-1 0.448-1 1v1c0 0.552 0.448 1 1 1h5c0.552 0 1-0.448 1-1v-1c0-0.552-0.448-1-1-1z"></path>
</svg>
