<?xml version="1.0" encoding="UTF-8" standalone="no"?>
<svg width="22px" height="22px" viewBox="0 0 22 22" version="1.1" xmlns="http://www.w3.org/2000/svg" xmlns:xlink="http://www.w3.org/1999/xlink">
    <!-- Generator: Sketch 39.1 (31720) - http://www.bohemiancoding.com/sketch -->
    <title>bar_stacked</title>
    <desc>Created with Sketch.</desc>
    <defs></defs>
    <g id="16-x-16-solid" stroke="none" stroke-width="1" fill="none" fill-rule="evenodd">
        <g id="bar_stacked" fill="#000000">
            <g id="Page-1" transform="translate(3.000000, 4.000000)">
                <path d="M1,3 L5,3 C5.552,3 6,2.552 6,2 L6,1 C6,0.448 5.552,0 5,0 L1,0 C0.448,0 0,0.448 0,1 L0,2 C0,2.552 0.448,3 1,3" id="Fill-1"></path>
                <path d="M8,3 L11,3 C11.552,3 12,2.552 12,2 L12,1 C12,0.448 11.552,0 11,0 L8,0 C7.448,0 7,0.448 7,1 L7,2 C7,2.552 7.448,3 8,3" id="Fill-3"></path>
                <path d="M15,0 L14,0 C13.448,0 13,0.448 13,1 L13,2 C13,2.552 13.448,3 14,3 L15,3 C15.552,3 16,2.552 16,2 L16,1 C16,0.448 15.552,0 15,0" id="Fill-5"></path>
                <path d="M8,5 L1,5 C0.448,5 0,5.448 0,6 L0,7 C0,7.552 0.448,8 1,8 L8,8 C8.552,8 9,7.552 9,7 L9,6 C9,5.448 8.552,5 8,5" id="Fill-7"></path>
                <path d="M12,5 L11,5 C10.448,5 10,5.448 10,6 L10,7 C10,7.552 10.448,8 11,8 L12,8 C12.552,8 13,7.552 13,7 L13,6 C13,5.448 12.552,5 12,5" id="Fill-9"></path>
                <path d="M4,10 L1,10 C0.448,10 0,10.448 0,11 L0,12 C0,12.552 0.448,13 1,13 L4,13 C4.552,13 5,12.552 5,12 L5,11 C5,10.448 4.552,10 4,10" id="Fill-11"></path>
                <path d="M7,10 C6.448,10 6,10.448 6,11 L6,12 C6,12.552 6.448,13 7,13 C7.552,13 8,12.552 8,12 L8,11 C8,10.448 7.552,10 7,10" id="Fill-13"></path>
            </g>
        </g>
    </g>
</svg>