<?xml version="1.0" encoding="UTF-8" standalone="no"?>
<svg width="22px" height="22px" viewBox="0 0 22 22" version="1.1" xmlns="http://www.w3.org/2000/svg" xmlns:xlink="http://www.w3.org/1999/xlink">
    <!-- Generator: Sketch 39.1 (31720) - http://www.bohemiancoding.com/sketch -->
    <title>bar_graph</title>
    <desc>Created with Sketch.</desc>
    <defs></defs>
    <g id="16-x-16-solid" stroke="none" stroke-width="1" fill="none" fill-rule="evenodd">
        <g id="bar_graph" fill="#000000">
            <g id="Page-1" transform="translate(3.000000, 4.000000)">
                <path d="M15.5,0 L12.5,0 C12.224,0 12,0.224 12,0.5 L12,13.5 C12,13.776 12.224,14 12.5,14 L15.5,14 C15.776,14 16,13.776 16,13.5 L16,0.5 C16,0.224 15.776,0 15.5,0" id="Fill-1"></path>
                <path d="M9.5,4 L6.5,4 C6.224,4 6,4.224 6,4.5 L6,13.5 C6,13.776 6.224,14 6.5,14 L9.5,14 C9.776,14 10,13.776 10,13.5 L10,4.5 C10,4.224 9.776,4 9.5,4" id="Fill-3"></path>
                <path d="M3.5,8 L0.5,8 C0.224,8 0,8.224 0,8.5 L0,13.5 C0,13.776 0.224,14 0.5,14 L3.5,14 C3.776,14 4,13.776 4,13.5 L4,8.5 C4,8.224 3.776,8 3.5,8" id="Fill-5"></path>
            </g>
        </g>
    </g>
</svg>