<?xml version="1.0" encoding="utf-8"?>
<!-- Generated by IcoMoon.io -->
<!DOCTYPE svg PUBLIC "-//W3C//DTD SVG 1.1//EN" "http://www.w3.org/Graphics/SVG/1.1/DTD/svg11.dtd">
<svg version="1.1" xmlns="http://www.w3.org/2000/svg" xmlns:xlink="http://www.w3.org/1999/xlink" width="32" height="32" viewBox="0 0 32 32">
<path fill="#000" d="M5.818 10.182h5.818c0.803 0 1.455-0.652 1.455-1.455v-1.455c0-0.803-0.652-1.455-1.455-1.455h-5.818c-0.803 0-1.455 0.652-1.455 1.455v1.455c0 0.803 0.652 1.455 1.455 1.455z"></path>
<path fill="#000" d="M16 10.182h4.364c0.803 0 1.455-0.652 1.455-1.455v-1.455c0-0.803-0.652-1.455-1.455-1.455h-4.364c-0.803 0-1.455 0.652-1.455 1.455v1.455c0 0.803 0.652 1.455 1.455 1.455z"></path>
<path fill="#000" d="M26.182 5.818h-1.455c-0.803 0-1.455 0.652-1.455 1.455v1.455c0 0.803 0.652 1.455 1.455 1.455h1.455c0.803 0 1.455-0.652 1.455-1.455v-1.455c0-0.803-0.652-1.455-1.455-1.455z"></path>
<path fill="#000" d="M16 13.091h-10.182c-0.803 0-1.455 0.652-1.455 1.455v1.455c0 0.803 0.652 1.455 1.455 1.455h10.182c0.803 0 1.455-0.652 1.455-1.455v-1.455c0-0.803-0.652-1.455-1.455-1.455z"></path>
<path fill="#000" d="M21.818 13.091h-1.455c-0.803 0-1.455 0.652-1.455 1.455v1.455c0 0.803 0.652 1.455 1.455 1.455h1.455c0.803 0 1.455-0.652 1.455-1.455v-1.455c0-0.803-0.652-1.455-1.455-1.455z"></path>
<path fill="#000" d="M10.182 20.364h-4.364c-0.803 0-1.455 0.652-1.455 1.455v1.455c0 0.803 0.652 1.455 1.455 1.455h4.364c0.803 0 1.455-0.652 1.455-1.455v-1.455c0-0.803-0.652-1.455-1.455-1.455z"></path>
<path fill="#000" d="M14.545 20.364c-0.803 0-1.455 0.652-1.455 1.455v1.455c0 0.803 0.652 1.455 1.455 1.455s1.455-0.652 1.455-1.455v-1.455c0-0.803-0.652-1.455-1.455-1.455z"></path>
</svg>
