<?xml version="1.0" encoding="utf-8"?>
<!-- Generated by IcoMoon.io -->
<!DOCTYPE svg PUBLIC "-//W3C//DTD SVG 1.1//EN" "http://www.w3.org/Graphics/SVG/1.1/DTD/svg11.dtd">
<svg version="1.1" xmlns="http://www.w3.org/2000/svg" xmlns:xlink="http://www.w3.org/1999/xlink" width="32" height="32" viewBox="0 0 32 32">
<path fill="#000" d="M26.909 5.818h-4.364c-0.401 0-0.727 0.326-0.727 0.727v18.909c0 0.401 0.326 0.727 0.727 0.727h4.364c0.401 0 0.727-0.326 0.727-0.727v-18.909c0-0.401-0.326-0.727-0.727-0.727z"></path>
<path fill="#000" d="M18.182 11.636h-4.364c-0.401 0-0.727 0.326-0.727 0.727v13.091c0 0.401 0.326 0.727 0.727 0.727h4.364c0.401 0 0.727-0.326 0.727-0.727v-13.091c0-0.401-0.326-0.727-0.727-0.727z"></path>
<path fill="#000" d="M9.455 17.455h-4.364c-0.401 0-0.727 0.326-0.727 0.727v7.273c0 0.401 0.326 0.727 0.727 0.727h4.364c0.401 0 0.727-0.326 0.727-0.727v-7.273c0-0.401-0.326-0.727-0.727-0.727z"></path>
</svg>
