<?xml version="1.0" encoding="UTF-8" standalone="no"?>
<svg width="22px" height="22px" viewBox="0 0 22 22" version="1.1" xmlns="http://www.w3.org/2000/svg" xmlns:xlink="http://www.w3.org/1999/xlink">
    <!-- Generator: Sketch 39.1 (31720) - http://www.bohemiancoding.com/sketch -->
    <title>caret_down</title>
    <desc>Created with Sketch.</desc>
    <defs>
        <polygon id="path-1" points="0 5.99998 10 5.99998 10 -2e-05 0 -2e-05"></polygon>
    </defs>
    <g id="16-x-16-solid" stroke="none" stroke-width="1">
        <g id="caret_down">
            <g id="Page-1" transform="translate(6.000000, 8.000000)">
                <mask id="mask-2">
                    <use xlink:href="#path-1"></use>
                </mask>
                <g id="Clip-2"></g>
                <path d="M4.293,5.70698 L0.293,1.70698 C-0.098,1.31598 -0.098,0.68398 0.293,0.29298 C0.684,-0.09802 1.316,-0.09802 1.707,0.29298 L5,3.58598 L8.293,0.29298 C8.684,-0.09802 9.316,-0.09802 9.707,0.29298 C9.902,0.48798 10,0.74398 10,0.99998 C10,1.25598 9.902,1.51198 9.707,1.70698 L5.707,5.70698 C5.316,6.09798 4.684,6.09798 4.293,5.70698" id="Fill-1" mask="url(#mask-2)"></path>
            </g>
        </g>
    </g>
</svg>