<?xml version="1.0" encoding="UTF-8" standalone="no"?>
<svg viewBox="0 0 22 22" version="1.1" xmlns="http://www.w3.org/2000/svg" xmlns:xlink="http://www.w3.org/1999/xlink">
    <!-- Generator: Sketch 41.1 (35376) - http://www.bohemiancoding.com/sketch -->
    <title>check-success</title>
    <desc>Created with Sketch.</desc>
    <defs></defs>
    <g id="16-x-16" stroke="none" stroke-width="1" fill-rule="evenodd">
        <g id="check-success">
            <g transform="translate(1.000000, 1.000000)">
                <g>
                    <path d="M10,2 C5.589,2 2,5.589 2,10 C2,14.411 5.589,18 10,18 C14.411,18 18,14.411 18,10 C18,5.589 14.411,2 10,2 M10,20 C4.486,20 0,15.514 0,10 C0,4.486 4.486,0 10,0 C15.514,0 20,4.486 20,10 C20,15.514 15.514,20 10,20" id="circle"></path>
                    <path d="M14.6406,6.2319 C14.2146,5.8779 13.5846,5.9369 13.2316,6.3599 L8.9326,11.5189 L6.7066,9.2929 C6.3166,8.9019 5.6836,8.9019 5.2926,9.2929 C4.9026,9.6839 4.9026,10.3159 5.2926,10.7069 L8.2926,13.7069 C8.4806,13.8959 8.7356,13.9999 8.9996,13.9999 C9.0156,13.9999 9.0306,13.9999 9.0456,13.9989 C9.3266,13.9859 9.5886,13.8569 9.7676,13.6409 L14.7686,7.6399 C15.1216,7.2159 15.0646,6.5859 14.6406,6.2319" id="check"></path>
                </g>
            </g>
        </g>
    </g>
</svg>