<?xml version="1.0" encoding="UTF-8"?>
<svg width="22px" height="22px" viewBox="0 0 22 22" version="1.1" xmlns="http://www.w3.org/2000/svg" xmlns:xlink="http://www.w3.org/1999/xlink">
    <!-- Generator: Sketch 42 (36781) - http://www.bohemiancoding.com/sketch -->
    <title>correlate</title>
    <desc>Created with Sketch.</desc>
    <defs></defs>
    <g id="16-x-16" stroke="none" stroke-width="1">
        <g id="correlate">
            <g transform="translate(0.000000, 2.000000)">
                <g transform="translate(0.000000, 1.000000)">
                    <path d="M14.9583,7.0987 L13.4603,7.0987 L13.4603,5.4747 C13.4603,3.2687 11.6663,1.4747 9.4603,1.4747 L7.2923,1.4747 C6.7403,1.4747 6.2923,1.9227 6.2923,2.4747 C6.2923,3.0267 6.7403,3.4747 7.2923,3.4747 L9.4603,3.4747 C10.5633,3.4747 11.4603,4.3717 11.4603,5.4747 L11.4603,7.0987 L7.2393,7.0987 C6.6873,7.0987 6.2393,7.5467 6.2393,8.0987 C6.2393,8.6507 6.6873,9.0987 7.2393,9.0987 L11.4603,9.0987 L11.4603,10.9247 C11.4603,12.0267 10.5633,12.9247 9.4603,12.9247 L7.2923,12.9247 C6.7403,12.9247 6.2923,13.3717 6.2923,13.9247 C6.2923,14.4767 6.7403,14.9247 7.2923,14.9247 L9.4603,14.9247 C11.6663,14.9247 13.4603,13.1307 13.4603,10.9247 L13.4603,9.0987 L14.9583,9.0987 C15.5113,9.0987 15.9583,8.6507 15.9583,8.0987 C15.9583,7.5467 15.5113,7.0987 14.9583,7.0987" id="Fill-1" fill-rule="nonzero"></path>
                    <path d="M2.4896,3.3161 C2.0216,3.3161 1.6426,2.9371 1.6426,2.4691 C1.6426,2.0011 2.0216,1.6211 2.4896,1.6211 C2.9576,1.6211 3.3366,2.0011 3.3366,2.4691 C3.3366,2.9371 2.9576,3.3161 2.4896,3.3161 M2.4896,0.0001 C1.1266,0.0001 0.0206,1.1051 0.0206,2.4691 C0.0206,3.8321 1.1266,4.9371 2.4896,4.9371 C3.8526,4.9371 4.9586,3.8321 4.9586,2.4691 C4.9586,1.1051 3.8526,0.0001 2.4896,0.0001" id="Fill-3" fill-rule="nonzero"></path>
                    <path d="M2.4896,9.0789 C2.0216,9.0789 1.6426,8.6999 1.6426,8.2319 C1.6426,7.7639 2.0216,7.3839 2.4896,7.3839 C2.9576,7.3839 3.3366,7.7639 3.3366,8.2319 C3.3366,8.6999 2.9576,9.0789 2.4896,9.0789 M2.4896,5.7629 C1.1266,5.7629 0.0206,6.8679 0.0206,8.2319 C0.0206,9.5949 1.1266,10.6999 2.4896,10.6999 C3.8526,10.6999 4.9586,9.5949 4.9586,8.2319 C4.9586,6.8679 3.8526,5.7629 2.4896,5.7629" id="Fill-5" fill-rule="nonzero"></path>
                    <path d="M2.4687,14.8416 C2.0007,14.8416 1.6217,14.4626 1.6217,13.9946 C1.6217,13.5266 2.0007,13.1466 2.4687,13.1466 C2.9367,13.1466 3.3157,13.5266 3.3157,13.9946 C3.3157,14.4626 2.9367,14.8416 2.4687,14.8416 M2.4687,11.5256 C1.1057,11.5256 -0.0003,12.6306 -0.0003,13.9946 C-0.0003,15.3576 1.1057,16.4626 2.4687,16.4626 C3.8317,16.4626 4.9377,15.3576 4.9377,13.9946 C4.9377,12.6306 3.8317,11.5256 2.4687,11.5256" id="Fill-7" fill-rule="nonzero"></path>
                    <path d="M19.4896,8.9411 C19.0216,8.9411 18.6426,8.5621 18.6426,8.0941 C18.6426,7.6261 19.0216,7.2461 19.4896,7.2461 C19.9576,7.2461 20.3366,7.6261 20.3366,8.0941 C20.3366,8.5621 19.9576,8.9411 19.4896,8.9411 M19.4896,5.6251 C18.1266,5.6251 17.0206,6.7301 17.0206,8.0941 C17.0206,9.4571 18.1266,10.5621 19.4896,10.5621 C20.8526,10.5621 21.9586,9.4571 21.9586,8.0941 C21.9586,6.7301 20.8526,5.6251 19.4896,5.6251" id="Fill-10" fill-rule="nonzero"></path>
                </g>
            </g>
        </g>
    </g>
</svg>