<?xml version="1.0" encoding="UTF-8" standalone="no"?>
<svg width="22px" height="22px" viewBox="0 0 22 22" version="1.1" xmlns="http://www.w3.org/2000/svg" xmlns:xlink="http://www.w3.org/1999/xlink">
    <!-- Generator: Sketch 39.1 (31720) - http://www.bohemiancoding.com/sketch -->
    <title>custom_events</title>
    <desc>Created with Sketch.</desc>
    <defs>
        <polygon id="path-1" points="0 16 16 16 16 0 0 0"></polygon>
    </defs>
    <g id="16-x-16-solid" stroke="none" stroke-width="1">
        <g id="custom_events">
            <g id="Page-1" transform="translate(3.000000, 3.000000)">
                <path d="M3,4 C2.449,4 2,3.551 2,3 C2,2.449 2.449,2 3,2 C3.551,2 4,2.449 4,3 C4,3.551 3.551,4 3,4 L3,4 Z M3,0 C1.343,0 0,1.343 0,3 C0,4.657 1.343,6 3,6 C4.657,6 6,4.657 6,3 C6,1.343 4.657,0 3,0 L3,0 Z" id="Fill-1"></path>
                <path d="M3,14 C2.449,14 2,13.551 2,13 C2,12.449 2.449,12 3,12 C3.551,12 4,12.449 4,13 C4,13.551 3.551,14 3,14 M3,10 C1.343,10 0,11.343 0,13 C0,14.657 1.343,16 3,16 C4.657,16 6,14.657 6,13 C6,11.343 4.657,10 3,10" id="Fill-3"></path>
                <path d="M13,9 C12.449,9 12,8.551 12,8 C12,7.449 12.449,7 13,7 C13.551,7 14,7.449 14,8 C14,8.551 13.551,9 13,9 M13,5 C11.343,5 10,6.343 10,8 C10,9.657 11.343,11 13,11 C14.657,11 16,9.657 16,8 C16,6.343 14.657,5 13,5" id="Fill-5"></path>
                <mask id="mask-2">
                    <use xlink:href="#path-1"></use>
                </mask>
                <g id="Clip-8"></g>
                <polygon id="Fill-7" mask="url(#mask-2)" points="2 9 4 9 4 7 2 7"></polygon>
                <polygon id="Fill-9" mask="url(#mask-2)" points="7 6 9 6 9 4 7 4"></polygon>
                <polygon id="Fill-10" mask="url(#mask-2)" points="7 13 9 13 9 11 7 11"></polygon>
            </g>
        </g>
    </g>
</svg>