<?xml version="1.0" encoding="utf-8"?>
<!-- Generated by IcoMoon.io -->
<!DOCTYPE svg PUBLIC "-//W3C//DTD SVG 1.1//EN" "http://www.w3.org/Graphics/SVG/1.1/DTD/svg11.dtd">
<svg version="1.1" xmlns="http://www.w3.org/2000/svg" xmlns:xlink="http://www.w3.org/1999/xlink" width="22" height="22" viewBox="0 0 22 22">
<path fill="#000" d="M6 7c-0.551 0-1-0.449-1-1s0.449-1 1-1c0.551 0 1 0.449 1 1s-0.449 1-1 1v0zM6 3c-1.657 0-3 1.343-3 3s1.343 3 3 3c1.657 0 3-1.343 3-3s-1.343-3-3-3v0z"></path>
<path fill="#000" d="M6 17c-0.551 0-1-0.449-1-1s0.449-1 1-1c0.551 0 1 0.449 1 1s-0.449 1-1 1zM6 13c-1.657 0-3 1.343-3 3s1.343 3 3 3c1.657 0 3-1.343 3-3s-1.343-3-3-3z"></path>
<path fill="#000" d="M16 12c-0.551 0-1-0.449-1-1s0.449-1 1-1c0.551 0 1 0.449 1 1s-0.449 1-1 1zM16 8c-1.657 0-3 1.343-3 3s1.343 3 3 3c1.657 0 3-1.343 3-3s-1.343-3-3-3z"></path>
<path fill="#000" d="M5 12h2v-2h-2z"></path>
<path fill="#000" d="M10 9h2v-2h-2z"></path>
<path fill="#000" d="M10 16h2v-2h-2z"></path>
</svg>
