<?xml version="1.0" encoding="utf-8"?>
<!-- Generated by IcoMoon.io -->
<!DOCTYPE svg PUBLIC "-//W3C//DTD SVG 1.1//EN" "http://www.w3.org/Graphics/SVG/1.1/DTD/svg11.dtd">
<svg version="1.1" xmlns="http://www.w3.org/2000/svg" xmlns:xlink="http://www.w3.org/1999/xlink" width="32" height="32" viewBox="0 0 32 32">
<path fill="#000" d="M8.727 10.182c-0.801 0-1.455-0.653-1.455-1.455s0.653-1.455 1.455-1.455c0.801 0 1.455 0.653 1.455 1.455s-0.653 1.455-1.455 1.455v0zM8.727 4.364c-2.41 0-4.364 1.953-4.364 4.364s1.953 4.364 4.364 4.364c2.41 0 4.364-1.953 4.364-4.364s-1.953-4.364-4.364-4.364v0z"></path>
<path fill="#000" d="M8.727 24.727c-0.801 0-1.455-0.653-1.455-1.455s0.653-1.455 1.455-1.455c0.801 0 1.455 0.653 1.455 1.455s-0.653 1.455-1.455 1.455zM8.727 18.909c-2.41 0-4.364 1.953-4.364 4.364s1.953 4.364 4.364 4.364c2.41 0 4.364-1.953 4.364-4.364s-1.953-4.364-4.364-4.364z"></path>
<path fill="#000" d="M23.273 17.455c-0.801 0-1.455-0.653-1.455-1.455s0.653-1.455 1.455-1.455c0.801 0 1.455 0.653 1.455 1.455s-0.653 1.455-1.455 1.455zM23.273 11.636c-2.41 0-4.364 1.953-4.364 4.364s1.953 4.364 4.364 4.364c2.41 0 4.364-1.953 4.364-4.364s-1.953-4.364-4.364-4.364z"></path>
<path fill="#000" d="M7.273 17.455h2.909v-2.909h-2.909z"></path>
<path fill="#000" d="M14.545 13.091h2.909v-2.909h-2.909z"></path>
<path fill="#000" d="M14.545 23.273h2.909v-2.909h-2.909z"></path>
</svg>
