<?xml version="1.0" encoding="utf-8"?>
<!-- Generated by IcoMoon.io -->
<!DOCTYPE svg PUBLIC "-//W3C//DTD SVG 1.1//EN" "http://www.w3.org/Graphics/SVG/1.1/DTD/svg11.dtd">
<svg version="1.1" xmlns="http://www.w3.org/2000/svg" xmlns:xlink="http://www.w3.org/1999/xlink" width="22" height="22" viewBox="0 0 22 22">
<path fill="#000" d="M15.023 13v2h-2.004v-8h2.004v6zM10.013 15v-6h2.004v6h-2.004zM7.008 15v-8h2.004v8h-2.004zM17.027 15h2.004v-10c0-1.103-0.899-2-2.004-2h-12.024c-1.105 0-2.004 0.897-2.004 2v12c0 1.103 0.899 2 2.004 2h10.020v-2h2.004v-2z"></path>
<path fill="#000" d="M21.499 18.037h-1.54v-1.537c0-0.276-0.225-0.5-0.501-0.5h-0.928c-0.276 0-0.501 0.224-0.501 0.5v1.537h-1.54c-0.277 0-0.501 0.224-0.501 0.5v0.925c0 0.277 0.224 0.5 0.501 0.5h1.54v1.538c0 0.276 0.225 0.5 0.501 0.5h0.928c0.276 0 0.501-0.224 0.501-0.5v-1.538h1.54c0.277 0 0.501-0.223 0.501-0.5v-0.925c0-0.276-0.224-0.5-0.501-0.5z"></path>
</svg>
