<?xml version="1.0" encoding="UTF-8" standalone="no"?>
<svg width="22px" height="22px" viewBox="0 0 22 22" version="1.1" xmlns="http://www.w3.org/2000/svg" xmlns:xlink="http://www.w3.org/1999/xlink">
    <!-- Generator: Sketch 39.1 (31720) - http://www.bohemiancoding.com/sketch -->
    <title>dashboard_add_to</title>
    <desc>Created with Sketch.</desc>
    <defs>
        <polygon id="path-1" points="0 0.0002 0 16.0002 16.0316 16.0002 16.0316 0.0002 0 0.0002"></polygon>
        <polygon id="path-3" points="0.988 6 7 6 7 3.00015 7 0.0003 0.988 0.0003"></polygon>
    </defs>
    <g id="16-x-16-solid" stroke="none" stroke-width="1">
        <g id="dashboard_add_to">
            <g id="Page-1" transform="translate(3.000000, 3.000000)">
                <g id="Group-3" transform="translate(0.000000, -0.000200)">
                    <mask id="mask-2">
                        <use xlink:href="#path-1"></use>
                    </mask>
                    <g id="Clip-2"></g>
                    <path d="M12.0236,10.0002 L12.0236,12.0002 L10.0196,12.0002 L10.0196,4.0002 L12.0236,4.0002 L12.0236,10.0002 Z M7.0136,12.0002 L9.0176,12.0002 L9.0176,6.0002 L7.0136,6.0002 L7.0136,12.0002 Z M4.0076,12.0002 L6.0116,12.0002 L6.0116,4.0002 L4.0076,4.0002 L4.0076,12.0002 Z M14.0276,12.0002 L16.0316,12.0002 L16.0316,2.0002 C16.0316,0.8972 15.1326,0.0002 14.0276,0.0002 L2.0036,0.0002 C0.8986,0.0002 -0.0004,0.8972 -0.0004,2.0002 L-0.0004,14.0002 C-0.0004,15.1032 0.8986,16.0002 2.0036,16.0002 L12.0236,16.0002 L12.0236,14.0002 L14.0276,14.0002 L14.0276,12.0002 Z" id="Fill-1" mask="url(#mask-2)"></path>
                </g>
                <g id="Group-6" transform="translate(12.000000, 12.999800)">
                    <mask id="mask-4">
                        <use xlink:href="#path-3"></use>
                    </mask>
                    <g id="Clip-5"></g>
                    <path d="M6.499,2.0373 L4.959,2.0373 L4.959,0.5003 C4.959,0.2243 4.734,0.0003 4.458,0.0003 L3.53,0.0003 C3.254,0.0003 3.029,0.2243 3.029,0.5003 L3.029,2.0373 L1.489,2.0373 C1.212,2.0373 0.988,2.2613 0.988,2.5373 L0.988,3.4623 C0.988,3.7393 1.212,3.9623 1.489,3.9623 L3.029,3.9623 L3.029,5.5003 C3.029,5.7763 3.254,6.0003 3.53,6.0003 L4.458,6.0003 C4.734,6.0003 4.959,5.7763 4.959,5.5003 L4.959,3.9623 L6.499,3.9623 C6.776,3.9623 7,3.7393 7,3.4623 L7,2.5373 C7,2.2613 6.776,2.0373 6.499,2.0373" id="Fill-4" mask="url(#mask-4)"></path>
                </g>
            </g>
        </g>
    </g>
</svg>