<?xml version="1.0" encoding="UTF-8" standalone="no"?>
<svg width="22px" height="22px" viewBox="0 0 22 22" version="1.1" xmlns="http://www.w3.org/2000/svg" xmlns:xlink="http://www.w3.org/1999/xlink">
    <!-- Generator: Sketch 39.1 (31720) - http://www.bohemiancoding.com/sketch -->
    <title>dashboard</title>
    <desc>Created with Sketch.</desc>
    <defs></defs>
    <g id="16-x-16-solid" stroke="none" stroke-width="1" fill="none" fill-rule="evenodd">
        <g id="dashboard" fill="#000000">
            <g id="Page-1" transform="translate(3.000000, 3.000000)">
                <path d="M12,7 C11.448,7 11,6.552 11,6 C11,5.448 11.448,5 12,5 C12.552,5 13,5.448 13,6 C13,6.552 12.552,7 12,7 M8,13 C6.343,13 5,11.657 5,10 C5,8.696 5.837,7.597 7,7.184 L7,6 C7,5.448 7.448,5 8,5 C8.552,5 9,5.448 9,6 L9,7.184 C10.163,7.597 11,8.696 11,10 C11,11.657 9.657,13 8,13 M4,7 C3.448,7 3,6.552 3,6 C3,5.448 3.448,5 4,5 C4.552,5 5,5.448 5,6 C5,6.552 4.552,7 4,7 M8,2 C8.552,2 9,2.448 9,3 C9,3.552 8.552,4 8,4 C7.448,4 7,3.552 7,3 C7,2.448 7.448,2 8,2 M8,0 C3.582,0 0,3.582 0,8 C0,12.418 3.582,16 8,16 C12.418,16 16,12.418 16,8 C16,3.582 12.418,0 8,0" id="Fill-1"></path>
                <path d="M8,9 C7.448,9 7,9.448 7,10 C7,10.552 7.448,11 8,11 C8.552,11 9,10.552 9,10 C9,9.448 8.552,9 8,9" id="Fill-3"></path>
            </g>
        </g>
    </g>
</svg>