<?xml version="1.0" encoding="UTF-8" standalone="no"?>
<svg width="22px" height="22px" viewBox="0 0 22 22" version="1.1" xmlns="http://www.w3.org/2000/svg" xmlns:xlink="http://www.w3.org/1999/xlink">
    <!-- Generator: Sketch 44.1 (41455) - http://www.bohemiancoding.com/sketch -->
    <title>Dashboard</title>
    <desc>Created with Sketch.</desc>
    <defs>
        <linearGradient xmlns="http://www.w3.org/2000/svg" id="blue-gradient" x1="26.97%" x2="74.831%" y1="-36.06%" y2="116.846%">
            <stop offset="0%" stop-color="#083BC1"></stop>
            <stop offset="40.39%" stop-color="#0747C4"></stop>
            <stop offset="100%" stop-color="#07B2D7"></stop>
        </linearGradient>
    </defs>
    <g id="Navigation-icons" stroke="none" stroke-width="1" fill="none" fill-rule="evenodd">
        <g id="Dashboard" fill="#6D859E">
            <path d="M16,15 C16,15.552 15.551,16 15,16 C14.447,16 14,15.552 14,15 L14,9 C14,8.448 14.447,8 15,8 C15.551,8 16,8.448 16,9 L16,15 Z M11.999,15 C11.999,15.552 11.552,16 11,16 C10.447,16 10,15.552 10,15 L10,11 C10,10.448 10.447,9.999 11,9.999 C11.552,9.999 11.999,10.448 11.999,11 L11.999,15 Z M8,15 C8,15.552 7.551,16 7,16 C6.447,16 6,15.552 6,15 L6,7 C6,6.448 6.447,6 7,6 C7.551,6 8,6.448 8,7 L8,15 Z M18.999,2 L2.999,2 C1.895,2 1,2.895 1,3.999 L1,18 C1,19.104 1.895,20 2.999,20 L18.999,20 C20.105,20 21,19.104 21,18 L21,3.999 C21,2.895 20.105,2 18.999,2 L18.999,2 Z" id="dash"></path>
        </g>
    </g>
</svg>
