<?xml version="1.0" encoding="utf-8"?>
<!-- Generated by IcoMoon.io -->
<!DOCTYPE svg PUBLIC "-//W3C//DTD SVG 1.1//EN" "http://www.w3.org/Graphics/SVG/1.1/DTD/svg11.dtd">
<svg version="1.1" xmlns="http://www.w3.org/2000/svg" xmlns:xlink="http://www.w3.org/1999/xlink" width="32" height="32" viewBox="0 0 32 32">
<path fill="#000" d="M21.852 18.909v2.909h-2.915v-11.636h2.915v8.727zM14.565 21.818v-8.727h2.915v8.727h-2.915zM10.193 21.818v-11.636h2.915v11.636h-2.915zM24.767 21.818h2.915v-14.545c0-1.604-1.308-2.909-2.915-2.909h-17.489c-1.607 0-2.915 1.305-2.915 2.909v17.455c0 1.604 1.308 2.909 2.915 2.909h14.575v-2.909h2.915v-2.909z"></path>
<path fill="#000" d="M31.271 26.236h-2.24v-2.236c0-0.401-0.327-0.727-0.729-0.727h-1.35c-0.401 0-0.729 0.326-0.729 0.727v2.236h-2.24c-0.403 0-0.729 0.326-0.729 0.727v1.345c0 0.403 0.326 0.727 0.729 0.727h2.24v2.237c0 0.401 0.327 0.727 0.729 0.727h1.35c0.401 0 0.729-0.326 0.729-0.727v-2.237h2.24c0.403 0 0.729-0.324 0.729-0.727v-1.345c0-0.401-0.326-0.727-0.729-0.727z"></path>
</svg>
