<?xml version="1.0" encoding="UTF-8" standalone="no"?>
<svg width="22px" height="22px" viewBox="0 0 22 22" version="1.1" xmlns="http://www.w3.org/2000/svg" xmlns:xlink="http://www.w3.org/1999/xlink">
    <!-- Generator: Sketch 39.1 (31720) - http://www.bohemiancoding.com/sketch -->
    <title>dashboard_confirm</title>
    <desc>Created with Sketch.</desc>
    <defs></defs>
    <g id="16-x-16-solid" stroke="none" stroke-width="1" fill="none" fill-rule="evenodd">
        <g id="dashboard_confirm" fill="#000000">
            <g id="Page-1" transform="translate(3.000000, 3.000000)">
                <path d="M10,11.9997 L12,11.9997 L12,3.9997 L10,3.9997 L10,11.9997 Z M7,11.9997 L9,11.9997 L9,5.9997 L7,5.9997 L7,11.9997 Z M4,11.9997 L6,11.9997 L6,3.9997 L4,3.9997 L4,11.9997 Z M14.178,14.6607 L14.516,14.9997 L14.585,15.0687 L14.654,14.9997 L15,14.6547 L16,13.6547 L16,1.9997 C16,0.8967 15.103,-0.0003 14,-0.0003 L2,-0.0003 C0.897,-0.0003 0,0.8967 0,1.9997 L0,13.9997 C0,15.1027 0.897,15.9997 2,15.9997 L11.019,15.9997 C11.086,15.7447 11.214,15.5087 11.405,15.3177 L11.722,14.9997 L12.058,14.6627 C12.645,14.0817 13.595,14.0797 14.178,14.6607 L14.178,14.6607 Z" id="Fill-1"></path>
                <path d="M18.8536,14.2308 L18.1996,13.5768 C18.0036,13.3808 17.6876,13.3808 17.4926,13.5768 L15.9996,15.0688 L15.2926,15.7758 L15.0686,15.9998 L14.5856,16.4838 L14.1016,15.9998 L13.8776,15.7758 L13.4726,15.3708 C13.2776,15.1758 12.9606,15.1758 12.7656,15.3708 L12.1356,15.9998 L12.1106,16.0248 C11.9156,16.2198 11.9156,16.5368 12.1106,16.7318 L12.5886,17.2098 L13.5746,18.1958 C13.5756,18.1968 13.5756,18.1978 13.5766,18.1988 L14.2306,18.8538 C14.3286,18.9508 14.4566,18.9998 14.5856,18.9998 C14.7136,18.9998 14.8416,18.9508 14.9396,18.8538 L15.5936,18.1988 C15.5946,18.1978 15.5956,18.1968 15.5966,18.1948 L16.5826,17.2098 L18.8536,14.9378 C19.0486,14.7428 19.0486,14.4258 18.8536,14.2308" id="Fill-3"></path>
            </g>
        </g>
    </g>
</svg>