<?xml version="1.0" encoding="utf-8"?>
<!-- Generated by IcoMoon.io -->
<!DOCTYPE svg PUBLIC "-//W3C//DTD SVG 1.1//EN" "http://www.w3.org/Graphics/SVG/1.1/DTD/svg11.dtd">
<svg version="1.1" xmlns="http://www.w3.org/2000/svg" xmlns:xlink="http://www.w3.org/1999/xlink" width="32" height="32" viewBox="0 0 32 32">
<path fill="#000" d="M21.818 14.545c-0.803 0-1.455-0.652-1.455-1.455s0.652-1.455 1.455-1.455c0.803 0 1.455 0.652 1.455 1.455s-0.652 1.455-1.455 1.455zM16 23.273c-2.41 0-4.364-1.953-4.364-4.364 0-1.897 1.217-3.495 2.909-4.096v-1.722c0-0.803 0.652-1.455 1.455-1.455s1.455 0.652 1.455 1.455v1.722c1.692 0.601 2.909 2.199 2.909 4.096 0 2.41-1.953 4.364-4.364 4.364zM10.182 14.545c-0.803 0-1.455-0.652-1.455-1.455s0.652-1.455 1.455-1.455c0.803 0 1.455 0.652 1.455 1.455s-0.652 1.455-1.455 1.455zM16 7.273c0.803 0 1.455 0.652 1.455 1.455s-0.652 1.455-1.455 1.455c-0.803 0-1.455-0.652-1.455-1.455s0.652-1.455 1.455-1.455zM16 4.364c-6.426 0-11.636 5.21-11.636 11.636s5.21 11.636 11.636 11.636c6.426 0 11.636-5.21 11.636-11.636s-5.21-11.636-11.636-11.636z"></path>
<path fill="#000" d="M16 17.455c-0.803 0-1.455 0.652-1.455 1.455s0.652 1.455 1.455 1.455c0.803 0 1.455-0.652 1.455-1.455s-0.652-1.455-1.455-1.455z"></path>
</svg>
