<svg 
 xmlns="http://www.w3.org/2000/svg"
 xmlns:xlink="http://www.w3.org/1999/xlink"
 width="22px" height="22px">
<path fill-rule="evenodd"  fill-opacity="0" fill="rgb(255, 255, 255)"
 d="M-0.000,-0.000 L22.000,-0.000 L22.000,22.000 L-0.000,22.000 L-0.000,-0.000 Z"/>
<path fill-rule="evenodd"  fill="rgb(109, 132, 158)"
 d="M16.998,3.000 L4.996,3.000 C3.893,3.000 2.995,3.897 2.995,5.000 L2.995,17.000 C2.995,18.103 3.893,19.000 4.996,19.000 L14.998,19.000 L14.998,19.000 L16.967,19.000 C18.070,19.000 18.967,18.102 18.967,17.000 L18.999,15.000 L18.999,5.000 C18.999,3.897 18.101,3.000 16.998,3.000 ZM12.998,7.000 L14.998,7.000 L14.998,13.000 L14.998,15.000 L12.998,15.000 L12.998,7.000 ZM9.997,9.000 L11.997,9.000 L11.997,15.000 L9.997,15.000 L9.997,9.000 ZM6.996,7.000 L8.997,7.000 L8.997,15.000 L6.996,15.000 L6.996,7.000 Z"/>
</svg>
