<?xml version="1.0" encoding="utf-8"?>
<!-- Generated by IcoMoon.io -->
<!DOCTYPE svg PUBLIC "-//W3C//DTD SVG 1.1//EN" "http://www.w3.org/Graphics/SVG/1.1/DTD/svg11.dtd">
<svg version="1.1" xmlns="http://www.w3.org/2000/svg" xmlns:xlink="http://www.w3.org/1999/xlink" width="32" height="32" viewBox="0 0 32 32">
<path fill="#000" d="M18.909 21.818v-11.636h2.909v11.636h-2.909zM14.545 21.818v-8.727h2.909v8.727h-2.909zM10.182 21.818v-11.636h2.909v11.636h-2.909zM24.986 25.688l0.592 0.593 0.1-0.1 0.503-0.502 1.455-1.455v-16.953c0-1.604-1.305-2.909-2.909-2.909h-17.455c-1.604 0-2.909 1.305-2.909 2.909v17.455c0 1.604 1.305 2.909 2.909 2.909h13.119c0.097-0.371 0.284-0.714 0.561-0.992l0.95-0.953c0.854-0.845 2.236-0.848 3.084-0.003v0z"></path>
<path fill="#000" d="M31.787 25.063l-0.951-0.951c-0.285-0.285-0.745-0.285-1.028 0l-4.228 4.228-1.619-1.619c-0.284-0.284-0.745-0.284-1.028 0l-0.953 0.951c-0.284 0.284-0.284 0.745 0 1.028l2.129 2.129c0.001 0.001 0.001 0.003 0.003 0.004l0.951 0.953c0.143 0.141 0.329 0.212 0.516 0.212s0.372-0.071 0.515-0.212l0.951-0.953c0.001-0.001 0.003-0.003 0.004-0.006l4.737-4.738c0.284-0.284 0.284-0.745 0-1.028z"></path>
</svg>
