<?xml version="1.0" encoding="utf-8"?>
<!-- Generated by IcoMoon.io -->
<!DOCTYPE svg PUBLIC "-//W3C//DTD SVG 1.1//EN" "http://www.w3.org/Graphics/SVG/1.1/DTD/svg11.dtd">
<svg version="1.1" xmlns="http://www.w3.org/2000/svg" xmlns:xlink="http://www.w3.org/1999/xlink" width="22" height="22" viewBox="0 0 22 22">
<path fill="#000" d="M13 15v-8h2v8h-2zM10 15v-6h2v6h-2zM7 15v-8h2v8h-2zM17.178 17.66l0.407 0.408 0.069-0.069 0.346-0.345 1-1v-11.655c0-1.103-0.897-2-2-2h-12c-1.103 0-2 0.897-2 2v12c0 1.103 0.897 2 2 2h9.019c0.067-0.255 0.195-0.491 0.386-0.682l0.653-0.655c0.587-0.581 1.537-0.583 2.12-0.002v0z"></path>
<path fill="#000" d="M21.854 17.231l-0.654-0.654c-0.196-0.196-0.512-0.196-0.707 0l-2.907 2.907-1.113-1.113c-0.195-0.195-0.512-0.195-0.707 0l-0.655 0.654c-0.195 0.195-0.195 0.512 0 0.707l1.464 1.464c0.001 0.001 0.001 0.002 0.002 0.003l0.654 0.655c0.098 0.097 0.226 0.146 0.355 0.146s0.256-0.049 0.354-0.146l0.654-0.655c0.001-0.001 0.002-0.002 0.003-0.004l3.257-3.257c0.195-0.195 0.195-0.512 0-0.707z"></path>
</svg>
