<?xml version="1.0" encoding="UTF-8"?>
<!-- Generator: Sketch 44.1 (41455) - http://www.bohemiancoding.com/sketch -->
<!DOCTYPE svg PUBLIC "-//W3C//DTD SVG 1.1//EN" "http://www.w3.org/Graphics/SVG/1.1/DTD/svg11.dtd">
<svg width="22px" height="22px" viewBox="0 0 22 22" version="1.1" xmlns="http://www.w3.org/2000/svg" xmlns:xlink="http://www.w3.org/1999/xlink">
    <g id="Page-1" stroke="none" stroke-width="1" fill="none" fill-rule="evenodd">
        <g id="dataset" fill-rule="nonzero" fill="#000000">
            <path d="M18.5,14.0458333 L18.5,16.0941667 C18.5,17.6983333 15.00875,19 11,19 C6.992,19 3.5,17.6983333 3.5,16.0941667 L3.5,14.0458333 C5.3135,15.4941667 8.75375,15.9258333 11,15.9258333 C13.2545,15.9258333 16.691,15.49 18.5,14.0458333 L18.5,14.0458333 Z M11,4 C6.992,4 3.5,5.23833333 3.5,6.76666667 C3.5,8.295 6.992,9.53333333 11,9.53333333 C15.00875,9.53333333 18.5,8.295 18.5,6.76666667 C18.5,5.23833333 15.00875,4 11,4 Z M11,11.2 C8.7455,11.2 5.309,10.7641667 3.5,9.32 L3.5,11.3533333 C3.5,12.9583333 6.992,14.2591667 11,14.2591667 C15.00875,14.2591667 18.5,12.9575 18.5,11.3533333 L18.5,9.32 C16.6865,10.7683333 13.24625,11.2 11,11.2 Z" id="Shape"></path>
        </g>
    </g>
</svg>
