<?xml version="1.0" encoding="UTF-8" standalone="no"?>
<svg width="22px" height="22px" viewBox="0 0 22 22" version="1.1" xmlns="http://www.w3.org/2000/svg" xmlns:xlink="http://www.w3.org/1999/xlink">
    <!-- Generator: Sketch 39.1 (31720) - http://www.bohemiancoding.com/sketch -->
    <title>edit</title>
    <desc>Created with Sketch.</desc>
    <defs>
        <polygon id="path-1" points="4.569 4.3556 4.569 0.431 0.6444 0.431 0.6444 4.3556 4.569 4.3556"></polygon>
    </defs>
    <g id="16-x-16-solid" stroke="none" stroke-width="1" fill="none" fill-rule="evenodd">
        <g id="edit">
            <g id="Page-1" transform="translate(3.000000, 2.000000)">
                <polygon id="Fill-1" fill="#000000" points="2.5538 11.8943 4.6748 14.0153 13.0588 5.6313 10.9378 3.5103"></polygon>
                <g id="Group-7" transform="translate(0.000000, 0.569400)">
                    <g id="Group-4" transform="translate(11.000000, 0.000000)">
                        <mask id="mask-2" fill="white">
                            <use xlink:href="#path-1"></use>
                        </mask>
                        <g id="Clip-3"></g>
                        <path d="M4.2764,1.4306 L3.5694,0.7236 C3.1784,0.3326 2.5454,0.3326 2.1554,0.7236 L0.6444,2.2336 L2.7664,4.3556 L4.2764,2.8446 C4.6674,2.4546 4.6674,1.8216 4.2764,1.4306" id="Fill-2" fill="#000000" mask="url(#mask-2)"></path>
                    </g>
                    <path d="M0.0133,15.6705 C-0.0517,15.8655 0.1343,16.0515 0.3293,15.9865 L3.9683,14.1535 L1.8463,12.0315 L0.0133,15.6705 Z" id="Fill-5" fill="#000000"></path>
                </g>
            </g>
        </g>
    </g>
</svg>