<?xml version="1.0" encoding="UTF-8" standalone="no"?>
<svg width="22px" height="22px" viewBox="0 0 22 22" version="1.1" xmlns="http://www.w3.org/2000/svg" xmlns:xlink="http://www.w3.org/1999/xlink">
    <!-- Generator: Sketch 39.1 (31720) - http://www.bohemiancoding.com/sketch -->
    <title>edit_2</title>
    <desc>Created with Sketch.</desc>
    <defs>
        <polygon id="path-1" points="4 3.121 4 0 0.8791 0 0.8791 3.121 4 3.121"></polygon>
    </defs>
    <g id="16-x-16-solid" stroke="none" stroke-width="1">
        <g id="edit_2">
            <g id="Page-1" transform="translate(4.000000, 3.000000)">
                <polygon id="Fill-1" points="0 0.9996 0 14.9996 14 14.9996 14 6.9996 12 7.9996 12 13.0006 2 13.0006 2 3.0006 7 3.0006 8 0.9996"></polygon>
                <polygon id="Fill-2" points="13.2929 3.8284 11.1719 1.7074 5.5149 7.3644 7.6359 9.4854"></polygon>
                <g id="Group-8" transform="translate(3.000000, 0.000000)">
                    <g id="Group-5" transform="translate(8.000000, 0.000000)">
                        <mask id="mask-2">
                            <use xlink:href="#path-1"></use>
                        </mask>
                        <g id="Clip-4"></g>
                        <path d="M3.7071,1 L3.0001,0.293 C2.6091,-0.098 1.9761,-0.098 1.5861,0.293 L0.8791,1 L3.0001,3.121 L3.7071,2.414 C4.0981,2.024 4.0981,1.391 3.7071,1" id="Fill-3" mask="url(#mask-2)"></path>
                    </g>
                    <polygon id="Fill-6" points="0.7469 11.2531 3.9289 10.1921 1.8079 8.0711"></polygon>
                </g>
            </g>
        </g>
    </g>
</svg>