<?xml version="1.0" encoding="UTF-8" standalone="no"?>
<svg width="22px" height="22px" viewBox="0 0 22 22" version="1.1" xmlns="http://www.w3.org/2000/svg" xmlns:xlink="http://www.w3.org/1999/xlink">
    <!-- Generator: Sketch 39.1 (31720) - http://www.bohemiancoding.com/sketch -->
    <title>event</title>
    <desc>Created with Sketch.</desc>
    <defs></defs>
    <g id="16-x-16-solid" stroke="none" stroke-width="1">
        <g id="event">
            <path d="M15.75,14.5 C15.75,14.086 16.086,13.75 16.5,13.75 C16.732,13.75 16.931,13.861 17.068,14.026 C17.177,14.156 17.25,14.317 17.25,14.5 C17.25,14.914 16.914,15.25 16.5,15.25 C16.268,15.25 16.069,15.139 15.932,14.974 C15.823,14.844 15.75,14.683 15.75,14.5 M12.25,8.5 C12.25,8.683 12.177,8.844 12.068,8.974 C11.931,9.139 11.732,9.25 11.5,9.25 C11.268,9.25 11.069,9.139 10.932,8.974 C10.823,8.844 10.75,8.683 10.75,8.5 C10.75,8.317 10.823,8.156 10.932,8.026 C11.069,7.861 11.268,7.75 11.5,7.75 C11.732,7.75 11.931,7.861 12.068,8.026 C12.177,8.156 12.25,8.317 12.25,8.5 M5.75,14.5 C5.75,14.317 5.823,14.156 5.932,14.026 C6.069,13.861 6.268,13.75 6.5,13.75 C6.914,13.75 7.25,14.086 7.25,14.5 C7.25,14.683 7.177,14.844 7.068,14.974 C6.931,15.139 6.732,15.25 6.5,15.25 C6.086,15.25 5.75,14.914 5.75,14.5 M16.5,12 C16.259,12 16.03,12.045 15.81,12.109 L13.728,9.611 C13.896,9.275 14,8.901 14,8.5 C14,7.121 12.878,6 11.5,6 C10.122,6 9,7.121 9,8.5 C9,8.901 9.104,9.275 9.272,9.611 L7.191,12.109 C6.97,12.045 6.741,12 6.5,12 C5.122,12 4,13.121 4,14.5 C4,15.878 5.122,17 6.5,17 C7.878,17 9,15.878 9,14.5 C9,14.099 8.896,13.725 8.728,13.389 L10.809,10.891 C11.03,10.955 11.259,11 11.5,11 C11.741,11 11.97,10.955 12.191,10.891 L14.272,13.389 C14.104,13.725 14,14.099 14,14.5 C14,15.878 15.122,17 16.5,17 C17.878,17 19,15.878 19,14.5 C19,13.121 17.878,12 16.5,12" id="Page-1"></path>
        </g>
    </g>
</svg>