<?xml version="1.0" encoding="utf-8"?>
<!-- Generated by IcoMoon.io -->
<!DOCTYPE svg PUBLIC "-//W3C//DTD SVG 1.1//EN" "http://www.w3.org/Graphics/SVG/1.1/DTD/svg11.dtd">
<svg version="1.1" xmlns="http://www.w3.org/2000/svg" xmlns:xlink="http://www.w3.org/1999/xlink" width="32" height="32" viewBox="0 0 32 32">
<path fill="#000" d="M22.909 21.091c0-0.602 0.489-1.091 1.091-1.091 0.337 0 0.627 0.161 0.826 0.401 0.159 0.189 0.265 0.423 0.265 0.689 0 0.602-0.489 1.091-1.091 1.091-0.337 0-0.627-0.161-0.826-0.401-0.159-0.189-0.265-0.423-0.265-0.689zM17.818 12.364c0 0.266-0.106 0.5-0.265 0.689-0.199 0.24-0.489 0.401-0.826 0.401s-0.627-0.161-0.826-0.401c-0.159-0.189-0.265-0.423-0.265-0.689s0.106-0.5 0.265-0.689c0.199-0.24 0.489-0.401 0.826-0.401s0.627 0.161 0.826 0.401c0.159 0.189 0.265 0.423 0.265 0.689zM8.364 21.091c0-0.266 0.106-0.5 0.265-0.689 0.199-0.24 0.489-0.401 0.826-0.401 0.602 0 1.091 0.489 1.091 1.091 0 0.266-0.106 0.5-0.265 0.689-0.199 0.24-0.489 0.401-0.826 0.401-0.602 0-1.091-0.489-1.091-1.091zM24 17.455c-0.351 0-0.684 0.065-1.004 0.159l-3.028-3.633c0.244-0.489 0.396-1.033 0.396-1.616 0-2.006-1.632-3.636-3.636-3.636s-3.636 1.631-3.636 3.636c0 0.583 0.151 1.127 0.396 1.616l-3.027 3.633c-0.321-0.093-0.655-0.159-1.005-0.159-2.004 0-3.636 1.631-3.636 3.636 0 2.004 1.632 3.636 3.636 3.636s3.636-1.632 3.636-3.636c0-0.583-0.151-1.127-0.396-1.616l3.027-3.633c0.321 0.093 0.655 0.159 1.005 0.159s0.684-0.065 1.005-0.159l3.027 3.633c-0.244 0.489-0.396 1.033-0.396 1.616 0 2.004 1.632 3.636 3.636 3.636s3.636-1.632 3.636-3.636c0-2.006-1.632-3.636-3.636-3.636z"></path>
</svg>
