<?xml version="1.0" encoding="utf-8"?>
<!-- Generated by IcoMoon.io -->
<!DOCTYPE svg PUBLIC "-//W3C//DTD SVG 1.1//EN" "http://www.w3.org/Graphics/SVG/1.1/DTD/svg11.dtd">
<svg version="1.1" xmlns="http://www.w3.org/2000/svg" xmlns:xlink="http://www.w3.org/1999/xlink" width="22" height="22" viewBox="0 0 22 22">
<path fill="#000" d="M6 17v-12h6v3c0 0.552 0.447 1 1 1h3v8h-10zM17.988 7.939c-0.006-0.090-0.023-0.175-0.052-0.26-0.011-0.032-0.019-0.062-0.033-0.093-0.049-0.106-0.11-0.207-0.196-0.293l-4-4c-0.086-0.086-0.186-0.147-0.292-0.196-0.032-0.014-0.063-0.022-0.096-0.034-0.082-0.027-0.166-0.044-0.253-0.050-0.023-0.001-0.043-0.013-0.066-0.013h-8c-0.553 0-1 0.448-1 1v14c0 0.552 0.447 1 1 1h12c0.553 0 1-0.448 1-1v-10c0-0.021-0.011-0.040-0.012-0.061v0z"></path>
<path fill="#000" d="M12.75 12h-1.75v-2.5c0-0.276-0.223-0.5-0.5-0.5h-1c-0.276 0-0.5 0.224-0.5 0.5v2.5h-1.749c-0.206 0-0.324 0.235-0.2 0.4l2.749 3.5c0.1 0.133 0.3 0.133 0.4 0l2.75-3.5c0.124-0.165 0.006-0.4-0.2-0.4z"></path>
</svg>
