<?xml version="1.0" encoding="UTF-8" standalone="no"?>
<svg width="22px" height="22px" viewBox="0 0 22 22" version="1.1" xmlns="http://www.w3.org/2000/svg" xmlns:xlink="http://www.w3.org/1999/xlink">
    <!-- Generator: Sketch 39.1 (31720) - http://www.bohemiancoding.com/sketch -->
    <title>export_(outline)</title>
    <desc>Created with Sketch.</desc>
    <defs></defs>
    <g id="16-x-16-solid" stroke="none" stroke-width="1">
        <g id="export_(outline)">
            <g id="Page-1" transform="translate(4.000000, 3.000000)">
                <path d="M2,14 L2,2 L8,2 L8,5 C8,5.552 8.447,6 9,6 L12,6 L12,14 L2,14 Z M13.988,4.939 C13.982,4.849 13.965,4.764 13.936,4.679 C13.925,4.647 13.917,4.617 13.903,4.586 C13.854,4.48 13.793,4.379 13.707,4.293 L9.707,0.293 C9.621,0.207 9.521,0.146 9.415,0.097 C9.383,0.083 9.352,0.075 9.319,0.063 C9.237,0.036 9.153,0.019 9.066,0.013 C9.043,0.012 9.023,0 9,0 L1,0 C0.447,0 0,0.448 0,1 L0,15 C0,15.552 0.447,16 1,16 L13,16 C13.553,16 14,15.552 14,15 L14,5 C14,4.979 13.989,4.96 13.988,4.939 L13.988,4.939 Z" id="Fill-1"></path>
                <path d="M8.7496,9 L6.9996,9 L6.9996,6.5 C6.9996,6.224 6.7766,6 6.4996,6 L5.4996,6 C5.2236,6 4.9996,6.224 4.9996,6.5 L4.9996,9 L3.2506,9 C3.0446,9 2.9266,9.235 3.0506,9.4 L5.7996,12.9 C5.8996,13.033 6.0996,13.033 6.1996,12.9 L8.9496,9.4 C9.0736,9.235 8.9556,9 8.7496,9" id="Fill-3"></path>
            </g>
        </g>
    </g>
</svg>