<?xml version="1.0" encoding="UTF-8" standalone="no"?>
<svg width="22px" height="22px" viewBox="0 0 22 22" version="1.1" xmlns="http://www.w3.org/2000/svg" xmlns:xlink="http://www.w3.org/1999/xlink">
    <!-- Generator: Sketch 39.1 (31720) - http://www.bohemiancoding.com/sketch -->
    <title>export</title>
    <desc>Created with Sketch.</desc>
    <defs>
        <polygon id="path-1" points="0 16 0 0 6.99995 0 13.9999 0 13.9999 16 6.99995 16"></polygon>
    </defs>
    <g id="16-x-16-solid" stroke="none" stroke-width="1" fill="none" fill-rule="evenodd">
        <g id="export">
            <g id="Page-1" transform="translate(4.000000, 3.000000)">
                <g id="Group-3" transform="translate(10.000000, 0.000000)" fill="#000000">
                    <path d="M0.4998,4 L0.4998,4 L3.7398,4 C4.0198,4 4.0798,3.84 3.8898,3.65 L0.3498,0.11 C0.1598,-0.08 -0.0002,-0.02 -0.0002,0.26 L-0.0002,3.5 C-0.0002,3.776 0.2238,4 0.4998,4" id="Fill-1"></path>
                </g>
                <g id="Group-6">
                    <mask id="mask-2" fill="white">
                        <use xlink:href="#path-1"></use>
                    </mask>
                    <g id="Clip-5"></g>
                    <path d="M9.9099,9.5 L7.3199,12.83 C7.2049,13.005 6.9699,13.054 6.7949,12.939 C6.7479,12.908 6.7089,12.868 6.6799,12.82 L4.0899,9.5 C3.9099,9.26 4.0099,9 4.2999,9 L5.9999,9 L5.9999,6.5 C5.9999,6.224 6.2239,6 6.4999,6 L7.4999,6 C7.7759,6 7.9999,6.224 7.9999,6.5 L7.9999,9 L9.6999,9 C9.9899,9 10.0899,9.26 9.9099,9.5 M13.4999,5 L9.4999,5 C9.2239,5 8.9999,4.776 8.9999,4.5 L8.9999,0.5 C8.9999,0.224 8.7759,0 8.4999,0 L0.9999,0 C0.4479,0 -0.0001,0.448 -0.0001,1 L-0.0001,15 C-0.0001,15.552 0.4479,16 0.9999,16 L12.9999,16 C13.5519,16 13.9999,15.552 13.9999,15 L13.9999,5.5 C13.9999,5.224 13.7759,5 13.4999,5" id="Fill-4" fill="#000000" mask="url(#mask-2)"></path>
                </g>
            </g>
        </g>
    </g>
</svg>