<?xml version="1.0" encoding="utf-8"?>
<!-- Generated by IcoMoon.io -->
<!DOCTYPE svg PUBLIC "-//W3C//DTD SVG 1.1//EN" "http://www.w3.org/Graphics/SVG/1.1/DTD/svg11.dtd">
<svg version="1.1" xmlns="http://www.w3.org/2000/svg" xmlns:xlink="http://www.w3.org/1999/xlink" width="22" height="22" viewBox="0 0 22 22">
<path fill="#000" d="M14.5 7v0h3.24c0.28 0 0.34-0.16 0.15-0.35l-3.54-3.54c-0.19-0.19-0.35-0.13-0.35 0.15v3.24c0 0.276 0.224 0.5 0.5 0.5z"></path>
<path fill="#000" d="M13.91 12.5l-2.59 3.33c-0.115 0.175-0.35 0.224-0.525 0.109-0.047-0.031-0.086-0.071-0.115-0.119l-2.59-3.32c-0.18-0.24-0.080-0.5 0.21-0.5h1.7v-2.5c0-0.276 0.224-0.5 0.5-0.5h1c0.276 0 0.5 0.224 0.5 0.5v2.5h1.7c0.29 0 0.39 0.26 0.21 0.5zM17.5 8h-4c-0.276 0-0.5-0.224-0.5-0.5v-4c0-0.276-0.224-0.5-0.5-0.5h-7.5c-0.552 0-1 0.448-1 1v14c0 0.552 0.448 1 1 1h12c0.552 0 1-0.448 1-1v-9.5c0-0.276-0.224-0.5-0.5-0.5z"></path>
</svg>
