<?xml version="1.0" encoding="utf-8"?>
<!-- Generated by IcoMoon.io -->
<!DOCTYPE svg PUBLIC "-//W3C//DTD SVG 1.1//EN" "http://www.w3.org/Graphics/SVG/1.1/DTD/svg11.dtd">
<svg version="1.1" xmlns="http://www.w3.org/2000/svg" xmlns:xlink="http://www.w3.org/1999/xlink" width="32" height="32" viewBox="0 0 32 32">
<path fill="#000" d="M21.091 10.182v0h4.713c0.407 0 0.495-0.233 0.218-0.509l-5.149-5.149c-0.276-0.276-0.509-0.189-0.509 0.218v4.713c0 0.401 0.326 0.727 0.727 0.727z"></path>
<path fill="#000" d="M20.233 18.182l-3.767 4.844c-0.167 0.255-0.509 0.326-0.764 0.159-0.068-0.045-0.125-0.103-0.167-0.173l-3.767-4.829c-0.262-0.349-0.116-0.727 0.305-0.727h2.473v-3.636c0-0.401 0.326-0.727 0.727-0.727h1.455c0.401 0 0.727 0.326 0.727 0.727v3.636h2.473c0.422 0 0.567 0.378 0.305 0.727zM25.454 11.636h-5.818c-0.401 0-0.727-0.326-0.727-0.727v-5.818c0-0.401-0.326-0.727-0.727-0.727h-10.909c-0.803 0-1.455 0.652-1.455 1.455v20.364c0 0.803 0.652 1.455 1.455 1.455h17.455c0.803 0 1.455-0.652 1.455-1.455v-13.818c0-0.401-0.326-0.727-0.727-0.727z"></path>
</svg>
