<?xml version="1.0" encoding="utf-8"?>
<!-- Generated by IcoMoon.io -->
<!DOCTYPE svg PUBLIC "-//W3C//DTD SVG 1.1//EN" "http://www.w3.org/Graphics/SVG/1.1/DTD/svg11.dtd">
<svg version="1.1" xmlns="http://www.w3.org/2000/svg" xmlns:xlink="http://www.w3.org/1999/xlink" width="32" height="32" viewBox="0 0 32 32">
<path fill="#000" d="M8.727 24.727v-17.455h8.727v4.364c0 0.803 0.65 1.455 1.455 1.455h4.364v11.636h-14.545zM26.164 11.548c-0.009-0.131-0.033-0.255-0.076-0.378-0.016-0.047-0.028-0.090-0.048-0.135-0.071-0.154-0.16-0.301-0.285-0.426l-5.818-5.818c-0.125-0.125-0.271-0.214-0.425-0.285-0.047-0.020-0.092-0.032-0.14-0.049-0.119-0.039-0.241-0.064-0.368-0.073-0.033-0.001-0.063-0.019-0.096-0.019h-11.636c-0.804 0-1.455 0.652-1.455 1.455v20.364c0 0.803 0.65 1.455 1.455 1.455h17.455c0.804 0 1.455-0.652 1.455-1.455v-14.545c0-0.031-0.016-0.058-0.017-0.089v0z"></path>
<path fill="#000" d="M18.545 17.455h-2.545v-3.636c0-0.401-0.324-0.727-0.727-0.727h-1.455c-0.401 0-0.727 0.326-0.727 0.727v3.636h-2.544c-0.3 0-0.471 0.342-0.291 0.582l3.999 5.091c0.145 0.193 0.436 0.193 0.582 0l4-5.091c0.18-0.24 0.009-0.582-0.291-0.582z"></path>
</svg>
