<?xml version="1.0" encoding="utf-8"?>
<!-- Generated by IcoMoon.io -->
<!DOCTYPE svg PUBLIC "-//W3C//DTD SVG 1.1//EN" "http://www.w3.org/Graphics/SVG/1.1/DTD/svg11.dtd">
<svg version="1.1" xmlns="http://www.w3.org/2000/svg" xmlns:xlink="http://www.w3.org/1999/xlink" width="32" height="32" viewBox="0 0 32 32">
<path fill="#000" d="M16 21.818c-3.213 0-5.818-2.605-5.818-5.818s2.605-5.818 5.818-5.818c3.213 0 5.818 2.605 5.818 5.818s-2.605 5.818-5.818 5.818zM16 7.273c-8.727 0-13.091 8.727-13.091 8.727s4.364 8.727 13.091 8.727c8.751 0 13.091-8.727 13.091-8.727s-4.364-8.727-13.091-8.727z"></path>
<path fill="#000" d="M16 13.091c-1.607 0-2.909 1.302-2.909 2.909s1.302 2.909 2.909 2.909c1.607 0 2.909-1.302 2.909-2.909s-1.302-2.909-2.909-2.909z"></path>
</svg>
