<?xml version="1.0" encoding="UTF-8" standalone="no"?>
<svg width="22px" height="22px" viewBox="0 0 22 22" version="1.1" xmlns="http://www.w3.org/2000/svg" xmlns:xlink="http://www.w3.org/1999/xlink">
    <!-- Generator: Sketch 39.1 (31720) - http://www.bohemiancoding.com/sketch -->
    <title>eye_on</title>
    <desc>Created with Sketch.</desc>
    <defs></defs>
    <g id="16-x-16-solid" stroke="none" stroke-width="1">
        <g id="eye_on">
            <g id="Page-1" transform="translate(2.000000, 5.000000)">
                <path d="M9,10 C6.791,10 5,8.209 5,6 C5,3.791 6.791,2 9,2 C11.209,2 13,3.791 13,6 C13,8.209 11.209,10 9,10 M9,0 C3,0 0,6 0,6 C0,6 3,12 9,12 C15.016,12 18,6 18,6 C18,6 15,0 9,0" id="Fill-1"></path>
                <path d="M9,4 C7.895,4 7,4.895 7,6 C7,7.105 7.895,8 9,8 C10.105,8 11,7.105 11,6 C11,4.895 10.105,4 9,4" id="Fill-3"></path>
            </g>
        </g>
    </g>
</svg>