<?xml version="1.0" encoding="UTF-8" standalone="no"?>
<svg width="22px" height="22px" viewBox="0 0 22 22" version="1.1" xmlns="http://www.w3.org/2000/svg" xmlns:xlink="http://www.w3.org/1999/xlink">
    <!-- Generator: Sketch 44.1 (41455) - http://www.bohemiancoding.com/sketch -->
    <title>Filter</title>
    <desc>Created with Sketch.</desc>
    <defs></defs>
    <g id="Designs" stroke="none" stroke-width="1" fill="none" fill-rule="evenodd">
        <g id="Filter" transform="translate(-22, -22)" fill="#9BACBF">
            <path d="M25,31 L27,31 L27,29 C27,28.448 27.448,28 28,28 C28.552,28 29,28.448 29,29 L29,31 L31,31 C31.552,31 32,31.448 32,32 C32,32.552 31.552,33 31,33 L29,33 L29,35 C29,35.552 28.552,36 28,36 C27.448,36 27,35.552 27,35 L27,33 L25,33 C24.448,33 24,32.552 24,32 C24,31.448 24.448,31 25,31 L25,31 Z M36,33 L36,39 L32,43 L30,43 L30,35 L30,34 L32,34 L32,40 L34,38 L34,32 L41,25 L25,25 L27,27 C26.448,27 26,27.448 26,28 L26,29 L22,25 L22,23 L44,23 L44,25 L36,33 Z"></path>
        </g>
    </g>
</svg>
