<?xml version="1.0" encoding="utf-8"?>
<!-- Generated by IcoMoon.io -->
<!DOCTYPE svg PUBLIC "-//W3C//DTD SVG 1.1//EN" "http://www.w3.org/Graphics/SVG/1.1/DTD/svg11.dtd">
<svg version="1.1" xmlns="http://www.w3.org/2000/svg" xmlns:xlink="http://www.w3.org/1999/xlink" width="32" height="32" viewBox="0 0 32 32">
<path fill="#000" d="M24.727 11.636h-2.909v2.909h2.909v2.909h-2.909v-2.909h-2.909v2.909h-2.909v-2.909h-2.909v2.909h-2.909v-2.909h-2.909v-2.909h2.909v-2.909h2.909v2.909h2.909v-2.909h2.909v2.909h2.909v-2.909h2.909v2.909zM26.182 5.818h-18.909c0-0.803-0.65-1.455-1.455-1.455s-1.455 0.652-1.455 1.455v20.364c0 0.803 0.65 1.455 1.455 1.455s1.455-0.652 1.455-1.455v-5.818h18.909c0.804 0 1.455-0.652 1.455-1.455v-11.636c0-0.803-0.65-1.455-1.455-1.455v0z"></path>
<path fill="#000" d="M10.182 14.545h2.909v-2.909h-2.909z"></path>
<path fill="#000" d="M16 14.545h2.911v-2.909h-2.911z"></path>
</svg>
