<?xml version="1.0" encoding="utf-8"?>
<!-- Generated by IcoMoon.io -->
<!DOCTYPE svg PUBLIC "-//W3C//DTD SVG 1.1//EN" "http://www.w3.org/Graphics/SVG/1.1/DTD/svg11.dtd">
<svg version="1.1" xmlns="http://www.w3.org/2000/svg" xmlns:xlink="http://www.w3.org/1999/xlink" width="22" height="22" viewBox="0 0 22 22">
<path fill="#000" d="M17 8h-2v2h2v2h-2v-2h-2v2h-2v-2h-2v2h-2v-2h-2v-2h2v-2h2v2h2v-2h2v2h2v-2h2v2zM18 4h-13c0-0.552-0.447-1-1-1s-1 0.448-1 1v14c0 0.552 0.447 1 1 1s1-0.448 1-1v-4h13c0.553 0 1-0.448 1-1v-8c0-0.552-0.447-1-1-1v0z"></path>
<path fill="#000" d="M7 10h2v-2h-2z"></path>
<path fill="#000" d="M11 10h2.001v-2h-2.001z"></path>
</svg>
