<?xml version="1.0" encoding="utf-8"?>
<!-- Generated by IcoMoon.io -->
<!DOCTYPE svg PUBLIC "-//W3C//DTD SVG 1.1//EN" "http://www.w3.org/Graphics/SVG/1.1/DTD/svg11.dtd">
<svg version="1.1" xmlns="http://www.w3.org/2000/svg" xmlns:xlink="http://www.w3.org/1999/xlink" width="22" height="22" viewBox="0 0 22 22">
            <path d="M17.1529249,8.71253823 C17.5291882,8.71253823 17.692781,9.03311188 18.0854035,9.03311188 C18.5761818,9.03311188 19.0010924,8.64842349 19.0010924,8.18359169 C19.0010924,7.67067384 18.5598225,7.20626384 18.052685,7.20626384 C17.2837991,7.20626384 16.743943,7.59053042 15.4683501,9.41780027 C15.2066018,8.05536223 14.7515556,7.40873141 13.9366055,7.40873141 L12.181858,7.41210587 L10.3242194,7.41210587 L10.6135202,6.24243383 C11.0474715,4.50585258 11.6626663,3.51376147 12.2774306,3.51376147 C12.4582437,3.51376147 12.6028941,3.60234103 12.6028941,3.74406833 C12.6028941,3.99209111 12.3135932,4.08067067 12.3135932,4.48813667 C12.3135932,4.98460403 12.6933006,5.3739323 13.1995771,5.3739323 C13.7600975,5.3739323 14.1217236,4.96688812 14.1217236,4.41727301 C14.1217236,3.54919329 13.4165527,3 12.3316745,3 C11.1017154,3 10.2880568,3.46061373 9.67286193,4.20468206 C9.02193501,5.02003585 8.60606504,6.15385427 8.24443897,7.41210587 L6.90599202,7.41210587 L6.74326029,8.15617421 L8.08170724,8.15617421 C7.17764208,12.0540968 6.59860986,14.5883159 6.49012204,15.1020774 C5.92960164,17.7244543 5.58605688,18.4508067 4.86280475,18.4508067 C4.68199171,18.4508067 4.53691078,18.3799431 4.53691078,18.2382158 C4.53691078,17.990193 4.82664214,17.9370452 4.82664214,17.4941474 C4.82664214,16.980386 4.39226035,16.6256459 3.92214647,16.6256459 C3.43395128,16.6256459 3,17.0512496 3,17.6004429 C3,18.4508067 3.77749604,19 4.79047953,19 C5.58605688,19 6.2731464,18.7342613 6.85174811,18.185068 C7.50267503,17.5650111 7.91897551,16.7673732 8.47949591,15.1375092 C8.9676911,13.7020985 9.18466674,12.8517347 10.1976502,8.15617421 L12.7574462,8.15617421 C13.2305736,8.16882843 13.3640308,8.34345671 13.5052372,9.09722662 L13.9796562,11.5331646 L13.2602786,12.6712011 C12.9167338,13.2157545 12.7854291,13.3119266 12.4913927,13.3119266 C12.1478479,13.3119266 11.9678959,12.9592956 11.4771177,12.9592956 C10.9699802,12.9592956 10.5937169,13.3604345 10.5937169,13.8729305 C10.5937169,14.4339344 11.0026987,14.8186228 11.6243512,14.8186228 C12.4423149,14.8186228 12.8022189,14.4980491 13.7669856,12.9592956 L14.1596082,12.3345988 C14.5195122,14.1774755 14.9284941,14.8186228 15.7460273,14.8186228 C16.5312725,14.8186228 17.218362,14.2736476 18.2162777,12.8631235 L17.872733,12.6391437 C17.2347213,13.4401561 17.0711285,13.5844142 16.7766616,13.5844142 C16.4658354,13.5844142 16.3022426,13.3604345 16.1713684,12.7353158 L15.6478717,10.2188126 C16.1713684,9.30559949 16.7766616,8.71253823 17.1529249,8.71253823"></path>
</svg>