<?xml version="1.0" encoding="UTF-8"?>
<svg width="22px" height="22px" viewBox="0 0 22 22" version="1.1" xmlns="http://www.w3.org/2000/svg" xmlns:xlink="http://www.w3.org/1999/xlink">
    <!-- Generator: Sketch 43.2 (39069) - http://www.bohemiancoding.com/sketch -->
    <title>gripper</title>
    <desc>Created with Sketch.</desc>
    <defs></defs>
    <g id="16-x-16" stroke="none" stroke-width="1" fill-rule="evenodd">
        <g id="gripper">
            <g transform="translate(6.000000, 5.000000)" id="Shape">
                <g>
                    <path d="M3,0 L1,0 C0.448,0 0,0.448 0,1 L0,2 C0,2.552 0.448,3 1,3 L3,3 C3.552,3 4,2.552 4,2 L4,1 C4,0.448 3.552,0 3,0 Z"></path>
                    <path d="M9,0 L7,0 C6.448,0 6,0.448 6,1 L6,2 C6,2.552 6.448,3 7,3 L9,3 C9.552,3 10,2.552 10,2 L10,1 C10,0.448 9.552,0 9,0 Z"></path>
                    <path d="M3,5 L1,5 C0.448,5 0,5.448 0,6 L0,7 C0,7.552 0.448,8 1,8 L3,8 C3.552,8 4,7.552 4,7 L4,6 C4,5.448 3.552,5 3,5 Z"></path>
                    <path d="M9,5 L7,5 C6.448,5 6,5.448 6,6 L6,7 C6,7.552 6.448,8 7,8 L9,8 C9.552,8 10,7.552 10,7 L10,6 C10,5.448 9.552,5 9,5 Z"></path>
                    <path d="M3,10 L1,10 C0.448,10 0,10.448 0,11 L0,12 C0,12.552 0.448,13 1,13 L3,13 C3.552,13 4,12.552 4,12 L4,11 C4,10.448 3.552,10 3,10 Z"></path>
                    <path d="M9,10 L7,10 C6.448,10 6,10.448 6,11 L6,12 C6,12.552 6.448,13 7,13 L9,13 C9.552,13 10,12.552 10,12 L10,11 C10,10.448 9.552,10 9,10 Z"></path>
                </g>
            </g>
        </g>
    </g>
</svg>