<?xml version="1.0" encoding="utf-8"?>
<!DOCTYPE svg PUBLIC "-//W3C//DTD SVG 1.1//EN" "http://www.w3.org/Graphics/SVG/1.1/DTD/svg11.dtd">
<svg version="1.1" id="Layer_1" xmlns="http://www.w3.org/2000/svg" xmlns:xlink="http://www.w3.org/1999/xlink" x="0px" y="0px" width="22px" height="22px" viewBox="0 0 22 22" xml:space="preserve">
    <g transform="translate(4.00000, 6.000000)">
        <path fill="#889EB4" fill-rule="evenodd" d="M13 8H1a1 1 0 0 0 0 2h12a1 1 0 0 0 0-2m0-4H1a1 1 0 0 0 0 2h12a1 1 0 0 0 0-2M1 2h12a1 1 0 0 0 0-2H1a1 1 0 0 0 0 2"/>
    </g>
</svg>

