<svg xmlns="http://www.w3.org/2000/svg" width="22" height="22" viewBox="0 0 22 22">
    <g transform="translate(2.000000, 2.000000)">
        <path fill="none" fill-rule="evenodd" d="M12.183 8.072a2.712 2.712 0 0 1-1.008 1.267c-.21.145-.408.289-.595.434-.187.145-.352.31-.497.497-.145.187-.236.42-.273.7v.532H7.92v-.63c.028-.401.105-.737.231-1.008a2.9 2.9 0 0 1 .441-.693c.168-.191.345-.357.532-.497.187-.14.359-.28.518-.42.159-.14.287-.294.385-.462.098-.168.142-.378.133-.63 0-.429-.105-.746-.315-.952-.21-.205-.502-.308-.875-.308-.252 0-.469.049-.651.147a1.305 1.305 0 0 0-.448.392 1.694 1.694 0 0 0-.259.574 2.849 2.849 0 0 0-.084.707H5.47a4 4 0 0 1 .259-1.386c.163-.42.392-.784.686-1.092a3.098 3.098 0 0 1 1.064-.721 3.61 3.61 0 0 1 1.393-.259c.663 0 1.216.091 1.659.273.443.182.8.409 1.071.679a2.51 2.51 0 0 1 .756 1.75c0 .448-.058.817-.175 1.106zm-4.459 6.426h2.198v-2.156H7.724v2.156zM9 0a9 9 0 1 0 0 18A9 9 0 0 0 9 0z"/>
    </g>
</svg>
