<?xml version="1.0" encoding="UTF-8"?>
<svg width="22px" height="22px" viewBox="0 0 22 22" version="1.1" xmlns="http://www.w3.org/2000/svg" xmlns:xlink="http://www.w3.org/1999/xlink">
    <title>hub-notifs</title>
    <desc>Anomaly Detection Notifications Icon</desc>
    <defs></defs>
    <g id="hub-notifs" stroke="none" stroke-width="1" fill-rule="evenodd">
        <g id="16-x-16" fill-rule="nonzero" transform="translate(3.000000, 3.000000)">
            <path d="M9.67619048,14.4761905 L7.00952381,14.4761905 C6.47619048,14.4761905 6.01904762,15.0857143 6.32380952,15.6190476 C6.78095238,16.3047619 7.54285714,16.7619048 8.38095238,16.7619048 C9.21904762,16.7619048 9.98095238,16.3047619 10.3619048,15.6190476 C10.6666667,15.0857143 10.2857143,14.4761905 9.67619048,14.4761905 Z" id="Shape"></path>
            <path d="M15.847619,11.9619048 L15.5428571,11.5809524 C14.3238095,9.98095238 13.7142857,8.07619048 13.7142857,6.0952381 L13.7142857,5.56190476 C13.7142857,2.81904762 11.7333333,0.380952381 8.99047619,0.0761904762 C5.79047619,-0.304761905 3.04761905,2.20952381 3.04761905,5.33333333 L3.04761905,6.0952381 C3.04761905,8.07619048 2.43809524,9.98095238 1.21904762,11.5809524 L0.914285714,11.9619048 C0.761904762,12.1142857 0.685714286,12.4190476 0.761904762,12.5714286 C0.99047619,13.2571429 1.6,13.7142857 2.28571429,13.7142857 L14.4761905,13.7142857 C15.1619048,13.7142857 15.7714286,13.2571429 15.9238095,12.5714286 C16,12.3428571 15.9238095,12.1142857 15.847619,11.9619048 Z" id="Shape"></path>
        </g>
    </g>
</svg>
