<?xml version="1.0" encoding="utf-8"?>
<!-- Generated by IcoMoon.io -->
<!DOCTYPE svg PUBLIC "-//W3C//DTD SVG 1.1//EN" "http://www.w3.org/Graphics/SVG/1.1/DTD/svg11.dtd">
<svg version="1.1" xmlns="http://www.w3.org/2000/svg" xmlns:xlink="http://www.w3.org/1999/xlink" width="22" height="22" viewBox="0 0 22 22">
<path fill="#000" d="M11 17c-3.309 0-6-2.691-6-6s2.691-6 6-6c3.309 0 6 2.691 6 6s-2.691 6-6 6zM11 3c-4.411 0-8 3.589-8 8s3.589 8 8 8c4.411 0 8-3.589 8-8s-3.589-8-8-8z"></path>
<path fill="#000" d="M11 10c-0.552 0-1 0.448-1 1v3c0 0.553 0.448 1 1 1s1-0.447 1-1v-3c0-0.552-0.448-1-1-1z"></path>
<path fill="#000" d="M11.71 7.29c-0.050-0.040-0.1-0.090-0.15-0.12-0.060-0.040-0.12-0.070-0.18-0.090-0.060-0.030-0.12-0.050-0.18-0.060-0.33-0.070-0.67 0.040-0.91 0.27-0.18 0.19-0.29 0.45-0.29 0.71s0.11 0.52 0.29 0.71c0.19 0.18 0.45 0.29 0.71 0.29 0.060 0 0.13-0.010 0.2-0.020 0.060-0.010 0.12-0.030 0.18-0.060 0.060-0.020 0.12-0.050 0.18-0.090 0.050-0.040 0.1-0.080 0.15-0.12 0.090-0.1 0.16-0.21 0.21-0.33 0.060-0.12 0.080-0.25 0.080-0.38s-0.020-0.26-0.080-0.38c-0.050-0.12-0.12-0.23-0.21-0.33z"></path>
</svg>
