<?xml version="1.0" encoding="UTF-8" standalone="no"?>
<svg width="22px" height="22px" viewBox="0 0 22 22" version="1.1" xmlns="http://www.w3.org/2000/svg" xmlns:xlink="http://www.w3.org/1999/xlink">
    <!-- Generator: Sketch 39.1 (31720) - http://www.bohemiancoding.com/sketch -->
    <title>info (outline?)</title>
    <desc>Created with Sketch.</desc>
    <defs></defs>
    <g id="16-x-16-solid" stroke="none" stroke-width="1" fill="none" fill-rule="evenodd">
        <g id="info-(outline?)" fill="#000000">
            <g id="Page-1" transform="translate(3.000000, 3.000000)">
                <path d="M8,14 C4.691,14 2,11.309 2,8 C2,4.691 4.691,2 8,2 C11.309,2 14,4.691 14,8 C14,11.309 11.309,14 8,14 M8,0 C3.589,0 0,3.589 0,8 C0,12.411 3.589,16 8,16 C12.411,16 16,12.411 16,8 C16,3.589 12.411,0 8,0" id="Fill-1"></path>
                <path d="M8,7 C7.448,7 7,7.448 7,8 L7,11 C7,11.553 7.448,12 8,12 C8.552,12 9,11.553 9,11 L9,8 C9,7.448 8.552,7 8,7" id="Fill-3"></path>
                <path d="M8.71,4.29 C8.66,4.25 8.61,4.2 8.56,4.17 C8.5,4.13 8.44,4.1 8.38,4.08 C8.32,4.05 8.26,4.03 8.2,4.02 C7.87,3.95 7.53,4.06 7.29,4.29 C7.11,4.48 7,4.74 7,5 C7,5.26 7.11,5.52 7.29,5.71 C7.48,5.89 7.74,6 8,6 C8.06,6 8.13,5.99 8.2,5.98 C8.26,5.97 8.32,5.95 8.38,5.92 C8.44,5.9 8.5,5.87 8.56,5.83 C8.61,5.79 8.66,5.75 8.71,5.71 C8.8,5.61 8.87,5.5 8.92,5.38 C8.98,5.26 9,5.13 9,5 C9,4.87 8.98,4.74 8.92,4.62 C8.87,4.5 8.8,4.39 8.71,4.29" id="Fill-5"></path>
            </g>
        </g>
    </g>
</svg>