<?xml version="1.0" encoding="utf-8"?>
<!-- Generated by IcoMoon.io -->
<!DOCTYPE svg PUBLIC "-//W3C//DTD SVG 1.1//EN" "http://www.w3.org/Graphics/SVG/1.1/DTD/svg11.dtd">
<svg version="1.1" xmlns="http://www.w3.org/2000/svg" xmlns:xlink="http://www.w3.org/1999/xlink" width="32" height="32" viewBox="0 0 32 32">
<path fill="#000" d="M16 24.727c-4.813 0-8.727-3.914-8.727-8.727s3.914-8.727 8.727-8.727c4.813 0 8.727 3.914 8.727 8.727s-3.914 8.727-8.727 8.727zM16 4.364c-6.416 0-11.636 5.22-11.636 11.636s5.22 11.636 11.636 11.636c6.416 0 11.636-5.22 11.636-11.636s-5.22-11.636-11.636-11.636z"></path>
<path fill="#000" d="M16 14.545c-0.803 0-1.455 0.652-1.455 1.455v4.364c0 0.804 0.652 1.455 1.455 1.455s1.455-0.65 1.455-1.455v-4.364c0-0.803-0.652-1.455-1.455-1.455z"></path>
<path fill="#000" d="M17.033 10.604c-0.073-0.058-0.145-0.131-0.218-0.175-0.087-0.058-0.175-0.102-0.262-0.131-0.087-0.044-0.175-0.073-0.262-0.087-0.48-0.102-0.975 0.058-1.324 0.393-0.262 0.276-0.422 0.655-0.422 1.033s0.16 0.756 0.422 1.033c0.276 0.262 0.655 0.422 1.033 0.422 0.087 0 0.189-0.015 0.291-0.029 0.087-0.015 0.175-0.044 0.262-0.087 0.087-0.029 0.175-0.073 0.262-0.131 0.073-0.058 0.145-0.116 0.218-0.175 0.131-0.145 0.233-0.305 0.305-0.48 0.087-0.175 0.116-0.364 0.116-0.553s-0.029-0.378-0.116-0.553c-0.073-0.175-0.175-0.335-0.305-0.48z"></path>
</svg>
