<?xml version="1.0" encoding="UTF-8" standalone="no"?>
<svg width="22px" height="22px" viewBox="0 0 22 22" version="1.1" xmlns="http://www.w3.org/2000/svg" xmlns:xlink="http://www.w3.org/1999/xlink">
    <!-- Generator: Sketch 39.1 (31720) - http://www.bohemiancoding.com/sketch -->
    <title>input</title>
    <desc>Created with Sketch.</desc>
    <defs>
        <polygon id="path-1" points="0 14 16 14 16 0 0 0"></polygon>
    </defs>
    <g id="16-x-16-solid" stroke="none" stroke-width="1">
        <g id="input">
            <g id="Page-1" transform="translate(3.000000, 4.000000)">
                <path d="M8,9 L2,9 L2,5 L8,5 L8,3 L1,3 C0.447,3 0,3.448 0,4 L0,10 C0,10.552 0.447,11 1,11 L8,11 L8,9 L8,9 Z" id="Fill-1"></path>
                <path d="M15,3 L11,3 L11,5 L14,5 L14,9 L11,9 L11,11 L15,11 C15.553,11 16,10.552 16,10 L16,4 C16,3.448 15.553,3 15,3" id="Fill-3"></path>
                <mask id="mask-2">
                    <use xlink:href="#path-1"></use>
                </mask>
                <g id="Clip-6"></g>
                <polygon id="Fill-5" mask="url(#mask-2)" points="9 13 10 13 10 1 9 1"></polygon>
                <polygon id="Fill-7" mask="url(#mask-2)" points="6 1 9 1 9 0 6 0"></polygon>
                <polygon id="Fill-8" mask="url(#mask-2)" points="10 1 13 1 13 0 10 0"></polygon>
                <polygon id="Fill-9" mask="url(#mask-2)" points="6 14 9 14 9 13 6 13"></polygon>
                <polygon id="Fill-10" mask="url(#mask-2)" points="10 14 13 14 13 13 10 13"></polygon>
            </g>
        </g>
    </g>
</svg>