<?xml version="1.0" encoding="utf-8"?>
<!-- Generated by IcoMoon.io -->
<!DOCTYPE svg PUBLIC "-//W3C//DTD SVG 1.1//EN" "http://www.w3.org/Graphics/SVG/1.1/DTD/svg11.dtd">
<svg version="1.1" xmlns="http://www.w3.org/2000/svg" xmlns:xlink="http://www.w3.org/1999/xlink" width="32" height="32" viewBox="0 0 32 32">
<path fill="#000" d="M16 18.909h-8.727v-5.818h8.727v-2.909h-10.182c-0.804 0-1.455 0.652-1.455 1.455v8.727c0 0.803 0.65 1.455 1.455 1.455h10.182v-2.909z"></path>
<path fill="#000" d="M26.182 10.182h-5.818v2.909h4.364v5.818h-4.364v2.909h5.818c0.804 0 1.455-0.652 1.455-1.455v-8.727c0-0.803-0.65-1.455-1.455-1.455z"></path>
<path fill="#000" d="M17.455 24.727h1.455v-17.455h-1.455z"></path>
<path fill="#000" d="M13.091 7.273h4.364v-1.455h-4.364z"></path>
<path fill="#000" d="M18.909 7.273h4.364v-1.455h-4.364z"></path>
<path fill="#000" d="M13.091 26.182h4.364v-1.455h-4.364z"></path>
<path fill="#000" d="M18.909 26.182h4.364v-1.455h-4.364z"></path>
</svg>
