<?xml version="1.0" encoding="utf-8"?>
<!-- Generated by IcoMoon.io -->
<!DOCTYPE svg PUBLIC "-//W3C//DTD SVG 1.1//EN" "http://www.w3.org/Graphics/SVG/1.1/DTD/svg11.dtd">
<svg version="1.1" xmlns="http://www.w3.org/2000/svg" xmlns:xlink="http://www.w3.org/1999/xlink" width="22" height="22" viewBox="0 0 22 22">
<path fill="#000" d="M11 13h-6v-4h6v-2h-7c-0.553 0-1 0.448-1 1v6c0 0.552 0.447 1 1 1h7v-2z"></path>
<path fill="#000" d="M18 7h-4v2h3v4h-3v2h4c0.553 0 1-0.448 1-1v-6c0-0.552-0.447-1-1-1z"></path>
<path fill="#000" d="M12 17h1v-12h-1z"></path>
<path fill="#000" d="M9 5h3v-1h-3z"></path>
<path fill="#000" d="M13 5h3v-1h-3z"></path>
<path fill="#000" d="M9 18h3v-1h-3z"></path>
<path fill="#000" d="M13 18h3v-1h-3z"></path>
</svg>
