<?xml version="1.0" encoding="UTF-8" standalone="no"?>
<svg viewBox="0 0 22 22" version="1.1" xmlns="http://www.w3.org/2000/svg" xmlns:xlink="http://www.w3.org/1999/xlink">
    <!-- Generator: Sketch 41.1 (35376) - http://www.bohemiancoding.com/sketch -->
    <title>label</title>
    <desc>Created with Sketch.</desc>
    <defs></defs>
    <g id="16-x-16" stroke="none" stroke-width="1" fill-rule="evenodd">
        <g id="label">
            <g id="label-tag" transform="translate(3.000000, 3.000000)">
                <path d="M14.9738751,1.77635684e-15 L9.66487512,1.77635684e-15 C9.11987512,1.77635684e-15 8.59787512,0.216 8.21287512,0.6 L0.300875117,8.506 C-0.100124883,8.907 -0.100124883,9.555 0.299875117,9.956 L6.03487512,15.698 C6.43587512,16.1 7.08687512,16.1 7.48787512,15.699 L15.3998751,7.78 C15.7838751,7.396 15.9998751,6.874 15.9998751,6.331 L15.9998751,1.025 C15.9998751,0.459 15.5398751,1.77635684e-15 14.9738751,1.77635684e-15 M12.4998751,4.985 C11.6718751,4.985 10.9998751,4.313 10.9998751,3.485 C10.9998751,2.657 11.6718751,1.985 12.4998751,1.985 C13.3278751,1.985 13.9998751,2.657 13.9998751,3.485 C13.9998751,4.313 13.3278751,4.985 12.4998751,4.985"></path>
            </g>
        </g>
    </g>
</svg>