<?xml version="1.0" encoding="UTF-8" standalone="no"?>
<svg width="16px" height="16px" viewBox="0 0 16 16" version="1.1" xmlns="http://www.w3.org/2000/svg" xmlns:xlink="http://www.w3.org/1999/xlink">
    <!-- Generator: sketchtool 39.1 (31720) - http://www.bohemiancoding.com/sketch -->
    <title>4CA9E2B0-52BF-4F9C-83FE-2CE1152A5884</title>
    <desc>Created with sketchtool.</desc>
    <defs></defs>
    <g id="Pricing-Upgrade-" stroke="none" stroke-width="1" fill="none" fill-rule="evenodd">
        <g id="Date-History-Calendar" transform="translate(-335.000000, -684.000000)">
            <g id="icon_upgrade_calenadr" transform="translate(335.000000, 684.000000)">
                <g id="Group-4-Copy" fill="#7858B8">
                    <g id="icon_upgrade_nav-copy">
                        <ellipse id="Oval-3" cx="8" cy="8" rx="8" ry="8"></ellipse>
                    </g>
                </g>
                <g id="Page-1" transform="translate(5.333333, 2.666667)" fill="#FFFFFF">
                    <path d="M2.09392825,5.67432548 C2.11523012,5.62738084 2.10670937,5.57818736 2.06978614,5.54136252 C2.0331211,5.50453768 1.97128114,5.48345476 1.90040401,5.48345476 L0.0464960296,5.48345476 C0.0168025173,5.48345476 0.00260127232,5.47764524 0.000664738909,5.47502159 C-0.0012717945,5.47230423 0.00014833,5.46040409 0.0169316196,5.44260074 L4.76028909,1.39434212 C4.89304498,1.28104048 4.94560996,1.30629262 4.87082311,1.46536346 L3.34596165,4.70872762 C3.32091582,4.75520375 3.32595081,4.80430354 3.36080841,4.84131578 C3.39553691,4.87823432 3.45660226,4.89950465 3.52799579,4.89950465 L5.28030033,4.89950465 C5.31076845,4.89950465 5.32664803,4.90587637 5.3309084,4.91131108 C5.33529787,4.91674579 5.33491057,4.92995776 5.31967651,4.94907294 L0.85266572,9.26701926 C0.727644144,9.38786886 0.675124946,9.35902101 0.74145692,9.18675391 L2.09392825,5.67432548 Z" id="Fill-1"></path>
                </g>
            </g>
        </g>
    </g>
</svg>