<?xml version="1.0" encoding="UTF-8" standalone="no"?>
<svg width="22px" height="22px" viewBox="0 0 22 22" version="1.1" xmlns="http://www.w3.org/2000/svg" xmlns:xlink="http://www.w3.org/1999/xlink">
    <!-- Generator: Sketch 39.1 (31720) - http://www.bohemiancoding.com/sketch -->
    <title>lighting-bolt</title>
    <desc>Created with Sketch.</desc>
    <defs></defs>
    <g id="16-x-16" stroke="none" stroke-width="1" fill="none" fill-rule="evenodd">
        <g id="lighting-bolt">
            <g id="icon_upgrade_nav-copy" transform="translate(3.000000, 3.000000)">
                <path d="M8,16 C12.418278,16 16,12.418278 16,8 C16,3.581722 12.418278,0 8,0 C3.581722,0 0,3.581722 0,8 C0,12.418278 3.581722,16 8,16 Z" id="Oval-3" fill="#000000"></path>
                <path d="M7.42726159,8.4546562 C7.44856345,8.39206335 7.44004271,8.32647203 7.40311947,8.27737225 C7.36645444,8.22827246 7.30461447,8.2001619 7.23373735,8.2001619 L5.37982936,8.2001619 C5.35013585,8.2001619 5.33593461,8.19241588 5.33399807,8.18891767 C5.33206154,8.18529453 5.33348166,8.16942768 5.35026495,8.14568987 L10.0800025,2.76351042 C10.2202805,2.60388187 10.2789433,2.63061238 10.2041564,2.84270683 L8.67929499,7.16719238 C8.65424915,7.22916056 8.65928414,7.29462694 8.69414174,7.3439766 C8.72887024,7.39320132 8.7899356,7.42156175 8.86132913,7.42156175 L10.6136337,7.42156175 C10.6441018,7.42156175 10.6599814,7.43005739 10.6642417,7.43730367 C10.6686312,7.44454995 10.6682439,7.4621659 10.6530098,7.48765281 L6.19882547,13.2283834 C6.06672006,13.3986461 6.00845828,13.3675836 6.06993856,13.1546942 L7.42726159,8.4546562 Z" id="Fill-1" fill="#FFFFFF"></path>
            </g>
        </g>
    </g>
</svg>