<?xml version="1.0" encoding="UTF-8"?>
<svg width="22px" height="22px" viewBox="0 0 22 22" version="1.1" xmlns="http://www.w3.org/2000/svg" xmlns:xlink="http://www.w3.org/1999/xlink">
    <!-- Generator: Sketch 42 (36781) - http://www.bohemiancoding.com/sketch -->
    <title>lightning-bolt</title>
    <desc>Created with Sketch.</desc>
    <defs></defs>
    <g id="16-x-16" stroke="none" stroke-width="1" fill-rule="evenodd">
        <g id="lightning-bolt">
            <g transform="translate(3.000000, 3.000000)">
                <path d="M8,0 C3.582,0 0,3.582 0,8 C0,12.418 3.582,16 8,16 C12.418,16 16,12.418 16,8 C16,3.582 12.418,0 8,0" id="circle"></path>
                <path d="M8.8613,7.5669 C8.7903,7.5669 8.7293,7.5459 8.6943,7.5089 C8.6593,7.4719 8.6543,7.4229 8.6793,7.3759 L10.2043,4.1329 C10.2793,3.9739 10.2263,3.9479 10.0933,4.0619 L5.3503,8.1099 C5.3333,8.1279 5.3323,8.1399 5.3343,8.1429 C5.3363,8.1449 5.3503,8.1509 5.3803,8.1509 L7.2343,8.1509 C7.3043,8.1509 7.3663,8.1719 7.4033,8.2089 C7.4403,8.2459 7.4483,8.2949 7.4273,8.3419 L6.0743,11.8549 C6.0083,12.0259 6.0613,12.0559 6.1863,11.9349 L10.6533,7.6169 C10.6683,7.5979 10.6693,7.5839 10.6643,7.5789 C10.6603,7.5729 10.6443,7.5669 10.6133,7.5669 L8.8613,7.5669 Z" id="bolt" fill="#FFFFFF"></path>
            </g>
        </g>
    </g>
</svg>
