<?xml version="1.0" encoding="utf-8"?>
<!-- Generated by IcoMoon.io -->
<!DOCTYPE svg PUBLIC "-//W3C//DTD SVG 1.1//EN" "http://www.w3.org/Graphics/SVG/1.1/DTD/svg11.dtd">
<svg version="1.1" xmlns="http://www.w3.org/2000/svg" xmlns:xlink="http://www.w3.org/1999/xlink" width="22" height="22" viewBox="0 0 22 22">
<path fill="#000" d="M11 19c4.419 0 8-3.582 8-8s-3.582-8-8-8c-4.419 0-8 3.582-8 8s3.582 8 8 8zM10.427 11.454c0.021-0.063 0.013-0.128-0.024-0.177s-0.098-0.077-0.169-0.077h-1.854c-0.030 0-0.044-0.008-0.046-0.011s-0.001-0.019 0.017-0.043l4.73-5.382c0.14-0.159 0.199-0.133 0.124 0.079l-1.525 4.324c-0.025 0.062-0.020 0.127 0.015 0.177s0.096 0.078 0.167 0.078h1.752c0.030 0 0.046 0.008 0.051 0.016s0.004 0.025-0.011 0.050l-4.454 5.741c-0.132 0.171-0.19 0.139-0.129-0.074l1.357-4.7z"></path>
</svg>
