<?xml version="1.0" encoding="utf-8"?>
<!-- Generated by IcoMoon.io -->
<!DOCTYPE svg PUBLIC "-//W3C//DTD SVG 1.1//EN" "http://www.w3.org/Graphics/SVG/1.1/DTD/svg11.dtd">
<svg version="1.1" xmlns="http://www.w3.org/2000/svg" xmlns:xlink="http://www.w3.org/1999/xlink" width="32" height="32" viewBox="0 0 32 32">
<path fill="#000" d="M16 27.636c6.427 0 11.636-5.21 11.636-11.636s-5.21-11.636-11.636-11.636c-6.427 0-11.636 5.21-11.636 11.636s5.21 11.636 11.636 11.636zM15.167 16.661c0.031-0.091 0.019-0.186-0.035-0.258s-0.143-0.112-0.246-0.112h-2.697c-0.043 0-0.064-0.011-0.067-0.016s-0.001-0.028 0.024-0.063l6.88-7.829c0.204-0.232 0.289-0.193 0.181 0.115l-2.218 6.29c-0.036 0.090-0.029 0.185 0.022 0.257s0.139 0.113 0.243 0.113h2.549c0.044 0 0.067 0.012 0.074 0.023s0.006 0.036-0.016 0.073l-6.479 8.35c-0.192 0.248-0.277 0.202-0.187-0.107l1.974-6.836z"></path>
</svg>
