<?xml version="1.0" encoding="UTF-8" standalone="no"?>
<svg width="22px" height="22px" viewBox="0 0 22 22" version="1.1" xmlns="http://www.w3.org/2000/svg" xmlns:xlink="http://www.w3.org/1999/xlink">
    <!-- Generator: Sketch 39.1 (31720) - http://www.bohemiancoding.com/sketch -->
    <title>line</title>
    <desc>Created with Sketch.</desc>
    <defs>
        <polygon id="path-1" points="0 10 22 10 22 0 0 0"></polygon>
    </defs>
    <g id="16-x-16-solid" stroke="none" stroke-width="1">
        <g id="line">
            <g id="Page-1" transform="translate(0.000000, 6.000000)">
                <path d="M2,6 C0.895,6 0,6.895 0,8 C0,9.105 0.895,10 2,10 C3.105,10 4,9.105 4,8 C4,6.895 3.105,6 2,6 L2,6 Z" id="Fill-1"></path>
                <path d="M8,0 C6.895,0 6,0.895 6,2 C6,3.105 6.895,4 8,4 C9.105,4 10,3.105 10,2 C10,0.895 9.105,0 8,0" id="Fill-3"></path>
                <path d="M14,6 C12.895,6 12,6.895 12,8 C12,9.105 12.895,10 14,10 C15.105,10 16,9.105 16,8 C16,6.895 15.105,6 14,6" id="Fill-5"></path>
                <path d="M20,0 C18.895,0 18,0.895 18,2 C18,3.105 18.895,4 20,4 C21.105,4 22,3.105 22,2 C22,0.895 21.105,0 20,0" id="Fill-7"></path>
                <mask id="mask-2">
                    <use xlink:href="#path-1"></use>
                </mask>
                <g id="Clip-10"></g>
                <polygon id="Fill-9" mask="url(#mask-2)" points="4 6 6 6 6 4 4 4"></polygon>
                <polygon id="Fill-11" mask="url(#mask-2)" points="10 6 12 6 12 4 10 4"></polygon>
                <polygon id="Fill-12" mask="url(#mask-2)" points="16 6 18 6 18 4 16 4"></polygon>
            </g>
        </g>
    </g>
</svg>