<?xml version="1.0" encoding="utf-8"?>
<!-- Generated by IcoMoon.io -->
<!DOCTYPE svg PUBLIC "-//W3C//DTD SVG 1.1//EN" "http://www.w3.org/Graphics/SVG/1.1/DTD/svg11.dtd">
<svg version="1.1" xmlns="http://www.w3.org/2000/svg" xmlns:xlink="http://www.w3.org/1999/xlink" width="32" height="32" viewBox="0 0 32 32">
<path fill="#000" d="M2.909 17.455c-1.607 0-2.909 1.302-2.909 2.909s1.302 2.909 2.909 2.909c1.607 0 2.909-1.302 2.909-2.909s-1.302-2.909-2.909-2.909v0z"></path>
<path fill="#000" d="M11.636 8.727c-1.607 0-2.909 1.302-2.909 2.909s1.302 2.909 2.909 2.909c1.607 0 2.909-1.302 2.909-2.909s-1.302-2.909-2.909-2.909z"></path>
<path fill="#000" d="M20.364 17.455c-1.607 0-2.909 1.302-2.909 2.909s1.302 2.909 2.909 2.909c1.607 0 2.909-1.302 2.909-2.909s-1.302-2.909-2.909-2.909z"></path>
<path fill="#000" d="M29.091 8.727c-1.607 0-2.909 1.302-2.909 2.909s1.302 2.909 2.909 2.909c1.607 0 2.909-1.302 2.909-2.909s-1.302-2.909-2.909-2.909z"></path>
<path fill="#000" d="M5.818 17.455h2.909v-2.909h-2.909z"></path>
<path fill="#000" d="M14.545 17.455h2.909v-2.909h-2.909z"></path>
<path fill="#000" d="M23.273 17.455h2.909v-2.909h-2.909z"></path>
</svg>
