<?xml version="1.0" encoding="UTF-8"?>
<svg width="22px" height="22px" viewBox="0 0 22 22" version="1.1" xmlns="http://www.w3.org/2000/svg" xmlns:xlink="http://www.w3.org/1999/xlink">
    <!-- Generator: Sketch 42 (36781) - http://www.bohemiancoding.com/sketch -->
    <title>line</title>
    <defs></defs>
    <g id="16-x-16" stroke="none" stroke-width="1" fill-rule="evenodd">
        <g id="line-icon">
            <g transform="translate(0.000000, 6.000000)">
                <path d="M8.2,5.12 L13.684,6.948 C14.043,7.069 14.441,6.974 14.707,6.706 L19.707,1.706 C20.098,1.316 20.098,0.683 19.707,0.292 C19.317,-0.098 18.684,-0.098 18.293,0.292 L13.73,4.855 L8.317,3.051 C7.994,2.946 7.641,3.007 7.376,3.219 L2.376,7.219 C1.944,7.563 1.874,8.193 2.22,8.624 C2.417,8.871 2.707,8.999 3.001,8.999 C3.22,8.999 3.441,8.928 3.625,8.781 L8.2,5.12 L8.2,5.12 Z"></path>
            </g>
        </g>
    </g>
</svg>