<?xml version="1.0" encoding="UTF-8" standalone="no"?>
<svg width="22px" height="22px" viewBox="0 0 22 22" version="1.1" xmlns="http://www.w3.org/2000/svg" xmlns:xlink="http://www.w3.org/1999/xlink">
    <!-- Generator: Sketch 39.1 (31720) - http://www.bohemiancoding.com/sketch -->
    <title>line_stacked</title>
    <desc>Created with Sketch.</desc>
    <defs>
        <polygon id="path-1" points="8.99997505 9 18 9 18 -0.00025 -4.99004588e-05 -0.00025 -4.99004588e-05 9"></polygon>
    </defs>
    <g id="16-x-16-solid" stroke="none" stroke-width="1" fill="none" fill-rule="evenodd">
        <g id="line_stacked">
            <g id="Page-1" transform="translate(2.000000, 4.000000)">
                <g id="Group-3" fill="#000000">
                    <path d="M6.1998,5.1206 L11.6838,6.9486 C12.0428,7.0696 12.4408,6.9746 12.7068,6.7066 L17.7068,1.7066 C18.0978,1.3166 18.0978,0.6836 17.7068,0.2926 C17.3168,-0.0974 16.6838,-0.0974 16.2928,0.2926 L11.7298,4.8556 L6.3168,3.0516 C5.9938,2.9466 5.6408,3.0076 5.3758,3.2196 L0.3758,7.2196 C-0.0562,7.5636 -0.1262,8.1936 0.2198,8.6246 C0.4168,8.8716 0.7068,8.9996 1.0008,8.9996 C1.2198,8.9996 1.4408,8.9286 1.6248,8.7816 L6.1998,5.1206 Z" id="Fill-1"></path>
                </g>
                <g id="Group-6" transform="translate(1.000000, 5.000000)">
                    <mask id="mask-2" fill="white">
                        <use xlink:href="#path-1"></use>
                    </mask>
                    <g id="Clip-5"></g>
                    <path d="M17.7071,0.293 C17.3161,-0.098 16.6841,-0.098 16.2931,0.293 L11.7291,4.855 L6.3161,3.052 C5.9951,2.943 5.6401,3.007 5.3751,3.219 L0.3751,7.219 C-0.0559,7.564 -0.1259,8.193 0.2191,8.625 C0.4161,8.872 0.7071,9 1.0001,9 C1.2201,9 1.4401,8.929 1.6241,8.781 L6.2001,5.121 L11.6841,6.948 C12.0431,7.07 12.4391,6.975 12.7071,6.707 L17.7071,1.707 C18.0981,1.316 18.0981,0.684 17.7071,0.293" id="Fill-4" fill="#000000" mask="url(#mask-2)"></path>
                </g>
            </g>
        </g>
    </g>
</svg>