<?xml version="1.0" encoding="utf-8"?>
<!-- Generated by IcoMoon.io -->
<!DOCTYPE svg PUBLIC "-//W3C//DTD SVG 1.1//EN" "http://www.w3.org/Graphics/SVG/1.1/DTD/svg11.dtd">
<svg version="1.1" xmlns="http://www.w3.org/2000/svg" xmlns:xlink="http://www.w3.org/1999/xlink" width="32" height="32" viewBox="0 0 32 32">
<path fill="#000" d="M30.119 13.517c-0.569-0.569-1.488-0.569-2.057 0l-6.639 6.636-7.873-2.623c-0.467-0.159-0.983-0.065-1.369 0.243l-7.273 5.818c-0.627 0.502-0.729 1.417-0.227 2.045 0.287 0.359 0.71 0.545 1.136 0.545 0.32 0 0.64-0.103 0.908-0.319l6.656-5.324 7.977 2.657c0.522 0.177 1.098 0.039 1.488-0.351l7.273-7.273c0.569-0.569 0.569-1.488 0-2.057z"></path>
<path fill="#000" d="M11.927 13.266l7.977 2.659c0.522 0.176 1.101 0.038 1.488-0.352l7.273-7.273c0.569-0.567 0.569-1.488 0-2.057-0.567-0.567-1.488-0.567-2.057 0l-6.637 6.637-7.873-2.624c-0.47-0.153-0.983-0.064-1.369 0.244l-7.273 5.818c-0.628 0.5-0.73 1.417-0.227 2.044 0.287 0.359 0.708 0.545 1.136 0.545 0.319 0 0.64-0.103 0.908-0.317l6.655-5.325z"></path>
</svg>
