<?xml version="1.0" encoding="utf-8"?>
<!-- Generated by IcoMoon.io -->
<!DOCTYPE svg PUBLIC "-//W3C//DTD SVG 1.1//EN" "http://www.w3.org/Graphics/SVG/1.1/DTD/svg11.dtd">
<svg version="1.1" xmlns="http://www.w3.org/2000/svg" xmlns:xlink="http://www.w3.org/1999/xlink" width="22" height="22" viewBox="0 0 22 22">
<path fill="#000" d="M20.707 9.293c-0.391-0.391-1.023-0.391-1.414 0l-4.564 4.562-5.413-1.803c-0.321-0.109-0.676-0.045-0.941 0.167l-5 4c-0.431 0.345-0.501 0.974-0.156 1.406 0.197 0.247 0.488 0.375 0.781 0.375 0.22 0 0.44-0.071 0.624-0.219l4.576-3.66 5.484 1.827c0.359 0.122 0.755 0.027 1.023-0.241l5-5c0.391-0.391 0.391-1.023 0-1.414z"></path>
<path fill="#000" d="M8.2 9.12l5.484 1.828c0.359 0.121 0.757 0.026 1.023-0.242l5-5c0.391-0.39 0.391-1.023 0-1.414-0.39-0.39-1.023-0.39-1.414 0l-4.563 4.563-5.413-1.804c-0.323-0.105-0.676-0.044-0.941 0.168l-5 4c-0.432 0.344-0.502 0.974-0.156 1.405 0.197 0.247 0.487 0.375 0.781 0.375 0.219 0 0.44-0.071 0.624-0.218l4.575-3.661z"></path>
</svg>
