<?xml version="1.0" encoding="utf-8"?>
<!-- Generated by IcoMoon.io -->
<!DOCTYPE svg PUBLIC "-//W3C//DTD SVG 1.1//EN" "http://www.w3.org/Graphics/SVG/1.1/DTD/svg11.dtd">
<svg version="1.1" xmlns="http://www.w3.org/2000/svg" xmlns:xlink="http://www.w3.org/1999/xlink" width="32" height="32" viewBox="0 0 32 32">
<path fill="#000" d="M11.636 14.545v-2.909c0-2.406 1.958-4.364 4.364-4.364s4.364 1.958 4.364 4.364v2.909h-8.727zM24.727 14.545h-1.455v-2.909c0-4.010-3.263-7.273-7.273-7.273s-7.273 3.263-7.273 7.273v2.909h-1.455c-0.803 0-1.455 0.652-1.455 1.455v10.182c0 0.803 0.652 1.455 1.455 1.455h17.455c0.803 0 1.455-0.652 1.455-1.455v-10.182c0-0.803-0.652-1.455-1.455-1.455v0z"></path>
</svg>
