<?xml version="1.0" encoding="utf-8"?>
<!-- Generated by IcoMoon.io -->
<!DOCTYPE svg PUBLIC "-//W3C//DTD SVG 1.1//EN" "http://www.w3.org/Graphics/SVG/1.1/DTD/svg11.dtd">
<svg version="1.1" xmlns="http://www.w3.org/2000/svg" xmlns:xlink="http://www.w3.org/1999/xlink" width="22" height="22" viewBox="0 0 22 22">
<path fill="#000" d="M8 10v-2c0-1.654 1.346-3 3-3s3 1.346 3 3v2h-6zM17 10h-1v-2c0-2.757-2.243-5-5-5s-5 2.243-5 5v2h-1c-0.552 0-1 0.448-1 1v7c0 0.552 0.448 1 1 1h12c0.552 0 1-0.448 1-1v-7c0-0.552-0.448-1-1-1v0z"></path>
</svg>
