<?xml version="1.0" encoding="UTF-8"?>
<svg width="22px" height="22px" viewBox="0 0 22 22" version="1.1" xmlns="http://www.w3.org/2000/svg" xmlns:xlink="http://www.w3.org/1999/xlink">
    <!-- Generator: Sketch 44.1 (41455) - http://www.bohemiancoding.com/sketch -->
    <title>notification-push</title>
    <desc>Created with Sketch.</desc>
    <defs></defs>
    <g id="16-x-16" stroke="none" stroke-width="1"fill-rule="evenodd">
        <g id="notification-push">
            <g transform="translate(5.000000, 3.000000)">
                <path d="M4,8 L8,8 L8,7 L4,7 L4,8 Z M4,6 L8,6 L8,5 L4,5 L4,6 Z M6,15 C6.552,15 7,14.552 7,14 C7,13.448 6.552,13 6,13 C5.448,13 5,13.448 5,14 C5,14.552 5.448,15 6,15 L6,15 Z M2,2.309 L2,11.691 C2,11.862 2.138,12 2.309,12 L9.691,12 C9.862,12 10,11.862 10,11.691 L10,2.309 C10,2.138 9.862,2 9.691,2 L2.309,2 C2.138,2 2,2.138 2,2.309 L2,2.309 Z M0.309,0 L11.691,0 C11.862,0 12,0.138 12,0.309 L12,15.691 C12,15.862 11.862,16 11.691,16 L0.309,16 C0.138,16 0,15.862 0,15.691 L0,0.309 C0,0.138 0.138,0 0.309,0 L0.309,0 Z"></path>
            </g>
        </g>
    </g>
</svg>