<?xml version="1.0" encoding="UTF-8"?>
<svg width="22px" height="22px" viewBox="0 0 22 22" version="1.1" xmlns="http://www.w3.org/2000/svg" xmlns:xlink="http://www.w3.org/1999/xlink">
    <!-- Generator: Sketch 44.1 (41455) - http://www.bohemiancoding.com/sketch -->
    <title>notification-inapp</title>
    <desc>Created with Sketch.</desc>
    <defs></defs>
    <g id="16-x-16" stroke="none" stroke-width="1" fill-rule="evenodd">
        <g id="notification-inapp">
            <g transform="translate(5.000000, 3.000000)" id="Page-1">
                <g>
                    <path d="M10,11.6912 C10,11.8622 9.862,12.0002 9.691,12.0002 L2.309,12.0002 C2.138,12.0002 2,11.8622 2,11.6912 L2,2.3092 C2,2.1382 2.138,2.0002 2.309,2.0002 L9.691,2.0002 C9.862,2.0002 10,2.1382 10,2.3092 L10,11.6912 Z M6,15.0002 C5.448,15.0002 5,14.5522 5,14.0002 C5,13.4472 5.448,13.0002 6,13.0002 C6.552,13.0002 7,13.4472 7,14.0002 C7,14.5522 6.552,15.0002 6,15.0002 L6,15.0002 Z M11.691,0.0002 L0.309,0.0002 C0.138,0.0002 0,0.1382 0,0.3092 L0,15.6912 C0,15.8622 0.138,16.0002 0.309,16.0002 L11.691,16.0002 C11.862,16.0002 12,15.8622 12,15.6912 L12,0.3092 C12,0.1382 11.862,0.0002 11.691,0.0002 L11.691,0.0002 Z" id="Fill-1"></path>
                    <path d="M8.75,3 L3.25,3 C3.112,3 3,3.112 3,3.25 L3,8.75 C3,8.888 3.112,9 3.25,9 L6,9 L6,11 L8,9 L8.75,9 C8.888,9 9,8.888 9,8.75 L9,3.25 C9,3.112 8.888,3 8.75,3" id="Fill-4"></path>
                </g>
            </g>
        </g>
    </g>
</svg>