<?xml version="1.0" encoding="UTF-8"?>
<svg width="22px" height="22px" viewBox="0 0 22 22" version="1.1" xmlns="http://www.w3.org/2000/svg" xmlns:xlink="http://www.w3.org/1999/xlink">
    <!-- Generator: Sketch 44.1 (41455) - http://www.bohemiancoding.com/sketch -->
    <title>notification-webhook</title>
    <desc>Created with Sketch.</desc>
    <defs>
        <polygon id="path-1" points="0 15 0 0 16 0 16 15"></polygon>
    </defs>
    <g id="16-x-16" stroke="none" stroke-width="1" fill-rule="evenodd">
        <g id="notification-webhook">
            <g id="notifications-webhook" transform="translate(3.000000, 3.000000)">
                <g>
                    <mask id="mask-2">
                        <use xlink:href="#path-1"></use>
                    </mask>
                    <g id="Clip-2"></g>
                    <path d="M11.2976,12.3186 C11.0736,12.1576 10.9106,11.9416 10.8056,11.7006 L7.6516,11.7006 C7.4746,12.8136 6.8276,13.8416 5.7936,14.4526 C5.3706,14.7026 4.9196,14.8576 4.4626,14.9316 C4.0666,14.9946 3.6676,14.9976 3.2776,14.9376 C2.1646,14.7666 1.1346,14.1086 0.5246,13.0506 C-0.5464,11.1936 0.0746,8.8006 1.9086,7.7166 C2.3326,7.4666 2.7836,7.3116 3.2406,7.2376 L3.2456,8.4546 C2.9926,8.5146 2.7436,8.6126 2.5066,8.7526 C1.2366,9.5026 0.8066,11.1596 1.5486,12.4456 C1.9366,13.1196 2.5726,13.5576 3.2716,13.7156 C3.6576,13.8026 4.0626,13.8066 4.4566,13.7136 C4.7106,13.6546 4.9596,13.5556 5.1956,13.4156 C5.8526,13.0276 6.2816,12.3966 6.4426,11.7006 C6.4446,11.6946 6.4466,11.6896 6.4476,11.6836 C6.5346,11.2986 6.5396,10.8946 6.4536,10.5006 L7.6556,10.5006 L10.7976,10.5006 C10.8156,10.4576 10.8306,10.4146 10.8536,10.3736 C10.8836,10.3186 10.9216,10.2716 10.9576,10.2226 C11.2056,9.8756 11.5786,9.6616 11.9786,9.6136 C12.2756,9.5786 12.5856,9.6306 12.8676,9.7886 C12.9156,9.8156 12.9566,9.8506 13.0016,9.8826 C13.3476,10.1306 13.5626,10.5046 13.6146,10.9096 C13.6536,11.2156 13.6046,11.5366 13.4456,11.8276 C13.0486,12.5526 12.1466,12.8146 11.4316,12.4126 C11.3826,12.3856 11.3416,12.3506 11.2976,12.3186 M2.5716,11.8406 C2.1596,11.1246 2.3976,10.2066 3.1046,9.7886 C3.1516,9.7606 3.2026,9.7426 3.2526,9.7206 C3.5026,9.6076 3.7686,9.5766 4.0266,9.6076 L5.5726,6.9246 C4.7046,6.2086 4.1486,5.1196 4.1486,3.9006 C4.1486,3.4046 4.2446,2.9316 4.4116,2.4956 C4.5566,2.1166 4.7556,1.7666 5.0036,1.4556 C5.7106,0.5696 6.7906,-0.0004 8.0006,-0.0004 C10.1246,-0.0004 11.8526,1.7496 11.8526,3.9006 C11.8526,4.3956 11.7576,4.8686 11.5896,5.3056 L10.5486,4.6966 C10.6256,4.4446 10.6676,4.1776 10.6676,3.9006 C10.6676,2.4116 9.4716,1.1996 8.0006,1.1996 C7.2296,1.1996 6.5366,1.5356 6.0486,2.0666 C5.7796,2.3596 5.5726,2.7116 5.4526,3.1036 C5.3756,3.3556 5.3336,3.6226 5.3336,3.9006 C5.3336,4.6766 5.6606,5.3756 6.1806,5.8686 C6.4696,6.1426 6.8166,6.3536 7.2026,6.4766 L6.5966,7.5286 L5.0506,10.2116 C5.0776,10.2506 5.1066,10.2866 5.1306,10.3276 C5.1636,10.3836 5.1846,10.4426 5.2086,10.5006 C5.3736,10.8946 5.3646,11.3286 5.1986,11.7006 C5.0766,11.9756 4.8746,12.2166 4.5986,12.3796 C4.5506,12.4076 4.4996,12.4256 4.4506,12.4476 C4.0626,12.6226 3.6356,12.6186 3.2656,12.4566 C2.9846,12.3346 2.7376,12.1276 2.5716,11.8406 M15.7146,9.6316 C16.1376,10.6876 16.1056,11.9196 15.5186,12.9916 C14.4886,14.8726 12.1396,15.5546 10.2816,14.5116 C9.8536,14.2716 9.4916,13.9576 9.1956,13.5976 L10.2256,12.9706 C10.4056,13.1606 10.6166,13.3276 10.8566,13.4616 C12.1426,14.1836 13.7686,13.7116 14.4816,12.4096 C14.8556,11.7266 14.9026,10.9506 14.6796,10.2606 C14.5566,9.8806 14.3536,9.5256 14.0726,9.2306 C13.8926,9.0396 13.6816,8.8736 13.4426,8.7386 C12.7786,8.3666 12.0256,8.3156 11.3536,8.5286 C11.3466,8.5306 11.3386,8.5326 11.3316,8.5346 C10.9626,8.6556 10.6176,8.8556 10.3276,9.1296 L9.7216,8.0786 L8.1706,5.3856 C8.1146,5.3926 8.0586,5.4006 8.0006,5.4006 C7.1826,5.4006 6.5196,4.7286 6.5196,3.9006 C6.5196,3.8446 6.5296,3.7906 6.5356,3.7366 C6.5816,3.3096 6.8006,2.9386 7.1256,2.6956 C7.3716,2.5116 7.6716,2.4006 8.0006,2.4006 C8.8186,2.4006 9.4826,3.0716 9.4826,3.9006 C9.4826,3.9566 9.4716,4.0096 9.4666,4.0636 C9.4376,4.3296 9.3356,4.5686 9.1896,4.7726 L10.7456,7.4736 C11.7776,7.0646 12.9746,7.1036 14.0166,7.6896 C14.4456,7.9296 14.8076,8.2436 15.1036,8.6036 C15.3596,8.9156 15.5656,9.2616 15.7146,9.6316" id="Fill-1" mask="url(#mask-2)"></path>
                </g>
            </g>
        </g>
    </g>
</svg>