<?xml version="1.0" encoding="UTF-8" standalone="no"?>
<svg viewBox="0 0 22 22" version="1.1" xmlns="http://www.w3.org/2000/svg" xmlns:xlink="http://www.w3.org/1999/xlink">
    <!-- Generator: Sketch 41.1 (35376) - http://www.bohemiancoding.com/sketch -->
    <title>open-report</title>
    <desc>Created with Sketch.</desc>
    <defs></defs>
    <g id="16-x-16" stroke="none" stroke-width="1" fill-rule="evenodd">
        <g id="open-report">
            <g transform="translate(3.000000, 3.000000)">
                <path d="M10.3181,2.318 C10.5111,2.511 10.5151,2.819 10.3121,3.022 L7.3731,5.961 C6.9831,6.351 6.9831,6.983 7.3671,7.367 L8.6331,8.633 C9.0201,9.02 9.6471,9.019 10.0391,8.627 L12.9781,5.688 C13.1741,5.492 13.4921,5.492 13.6821,5.682 L15.2991,7.299 C15.6861,7.686 16.0001,7.547 16.0001,7.003 L16.0001,0.997 C16.0001,0.446 15.5471,0 15.0031,0 L8.9971,0 C8.4461,0 8.3161,0.316 8.7011,0.701 L10.3181,2.318 Z M3.1671,13.333 C2.8911,13.333 2.6671,13.111 2.6671,12.835 L2.6671,3.208 C2.6671,2.933 2.8861,2.708 3.1681,2.705 L5.7421,2.679 C6.3001,2.674 6.7521,2.229 6.7521,1.676 L6.7521,0.996 C6.7521,0.447 6.3091,0.002 5.7561,0.002 L0.9961,0 C0.4461,0 0.0001,0.445 0.0001,1.001 L0.0001,14.999 C0.0001,15.552 0.4451,16 1.0011,16 L14.9991,16 C15.5521,16 16.0001,15.552 16.0001,15.002 L16.0001,10.331 C16.0001,9.78 15.5601,9.333 15.0071,9.333 L14.3261,9.333 C13.7781,9.333 13.3331,9.776 13.3331,10.342 L13.3331,12.84 C13.3331,13.111 13.1101,13.33 12.8331,13.33 L3.1671,13.333 Z"></path>
            </g>
        </g>
    </g>
</svg>