<?xml version="1.0" encoding="UTF-8"?>
<svg width="22px" height="22px" viewBox="0 0 22 22" version="1.1" xmlns="http://www.w3.org/2000/svg" xmlns:xlink="http://www.w3.org/1999/xlink">
    <!-- Generator: Sketch 42 (36781) - http://www.bohemiancoding.com/sketch -->
    <title>opportunity</title>
    <desc>Created with Sketch.</desc>
    <defs></defs>
    <g id="16-x-16" stroke="none" stroke-width="1">
        <g id="opportunity">
            <g transform="translate(3.000000, 3.000000)" id="Shape">
                <g>
                    <path d="M3.844809,11.1080837 L3.34505329,10.6241932 C3.18606477,10.4702519 3.18606477,10.2208198 3.34505329,10.0668785 L3.844809,9.58298809 C4.00379752,9.42917818 4.00379752,9.1796147 3.844809,9.02580478 L3.34505329,8.54191433 C3.18606477,8.38797307 2.92845454,8.38797307 2.76946602,8.54191433 L2.26971031,9.02580478 C2.11085744,9.1796147 1.85311155,9.1796147 1.69425869,9.02580478 L1.19450298,8.54191433 C1.03551446,8.38797307 0.777904226,8.38797307 0.618915709,8.54191433 L0.119159995,9.02580478 C-0.039692867,9.1796147 -0.039692867,9.42917818 0.119159995,9.58298809 L0.618915709,10.0668785 C0.777904226,10.2208198 0.777904226,10.4702519 0.618915709,10.6241932 L0.119159995,11.1080837 C-0.039692867,11.2620249 -0.039692867,11.511457 0.119159995,11.6653983 L0.618915709,12.1492888 C0.777904226,12.3030987 1.03551446,12.3030987 1.19450298,12.1492888 L1.69425869,11.6653983 C1.85311155,11.511457 2.11085744,11.511457 2.26971031,11.6653983 L2.76946602,12.1492888 C2.92845454,12.3030987 3.18606477,12.3030987 3.34505329,12.1492888 L3.844809,11.6653983 C4.00379752,11.511457 4.00379752,11.2620249 3.844809,11.1080837" fill-rule="nonzero"></path>
                    <path d="M13.0818288,3.15231513 L11.7252715,3.15231513 C11.2757084,3.15231513 10.9113371,2.79951118 10.9113371,2.36421993 L10.9113371,0.919378727 C10.9113371,0.484087478 10.5469658,0.131283526 10.0974027,0.131283526 L9.14781258,0.131283526 C8.69824949,0.131283526 8.3338782,0.484087478 8.3338782,0.919378727 L8.3338782,2.36421993 C8.3338782,2.79951118 7.9695069,3.15231513 7.51994381,3.15231513 L6.16338649,3.15231513 C5.7138234,3.15231513 5.3494521,3.50511908 5.3494521,3.94041033 L5.3494521,4.72850554 C5.3494521,5.16379679 5.7138234,5.51660074 6.16338649,5.51660074 L7.51994381,5.51660074 C7.9695069,5.51660074 8.3338782,5.86940469 8.3338782,6.30469594 L8.3338782,7.74953714 C8.3338782,8.18482839 8.69824949,8.53763234 9.14781258,8.53763234 L10.0974027,8.53763234 C10.5469658,8.53763234 10.9113371,8.18482839 10.9113371,7.74953714 L10.9113371,6.30469594 C10.9113371,5.86940469 11.2757084,5.51660074 11.7252715,5.51660074 L13.0818288,5.51660074 C13.5313919,5.51660074 13.8957632,5.16379679 13.8957632,4.72850554 L13.8957632,3.94041033 C13.8957632,3.50511908 13.5313919,3.15231513 13.0818288,3.15231513" fill-rule="nonzero"></path>
                    <path d="M14.3830019,15.3172476 L13.8832462,14.8333571 C13.7242576,14.6794159 13.7242576,14.4299837 13.8832462,14.2760425 L14.3830019,13.792152 C14.5419904,13.6383421 14.5419904,13.3887786 14.3830019,13.2349687 L13.8832462,12.7510783 C13.7242576,12.597137 13.4666474,12.597137 13.3076589,12.7510783 L12.8079032,13.2349687 C12.6490503,13.3887786 12.3913044,13.3887786 12.2324516,13.2349687 L11.7326958,12.7510783 C11.5737073,12.597137 11.3160971,12.597137 11.1571086,12.7510783 L10.6573529,13.2349687 C10.4985,13.3887786 10.4985,13.6383421 10.6573529,13.792152 L11.1571086,14.2760425 C11.3160971,14.4299837 11.3160971,14.6794159 11.1571086,14.8333571 L10.6573529,15.3172476 C10.4985,15.4711889 10.4985,15.720621 10.6573529,15.8745622 L11.1571086,16.3584527 C11.3160971,16.5122626 11.5737073,16.5122626 11.7326958,16.3584527 L12.2324516,15.8745622 C12.3913044,15.720621 12.6490503,15.720621 12.8079032,15.8745622 L13.3076589,16.3584527 C13.4666474,16.5122626 13.7242576,16.5122626 13.8832462,16.3584527 L14.3830019,15.8745622 C14.5419904,15.720621 14.5419904,15.4711889 14.3830019,15.3172476" fill-rule="nonzero"></path>
                </g>
            </g>
        </g>
    </g>
</svg>