<?xml version="1.0" encoding="UTF-8" standalone="no"?>
<svg width="22px" height="22px" viewBox="0 0 22 22" version="1.1" xmlns="http://www.w3.org/2000/svg" xmlns:xlink="http://www.w3.org/1999/xlink">
    <!-- Generator: Sketch 39.1 (31720) - http://www.bohemiancoding.com/sketch -->
    <title>plus_small</title>
    <desc>Created with Sketch.</desc>
    <defs></defs>
    <g id="16-x-16-solid" stroke="none" stroke-width="1" fill="none" fill-rule="evenodd">
        <g id="plus_small" fill="#000000">
            <path d="M14,10 L12,10 L12,8 C12,7.448 11.552,7 11,7 C10.448,7 10,7.448 10,8 L10,10 L8,10 C7.448,10 7,10.448 7,11 C7,11.552 7.448,12 8,12 L10,12 L10,14 C10,14.552 10.448,15 11,15 C11.552,15 12,14.552 12,14 L12,12 L14,12 C14.552,12 15,11.552 15,11 C15,10.448 14.552,10 14,10" id="Page-1"></path>
        </g>
    </g>
</svg>