<?xml version="1.0" encoding="utf-8"?>
<!-- Generated by IcoMoon.io -->
<!DOCTYPE svg PUBLIC "-//W3C//DTD SVG 1.1//EN" "http://www.w3.org/Graphics/SVG/1.1/DTD/svg11.dtd">
<svg version="1.1" xmlns="http://www.w3.org/2000/svg" xmlns:xlink="http://www.w3.org/1999/xlink" width="32" height="32" viewBox="0 0 32 32">
<path fill="#000" d="M24.727 13.091h-5.818v-5.818c0-0.803-0.652-1.455-1.455-1.455h-2.909c-0.803 0-1.455 0.652-1.455 1.455v5.818h-5.818c-0.803 0-1.455 0.652-1.455 1.455v2.909c0 0.803 0.652 1.455 1.455 1.455h5.818v5.818c0 0.803 0.652 1.455 1.455 1.455h2.909c0.803 0 1.455-0.652 1.455-1.455v-5.818h5.818c0.803 0 1.455-0.652 1.455-1.455v-2.909c0-0.803-0.652-1.455-1.455-1.455z"></path>
</svg>
