<?xml version="1.0" encoding="utf-8"?>
<!-- Generated by IcoMoon.io -->
<!DOCTYPE svg PUBLIC "-//W3C//DTD SVG 1.1//EN" "http://www.w3.org/Graphics/SVG/1.1/DTD/svg11.dtd">
<svg version="1.1" xmlns="http://www.w3.org/2000/svg" xmlns:xlink="http://www.w3.org/1999/xlink" width="22" height="22" viewBox="0 0 22 22">
<path fill="#000" d="M17 9h-4v-4c0-0.552-0.448-1-1-1h-2c-0.552 0-1 0.448-1 1v4h-4c-0.552 0-1 0.448-1 1v2c0 0.552 0.448 1 1 1h4v4c0 0.552 0.448 1 1 1h2c0.552 0 1-0.448 1-1v-4h4c0.552 0 1-0.448 1-1v-2c0-0.552-0.448-1-1-1z"></path>
</svg>
