<?xml version="1.0" encoding="UTF-8" standalone="no"?>
<svg width="22px" height="22px" viewBox="0 0 22 22" version="1.1" xmlns="http://www.w3.org/2000/svg" xmlns:xlink="http://www.w3.org/1999/xlink">
    <!-- Generator: Sketch 39.1 (31720) - http://www.bohemiancoding.com/sketch -->
    <title>plus_large</title>
    <desc>Created with Sketch.</desc>
    <defs></defs>
    <g id="16-x-16-solid" stroke="none" stroke-width="1" fill="none" fill-rule="evenodd">
        <g id="plus_large" fill="#000000">
            <path d="M17,9 L13,9 L13,5 C13,4.448 12.552,4 12,4 L10,4 C9.448,4 9,4.448 9,5 L9,9 L5,9 C4.448,9 4,9.448 4,10 L4,12 C4,12.552 4.448,13 5,13 L9,13 L9,17 C9,17.552 9.448,18 10,18 L12,18 C12.552,18 13,17.552 13,17 L13,13 L17,13 C17.552,13 18,12.552 18,12 L18,10 C18,9.448 17.552,9 17,9" id="Page-1"></path>
        </g>
    </g>
</svg>