<?xml version="1.0" encoding="UTF-8"?>
<svg width="22px" height="22px" viewBox="0 0 22 22" version="1.1" xmlns="http://www.w3.org/2000/svg" xmlns:xlink="http://www.w3.org/1999/xlink">
    <title>pretrack</title>
    <desc>pretrack-icon</desc>
    <defs></defs>
    <g id="16-x-16" stroke="none" stroke-width="1" fill-rule="evenodd">
        <g id="pretrack">
            <g id="pretrack" transform="translate(3.000000, 3.000000)">
                <path d="M11.2057,14.2346 C9.6527,15.8356 7.3217,16.4066 5.2057,15.7046 C4.0677,15.3316 3.0377,14.6856 2.2057,13.8246 C1.3327,12.9956 0.6767,11.9656 0.2957,10.8246 C-0.4063,8.7076 0.1647,6.3766 1.7657,4.8246 L2.5957,3.9946 C2.8147,3.7886 3.1567,3.7886 3.3757,3.9946 L5.7257,6.4046 C5.9317,6.6236 5.9317,6.9646 5.7257,7.1846 L4.9357,7.9946 C4.7347,8.1836 4.5927,8.4266 4.5257,8.6946 C4.4737,8.9186 4.4737,9.1506 4.5257,9.3746 C4.5767,9.5926 4.6617,9.8016 4.7757,9.9946 C4.8657,10.1596 4.9697,10.3166 5.0857,10.4636 L5.3357,10.7446 L5.6157,10.9946 C5.7637,11.1106 5.9207,11.2136 6.0857,11.3036 C6.2787,11.4186 6.4877,11.5036 6.7057,11.5536 C6.9297,11.6056 7.1617,11.6056 7.3857,11.5536 C7.6377,11.4636 7.8587,11.3036 8.0257,11.0936 L8.8057,10.3146 C9.0247,10.1086 9.3657,10.1086 9.5857,10.3146 L11.9557,12.6946 C12.1617,12.9136 12.1617,13.2556 11.9557,13.4746 L11.2057,14.2346 Z" id="loop"></path>
                <path d="M9.6354,3.2844 L7.2954,5.6244 C7.0764,5.8304 6.7354,5.8304 6.5154,5.6244 L4.1554,3.2844 C3.9494,3.0654 3.9494,2.7234 4.1554,2.5044 L6.5054,0.1544 C6.7244,-0.0516 7.0664,-0.0516 7.2854,0.1544 L9.6254,2.4944 C9.8314,2.7134 9.8314,3.0554 9.6254,3.2744 L9.6354,3.2844 Z" id="square-l"></path>
                <path d="M15.8854,9.5344 L13.5454,11.8844 C13.3254,12.0904 12.9854,12.0904 12.7654,11.8844 L10.4154,9.5344 C10.2094,9.3144 10.2094,8.9734 10.4154,8.7544 L12.7554,6.4044 C12.9754,6.1984 13.3164,6.1984 13.5354,6.4044 L15.8854,8.7544 C16.0914,8.9734 16.0914,9.3144 15.8854,9.5344" id="square-r"></path>
            </g>
        </g>
    </g>
</svg>