<?xml version="1.0" encoding="utf-8"?>
<!-- Generated by IcoMoon.io -->
<!DOCTYPE svg PUBLIC "-//W3C//DTD SVG 1.1//EN" "http://www.w3.org/Graphics/SVG/1.1/DTD/svg11.dtd">
<svg version="1.1" xmlns="http://www.w3.org/2000/svg" xmlns:xlink="http://www.w3.org/1999/xlink" width="22" height="22" viewBox="0 0 22 22">
<path fill="#000" d="M12.73 11.91c0-0.76 0.63-0.51 0.91-1.9 0.11-0.57 0.67-0.010 0.78-1.32 0.036-0.259-0.086-0.515-0.31-0.65 0 0 0.16-0.78 0.22-1.38 0.070-0.74-0.46-2.66-3.33-2.66s-3.4 1.92-3.33 2.66c0.060 0.6 0.22 1.38 0.22 1.38-0.224 0.135-0.346 0.391-0.31 0.65 0.11 1.31 0.67 0.75 0.78 1.32 0.28 1.39 0.91 1.14 0.91 1.9 0 1.26 0.34 1.85-1.73 2.55s-3.54 1.42-3.54 1.9v0.82c0.013 0.466 0.402 0.834 0.868 0.82h12.251c0.467 0.019 0.861-0.343 0.88-0.809v-0.831c0-0.48-1.47-1.2-3.54-1.9s-1.729-1.29-1.729-2.55z"></path>
</svg>
