<?xml version="1.0" encoding="UTF-8" standalone="no"?>
<svg width="22px" height="22px" viewBox="0 0 22 22" version="1.1" xmlns="http://www.w3.org/2000/svg" xmlns:xlink="http://www.w3.org/1999/xlink">
    <!-- Generator: Sketch 39.1 (31720) - http://www.bohemiancoding.com/sketch -->
    <title>profile</title>
    <desc>Created with Sketch.</desc>
    <defs></defs>
    <g id="16-x-16-solid" stroke="none" stroke-width="1" fill="none" fill-rule="evenodd">
        <g id="profile" fill="#000000">
            <path d="M12.73,11.91 C12.73,11.15 13.36,11.4 13.64,10.01 C13.75,9.44 14.31,10 14.42,8.69 C14.456,8.431 14.334,8.175 14.11,8.04 C14.11,8.04 14.27,7.26 14.33,6.66 C14.4,5.92 13.87,4 11,4 C8.13,4 7.6,5.92 7.67,6.66 C7.73,7.26 7.89,8.04 7.89,8.04 C7.666,8.175 7.544,8.431 7.58,8.69 C7.69,10 8.25,9.44 8.36,10.01 C8.64,11.4 9.27,11.15 9.27,11.91 C9.27,13.17 9.61,13.76 7.54,14.46 C5.47,15.16 4,15.88 4,16.36 L4,17.18 C4.013,17.646 4.402,18.014 4.868,18 L4.879,18 L17.119,18 C17.586,18.019 17.98,17.657 17.999,17.191 L17.999,17.18 L17.999,16.36 C17.999,15.88 16.529,15.16 14.459,14.46 C12.389,13.76 12.73,13.17 12.73,11.91" id="Fill-1"></path>
        </g>
    </g>
</svg>