<?xml version="1.0" encoding="utf-8"?>
<!-- Generated by IcoMoon.io -->
<!DOCTYPE svg PUBLIC "-//W3C//DTD SVG 1.1//EN" "http://www.w3.org/Graphics/SVG/1.1/DTD/svg11.dtd">
<svg version="1.1" xmlns="http://www.w3.org/2000/svg" xmlns:xlink="http://www.w3.org/1999/xlink" width="32" height="32" viewBox="0 0 32 32">
<path fill="#000" d="M18.516 17.324c0-1.105 0.916-0.742 1.324-2.764 0.16-0.829 0.975-0.015 1.135-1.92 0.052-0.377-0.125-0.749-0.451-0.945 0 0 0.233-1.135 0.32-2.007 0.102-1.076-0.669-3.869-4.844-3.869s-4.945 2.793-4.844 3.869c0.087 0.873 0.32 2.007 0.32 2.007-0.326 0.196-0.503 0.569-0.451 0.945 0.16 1.905 0.975 1.091 1.135 1.92 0.407 2.022 1.324 1.658 1.324 2.764 0 1.833 0.495 2.691-2.516 3.709s-5.149 2.065-5.149 2.764v1.193c0.019 0.678 0.585 1.213 1.263 1.193h17.82c0.679 0.028 1.252-0.499 1.28-1.177v-1.209c0-0.698-2.138-1.745-5.149-2.764s-2.515-1.876-2.515-3.709z"></path>
</svg>
