<?xml version="1.0" encoding="utf-8"?>
<!-- Generated by IcoMoon.io -->
<!DOCTYPE svg PUBLIC "-//W3C//DTD SVG 1.1//EN" "http://www.w3.org/Graphics/SVG/1.1/DTD/svg11.dtd">
<svg version="1.1" xmlns="http://www.w3.org/2000/svg" xmlns:xlink="http://www.w3.org/1999/xlink" width="32" height="32" viewBox="0 0 32 32">
<path fill="#000" d="M18.881 17.513c0-1.265 1.047-0.844 1.513-3.156 0.189-0.96 1.105-0.015 1.295-2.196 0.061-0.432-0.138-0.861-0.509-1.091 0 0 0.262-1.28 0.349-2.284 0.131-1.222-0.756-4.422-5.527-4.422s-5.658 3.2-5.527 4.422c0.087 1.004 0.349 2.284 0.349 2.284-0.371 0.23-0.572 0.659-0.509 1.091 0.189 2.182 1.105 1.236 1.295 2.196 0.465 2.313 1.513 1.891 1.513 3.156 0 2.095-1.091 3.084-4.525 4.233-3.447 1.178-4.231 2.356-4.231 3.171v1.367c0.032 0.774 0.681 1.376 1.455 1.353h20.364c0.774 0.023 1.421-0.579 1.455-1.353v-1.367c0-0.815-0.787-1.993-4.233-3.171-3.433-1.149-4.524-2.138-4.524-4.233z"></path>
</svg>
