<?xml version="1.0" encoding="UTF-8" standalone="no"?>
<svg width="22px" height="22px" viewBox="0 0 22 22" version="1.1" xmlns="http://www.w3.org/2000/svg" xmlns:xlink="http://www.w3.org/1999/xlink">
    <!-- Generator: Sketch 39.1 (31720) - http://www.bohemiancoding.com/sketch -->
    <title>refresh</title>
    <desc>Created with Sketch.</desc>
    <defs></defs>
    <g id="16-x-16-solid" stroke="none" stroke-width="1" fill="none" fill-rule="evenodd">
        <g id="refresh" fill="#000000">
            <path d="M16.657,5.343 C15.209,3.895 13.209,3 11,3 C6.582,3 3,6.582 3,11 C3,15.418 6.582,19 11,19 C15.079,19 18.438,15.945 18.931,12 L15.899,12 C15.434,14.279 13.415,16 11,16 C8.243,16 6,13.757 6,11 C6,8.243 8.243,6 11,6 C12.379,6 13.629,6.561 14.534,7.466 L12,10 L15.899,10 L18.931,10 L19,10 L19,3 L16.657,5.343 Z" id="Fill-1"></path>
        </g>
    </g>
</svg>