<?xml version="1.0" encoding="UTF-8" standalone="no"?>
<svg width="22px" height="22px" viewBox="0 0 22 22" version="1.1" xmlns="http://www.w3.org/2000/svg" xmlns:xlink="http://www.w3.org/1999/xlink">
    <!-- Generator: Sketch 40.2 (33826) - http://www.bohemiancoding.com/sketch -->
    <title>saved_reports</title>
    <desc>Created with Sketch.</desc>
    <defs></defs>
    <g id="Page-1" stroke="none" stroke-width="1" fill-rule="evenodd">
        <g id="saved_reports">
            <path d="M11.9283,8.2794 L10.1343,10.1224 L10.5553,12.7074 C10.5893,12.9144 10.3693,13.0694 10.1863,12.9684 L8.0003,11.7564 L5.8133,12.9684 C5.6303,13.0694 5.4103,12.9144 5.4443,12.7074 L5.8653,10.1224 L4.0713,8.2794 C3.9293,8.1324 4.0113,7.8854 4.2133,7.8544 L6.6803,7.4774 L7.7723,5.1444 C7.8633,4.9514 8.1373,4.9514 8.2273,5.1444 L9.3193,7.4774 L11.7863,7.8544 C11.9883,7.8854 12.0713,8.1324 11.9283,8.2794 M15.0003,2.0004 L9.4143,2.0004 C9.1493,2.0004 8.8943,1.8944 8.7073,1.7074 L7.2933,0.2934 C7.1053,0.1054 6.8513,0.0004 6.5853,0.0004 L1.0003,0.0004 C0.4473,0.0004 0.0003,0.4474 0.0003,1.0004 L0.0003,15.0004 C0.0003,15.5524 0.4473,16.0004 1.0003,16.0004 L15.0003,16.0004 C15.5523,16.0004 16.0003,15.5524 16.0003,15.0004 L16.0003,3.0004 C16.0003,2.4474 15.5523,2.0004 15.0003,2.0004" id="Fill-1"></path>
        </g>
    </g>
</svg>