<?xml version="1.0" encoding="utf-8"?>
<!-- Generated by IcoMoon.io -->
<!DOCTYPE svg PUBLIC "-//W3C//DTD SVG 1.1//EN" "http://www.w3.org/Graphics/SVG/1.1/DTD/svg11.dtd">
<svg version="1.1" xmlns="http://www.w3.org/2000/svg" xmlns:xlink="http://www.w3.org/1999/xlink" width="22" height="22" viewBox="0 0 22 22">
<path fill="#000" d="M14.928 11.279l-1.794 1.843 0.421 2.585c0.034 0.207-0.186 0.362-0.369 0.261l-2.186-1.212-2.187 1.212c-0.183 0.101-0.403-0.054-0.369-0.261l0.421-2.585-1.794-1.843c-0.142-0.147-0.060-0.394 0.142-0.425l2.467-0.377 1.092-2.333c0.091-0.193 0.365-0.193 0.455 0l1.092 2.333 2.467 0.377c0.202 0.031 0.285 0.278 0.142 0.425zM18 5h-5.586c-0.265 0-0.52-0.106-0.707-0.293l-1.414-1.414c-0.188-0.188-0.442-0.293-0.708-0.293h-5.585c-0.553 0-1 0.447-1 1v14c0 0.552 0.447 1 1 1h14c0.552 0 1-0.448 1-1v-12c0-0.553-0.448-1-1-1z"></path>
</svg>
