<?xml version="1.0" encoding="utf-8"?>
<!-- Generated by IcoMoon.io -->
<!DOCTYPE svg PUBLIC "-//W3C//DTD SVG 1.1//EN" "http://www.w3.org/Graphics/SVG/1.1/DTD/svg11.dtd">
<svg version="1.1" xmlns="http://www.w3.org/2000/svg" xmlns:xlink="http://www.w3.org/1999/xlink" width="32" height="32" viewBox="0 0 32 32">
<path fill="#000" d="M21.714 16.406l-2.609 2.681 0.612 3.76c0.049 0.301-0.271 0.527-0.537 0.38l-3.18-1.763-3.181 1.763c-0.266 0.147-0.586-0.079-0.537-0.38l0.612-3.76-2.609-2.681c-0.207-0.214-0.087-0.573 0.207-0.618l3.588-0.548 1.588-3.393c0.132-0.281 0.531-0.281 0.662 0l1.588 3.393 3.588 0.548c0.294 0.045 0.415 0.404 0.207 0.618zM26.182 7.273h-8.125c-0.385 0-0.756-0.154-1.028-0.426l-2.057-2.057c-0.273-0.273-0.643-0.426-1.030-0.426h-8.124c-0.804 0-1.455 0.65-1.455 1.455v20.364c0 0.803 0.65 1.455 1.455 1.455h20.364c0.803 0 1.455-0.652 1.455-1.455v-17.455c0-0.804-0.652-1.455-1.455-1.455z"></path>
</svg>
