<?xml version="1.0" encoding="utf-8"?>
<!-- Generated by IcoMoon.io -->
<!DOCTYPE svg PUBLIC "-//W3C//DTD SVG 1.1//EN" "http://www.w3.org/Graphics/SVG/1.1/DTD/svg11.dtd">
<svg version="1.1" xmlns="http://www.w3.org/2000/svg" xmlns:xlink="http://www.w3.org/1999/xlink" width="32" height="32" viewBox="0 0 32 32">
<path fill="#000" d="M14.545 21.818c-4.010 0-7.273-3.263-7.273-7.273s3.263-7.273 7.273-7.273c4.010 0 7.273 3.263 7.273 7.273s-3.263 7.273-7.273 7.273zM27.21 25.153l-4.364-4.364c-0.054-0.054-0.122-0.077-0.18-0.121 1.289-1.705 2.061-3.821 2.061-6.124 0-5.623-4.559-10.182-10.182-10.182s-10.182 4.559-10.182 10.182c0 5.623 4.559 10.182 10.182 10.182 2.303 0 4.419-0.772 6.124-2.061 0.044 0.058 0.067 0.127 0.121 0.18l4.364 4.364c0.284 0.284 0.656 0.426 1.028 0.426s0.745-0.143 1.028-0.426c0.569-0.569 0.569-1.488 0-2.057z"></path>
</svg>
