<?xml version="1.0" encoding="UTF-8"?>
<svg width="22px" height="22px" viewBox="0 0 22 22" version="1.1" xmlns="http://www.w3.org/2000/svg" xmlns:xlink="http://www.w3.org/1999/xlink">
    <!-- Generator: Sketch 44.1 (41455) - http://www.bohemiancoding.com/sketch -->
    <title>settings</title>
    <desc>Created with Sketch.</desc>
    <defs></defs>
    <g id="16-x-16" stroke="none" stroke-width="1" fill-rule="evenodd">
        <g id="settings">
            <g transform="translate(3.000000, 3.000000)">
                <path d="M8,11 C9.65,11 11,9.65 11,8 C11,6.35 9.65,5 8,5 C6.339,5 5,6.35 5,8 C5,9.65 6.339,11 8,11 L8,11 Z M15,7 C15.55,7 16,7.45 16,8 C16,8.55 15.55,9 15,9 L13.91,9 C13.76,9.92 13.401,10.76 12.89,11.48 L13.65,12.24 C14.04,12.63 14.04,13.27 13.65,13.661 C13.259,14.05 12.631,14.05 12.241,13.661 L11.47,12.89 C10.75,13.41 10,13.76 9,13.911 L9,15 C9,15.55 8.55,16 8,16 C7.45,16 7,15.55 7,15 L7,13.911 C6,13.76 5.25,13.41 4.53,12.89 L3.75,13.661 C3.361,14.05 2.73,14.05 2.339,13.661 C1.95,13.27 1.95,12.63 2.339,12.24 L3.11,11.471 C2.59,10.75 2.24,9.91 2.09,9 L1.12,9 C0.45,9 0,8.581 0,8.03 C0,7.481 0.45,7 1,7 L2.09,7 C2.24,6.09 2.59,5.25 3.11,4.529 L2.339,3.76 C1.95,3.37 1.95,2.73 2.339,2.339 C2.73,1.95 3.371,1.95 3.76,2.339 L4.53,3.11 C5.25,2.59 6,2.24 7,2.089 L7,1 C7,0.45 7.45,0 8,0 C8.55,0 9,0.45 9,1 L9,2.089 C10,2.24 10.75,2.59 11.47,3.11 L12.241,2.339 C12.63,1.95 13.259,1.95 13.65,2.339 C14.04,2.73 14.04,3.37 13.65,3.76 L12.89,4.529 C13.41,5.25 13.76,6.09 13.91,7 L15,7 Z"></path>
            </g>
        </g>
    </g>
</svg>