<svg xmlns="http://www.w3.org/2000/svg" width="22" height="20" viewBox="0 0 22 20">
    <path fill="#FFF" fill-rule="evenodd" d="M16.043 11.121l5.529 3.286c.53.254.561.741.035 1.047l-2.479.297 1.728 3.011a.497.497 0 0 1-.177.677l-.849.492a.49.49 0 0 1-.671-.183l-1.727-3.011-1.495 2.012c-.526.305-.924.045-.883-.554l-.069-6.472c.043-.598.527-.856 1.058-.602zM6 6.999h10a1 1 0 0 1 0 2H6a1 1 0 1 1 0-2zM6 11h5a1 1 0 1 1 0 2H6a1 1 0 0 1 0-2zM6 1a1 1 0 1 0-.001 1.999A1 1 0 0 0 6 1zM3 1a1 1 0 1 0-.003 2A1 1 0 0 0 3 1zm17 10.148V4H1.999v12h11.019l.024 1.999H1.999A1.999 1.999 0 0 1 0 16V1.999A2 2 0 0 1 1.999 0H20a2 2 0 0 1 2 1.999v10.34l-2-1.191z"/>
</svg>
