<?xml version="1.0" encoding="UTF-8" standalone="no"?>
<svg viewBox="0 0 22 22" version="1.1" xmlns="http://www.w3.org/2000/svg" xmlns:xlink="http://www.w3.org/1999/xlink">
    <!-- Generator: Sketch 41.2 (35397) - http://www.bohemiancoding.com/sketch -->
    <title>star-top-events</title>
    <desc>Created with Sketch.</desc>
    <defs></defs>
    <g id="16-x-16" stroke="none" stroke-width="1" fill-rule="evenodd">
        <g id="star-top-events">
            <g transform="translate(3.000000, 3.000000)">
                <path d="M7.99982887,0 C7.21782887,0 6.50682887,0.456 6.18082887,1.168 L4.78082887,4.228 L1.71182887,4.674 C0.958828873,4.783 0.332828873,5.311 0.0978288727,6.035 C-0.137171127,6.759 0.0588288727,7.554 0.603828873,8.085 L2.80182887,10.228 L2.04882887,13.559 C1.87482887,14.33 2.17082887,15.13 2.80382887,15.603 C3.15682887,15.866 3.57782887,16 3.99982887,16 C4.33582887,16 4.67282887,15.916 4.97782887,15.744 L7.99982887,14.05 L11.0218289,15.744 C11.3268289,15.916 11.6638289,16 11.9998289,16 C12.4218289,16 12.8428289,15.866 13.1958289,15.603 C13.8288289,15.13 14.1248289,14.33 13.9508289,13.559 L13.1978289,10.228 L15.3958289,8.085 C15.9408289,7.554 16.1368289,6.759 15.9018289,6.035 C15.6668289,5.311 15.0408289,4.783 14.2878289,4.674 L11.2188289,4.228 L9.81882887,1.168 C9.49282887,0.456 8.78182887,0 7.99982887,0 M7.99982887,2 L9.62682887,5.555 C9.76882887,5.864 10.0568289,6.08 10.3928289,6.129 L13.9998289,6.653 L11.4008289,9.187 C11.1518289,9.429 11.0468289,9.784 11.1228289,10.123 L11.9998289,14 L8.48882887,12.031 C8.33682887,11.946 8.16882887,11.903 7.99982887,11.903 C7.83082887,11.903 7.66282887,11.946 7.51082887,12.031 L3.99982887,14 L4.87682887,10.123 C4.95282887,9.784 4.84782887,9.429 4.59882887,9.187 L1.99982887,6.653 L5.60682887,6.129 C5.94282887,6.08 6.23082887,5.864 6.37282887,5.555 L7.99982887,2"></path>
            </g>
        </g>
    </g>
</svg>