<?xml version="1.0" encoding="UTF-8" standalone="no"?>
<svg width="22px" height="22px" viewBox="0 0 22 22" version="1.1" xmlns="http://www.w3.org/2000/svg" xmlns:xlink="http://www.w3.org/1999/xlink">
    <!-- Generator: Sketch 39.1 (31720) - http://www.bohemiancoding.com/sketch -->
    <title>table</title>
    <desc>Created with Sketch.</desc>
    <defs></defs>
    <g id="16-x-16-solid" stroke="none" stroke-width="1">
        <g id="table">
            <g id="Page-1" transform="translate(3.000000, 4.000000)">
                <path d="M3,0 L1,0 C0.448,0 0,0.448 0,1 L0,2 C0,2.552 0.448,3 1,3 L3,3 C3.552,3 4,2.552 4,2 L4,1 C4,0.448 3.552,0 3,0" id="Fill-1"></path>
                <path d="M9,0 L7,0 C6.448,0 6,0.448 6,1 L6,2 C6,2.552 6.448,3 7,3 L9,3 C9.552,3 10,2.552 10,2 L10,1 C10,0.448 9.552,0 9,0" id="Fill-3"></path>
                <path d="M15,0 L13,0 C12.448,0 12,0.448 12,1 L12,2 C12,2.552 12.448,3 13,3 L15,3 C15.552,3 16,2.552 16,2 L16,1 C16,0.448 15.552,0 15,0" id="Fill-5"></path>
                <path d="M3,5 L1,5 C0.448,5 0,5.448 0,6 L0,7 C0,7.552 0.448,8 1,8 L3,8 C3.552,8 4,7.552 4,7 L4,6 C4,5.448 3.552,5 3,5" id="Fill-7"></path>
                <path d="M9,5 L7,5 C6.448,5 6,5.448 6,6 L6,7 C6,7.552 6.448,8 7,8 L9,8 C9.552,8 10,7.552 10,7 L10,6 C10,5.448 9.552,5 9,5" id="Fill-9"></path>
                <path d="M15,5 L13,5 C12.448,5 12,5.448 12,6 L12,7 C12,7.552 12.448,8 13,8 L15,8 C15.552,8 16,7.552 16,7 L16,6 C16,5.448 15.552,5 15,5" id="Fill-11"></path>
                <path d="M3,10 L1,10 C0.448,10 0,10.448 0,11 L0,12 C0,12.552 0.448,13 1,13 L3,13 C3.552,13 4,12.552 4,12 L4,11 C4,10.448 3.552,10 3,10" id="Fill-13"></path>
                <path d="M9,10 L7,10 C6.448,10 6,10.448 6,11 L6,12 C6,12.552 6.448,13 7,13 L9,13 C9.552,13 10,12.552 10,12 L10,11 C10,10.448 9.552,10 9,10" id="Fill-15"></path>
                <path d="M15,10 L13,10 C12.448,10 12,10.448 12,11 L12,12 C12,12.552 12.448,13 13,13 L15,13 C15.552,13 16,12.552 16,12 L16,11 C16,10.448 15.552,10 15,10" id="Fill-17"></path>
            </g>
        </g>
    </g>
</svg>