<?xml version="1.0" encoding="UTF-8" standalone="no"?>
<svg width="16px" height="16px" viewBox="0 0 16 16" version="1.1" xmlns="http://www.w3.org/2000/svg" xmlns:xlink="http://www.w3.org/1999/xlink">
    <!-- Generator: sketchtool 41 (35326) - http://www.bohemiancoding.com/sketch -->
    <title>37BC1BD5-2085-42F1-A5D9-CF55A8657529</title>
    <desc>Created with sketchtool.</desc>
    <defs></defs>
    <g id="Add-Report---Final" stroke="none" stroke-width="1" fill="none" fill-rule="evenodd">
        <g id="Dashboard---Add-flow---Label-field-focused" transform="translate(-939.000000, -224.000000)" fill="#D8E0E7">
            <g id="Add-Menu---input-focused" transform="translate(908.000000, 130.000000)">
                <g id="Label-input" transform="translate(19.000000, 83.000000)">
                    <path d="M24.4998751,15.985 C23.6718751,15.985 22.9998751,15.313 22.9998751,14.485 C22.9998751,13.657 23.6718751,12.985 24.4998751,12.985 C25.3278751,12.985 25.9998751,13.657 25.9998751,14.485 C25.9998751,15.313 25.3278751,15.985 24.4998751,15.985 M26.9738751,11 L21.6648751,11 C21.1198751,11 20.5978751,11.216 20.2128751,11.6 L12.3008751,19.506 C11.8998751,19.907 11.8998751,20.555 12.2998751,20.956 L18.0348751,26.698 C18.4358751,27.1 19.0868751,27.1 19.4878751,26.699 L27.3998751,18.78 C27.7838751,18.396 27.9998751,17.874 27.9998751,17.331 L27.9998751,12.025 C27.9998751,11.459 27.5398751,11 26.9738751,11" id="icon-/-label-copy"></path>
                </g>
            </g>
        </g>
    </g>
</svg>