<?xml version="1.0" encoding="UTF-8" standalone="no"?>
<svg width="22px" height="22px" viewBox="0 0 22 22" version="1.1" xmlns="http://www.w3.org/2000/svg" xmlns:xlink="http://www.w3.org/1999/xlink">
    <!-- Generator: Sketch 44.1 (41455) - http://www.bohemiancoding.com/sketch -->
    <title>Take action</title>
    <desc>Created with Sketch.</desc>
    <defs>
        <linearGradient xmlns="http://www.w3.org/2000/svg" id="blue-gradient" x1="26.97%" x2="74.831%" y1="-36.06%" y2="116.846%">
            <stop offset="0%" stop-color="#083BC1"></stop>
            <stop offset="40.39%" stop-color="#0747C4"></stop>
            <stop offset="100%" stop-color="#07B2D7"></stop>
        </linearGradient>
    </defs>
    <g id="Navigation-icons" stroke="none" stroke-width="1" fill="none" fill-rule="evenodd">
        <g id="take_action" fill="#6D859E">
            <path d="M11,9 C9.895,9 9,9.895 9,11 C9,12.105 9.895,13 11,13 C12.105,13 13,12.105 13,11 C13,9.895 12.105,9 11,9 M11,19 C6.582,19 3,15.418 3,11 C3,6.582 6.582,3 11,3 C15.418,3 19,6.582 19,11 C19,15.418 15.418,19 11,19 M11,1 C5.477,1 1,5.477 1,11 C1,16.523 5.477,21 11,21 C16.523,21 21,16.523 21,11 C21,5.477 16.523,1 11,1 M11,15 C8.791,15 7,13.209 7,11 C7,8.791 8.791,7 11,7 C13.209,7 15,8.791 15,11 C15,13.209 13.209,15 11,15 M11,5 C7.686,5 5,7.686 5,11 C5,14.314 7.686,17 11,17 C14.314,17 17,14.314 17,11 C17,7.686 14.314,5 11,5" id="Page-1"></path>
        </g>
    </g>
</svg>
