<?xml version="1.0" encoding="UTF-8" standalone="no"?>
<svg width="22px" height="22px" viewBox="0 0 22 22" version="1.1" xmlns="http://www.w3.org/2000/svg" xmlns:xlink="http://www.w3.org/1999/xlink">
    <!-- Generator: Sketch 39.1 (31720) - http://www.bohemiancoding.com/sketch -->
    <title>trashcan</title>
    <desc>Created with Sketch.</desc>
    <defs>
        <polygon id="path-1" points="14 5 14 0 7.0001 0 0.0002 0 0.0002 5 14 5"></polygon>
    </defs>
    <g id="16-x-16-solid" stroke="none" stroke-width="1" fill="none" fill-rule="evenodd">
        <g id="trashcan">
            <g id="Page-1" transform="translate(4.000000, 3.000000)">
                <path d="M12.5,6 L1.5,6 C1.224,6 1,6.224 1,6.5 L1,15 C1,15.552 1.448,16 2,16 L12,16 C12.552,16 13,15.552 13,15 L13,6.5 C13,6.224 12.776,6 12.5,6" id="Fill-1" fill="#000000"></path>
                <g id="Group-5">
                    <mask id="mask-2" fill="white">
                        <use xlink:href="#path-1"></use>
                    </mask>
                    <g id="Clip-4"></g>
                    <path d="M6.0002,3 L6.0002,2 L8.0002,2 L8.0002,3 L6.0002,3 Z M13.0002,3 L10.0002,3 L10.0002,2 L10.0002,1 C10.0002,0.448 9.5522,0 9.0002,0 L5.0002,0 C4.4472,0 4.0002,0.448 4.0002,1 L4.0002,2 L4.0002,3 L1.0002,3 C0.4472,3 0.0002,3.448 0.0002,4 C0.0002,4.552 0.4472,5 1.0002,5 L13.0002,5 C13.5522,5 14.0002,4.552 14.0002,4 C14.0002,3.448 13.5522,3 13.0002,3 L13.0002,3 Z" id="Fill-3" fill="#000000" mask="url(#mask-2)"></path>
                </g>
            </g>
        </g>
    </g>
</svg>