<?xml version="1.0" encoding="utf-8"?>
<!-- Generated by IcoMoon.io -->
<!DOCTYPE svg PUBLIC "-//W3C//DTD SVG 1.1//EN" "http://www.w3.org/Graphics/SVG/1.1/DTD/svg11.dtd">
<svg version="1.1" xmlns="http://www.w3.org/2000/svg" xmlns:xlink="http://www.w3.org/1999/xlink" width="32" height="32" viewBox="0 0 32 32">
<path fill="#000" d="M24 13.091h-16c-0.401 0-0.727 0.326-0.727 0.727v12.364c0 0.803 0.652 1.455 1.455 1.455h14.545c0.803 0 1.455-0.652 1.455-1.455v-12.364c0-0.401-0.326-0.727-0.727-0.727z"></path>
<path fill="#000" d="M14.546 8.727v-1.455h2.909v1.455h-2.909zM24.728 8.727h-4.364v-2.909c0-0.803-0.652-1.455-1.455-1.455h-5.818c-0.804 0-1.455 0.652-1.455 1.455v2.909h-4.364c-0.804 0-1.455 0.652-1.455 1.455s0.65 1.455 1.455 1.455h17.455c0.803 0 1.455-0.652 1.455-1.455s-0.652-1.455-1.455-1.455v0z"></path>
</svg>
