<?xml version="1.0" encoding="utf-8"?>
<!-- Generated by IcoMoon.io -->
<!DOCTYPE svg PUBLIC "-//W3C//DTD SVG 1.1//EN" "http://www.w3.org/Graphics/SVG/1.1/DTD/svg11.dtd">
<svg version="1.1" xmlns="http://www.w3.org/2000/svg" xmlns:xlink="http://www.w3.org/1999/xlink" width="22" height="22" viewBox="0 0 22 22">
<path fill="#000" d="M16.5 9h-11c-0.276 0-0.5 0.224-0.5 0.5v8.5c0 0.552 0.448 1 1 1h10c0.552 0 1-0.448 1-1v-8.5c0-0.276-0.224-0.5-0.5-0.5z"></path>
<path fill="#000" d="M10 6v-1h2v1h-2zM17.001 6h-3v-2c0-0.552-0.448-1-1-1h-4c-0.553 0-1 0.448-1 1v2h-3c-0.553 0-1 0.448-1 1s0.447 1 1 1h12c0.552 0 1-0.448 1-1s-0.448-1-1-1v0z"></path>
</svg>
