<svg xmlns="http://www.w3.org/2000/svg" xmlns:xlink="http://www.w3.org/1999/xlink" width="22" height="22" viewBox="0 0 22 22">
<path fill-rule="evenodd"  fill="#000" transform="translate(3 3)"
 d="M14.000,13.000 L2.000,13.000 C0.895,13.000 -0.000,12.105 -0.000,11.000 L-0.000,2.000 C-0.000,0.895 0.895,0.000 2.000,0.000 L14.000,0.000 C15.105,0.000 16.000,0.895 16.000,2.000 L16.000,11.000 C16.000,12.105 15.105,13.000 14.000,13.000 ZM14.000,2.000 L2.000,2.000 L2.000,11.000 L14.000,11.000 L14.000,2.000 ZM6.361,4.055 L9.851,6.259 C10.050,6.384 10.050,6.589 9.851,6.715 L6.361,8.919 C6.162,9.045 6.000,8.948 6.000,8.703 L6.000,4.270 C6.000,4.025 6.162,3.930 6.361,4.055 ZM3.000,14.000 L7.000,14.000 L7.000,14.000 L9.000,14.000 L9.000,14.000 L13.000,14.000 C13.553,14.000 14.000,14.447 14.000,15.000 C14.000,15.553 13.553,16.000 13.000,16.000 L3.000,16.000 C2.447,16.000 2.000,15.553 2.000,15.000 C2.000,14.447 2.447,14.000 3.000,14.000 Z"/>
</svg>
