<?xml version="1.0" encoding="UTF-8" standalone="no"?>
<svg width="22px" height="22px" viewBox="0 0 22 22" version="1.1" xmlns="http://www.w3.org/2000/svg" xmlns:xlink="http://www.w3.org/1999/xlink">
    <!-- Generator: Sketch 39.1 (31720) - http://www.bohemiancoding.com/sketch -->
    <title>type_list</title>
    <desc>Created with Sketch.</desc>
    <defs></defs>
    <g id="16-x-16-solid" stroke="none" stroke-width="1" fill="none" fill-rule="evenodd">
        <g id="type_list" fill="#9CACBB">
            <path d="M17,8.5 C17,8.776 16.776,9 16.5,9 L8.5,9 C8.224,9 8,8.776 8,8.5 L8,7.5 C8,7.224 8.224,7 8.5,7 L16.5,7 C16.776,7 17,7.224 17,7.5 L17,8.5 Z M17,11.5 C17,11.776 16.776,12 16.5,12 L8.5,12 C8.224,12 8,11.776 8,11.5 L8,10.5 C8,10.224 8.224,10 8.5,10 L16.5,10 C16.776,10 17,10.224 17,10.5 L17,11.5 Z M17,14.5 C17,14.776 16.776,15 16.5,15 L8.5,15 C8.224,15 8,14.776 8,14.5 L8,13.5 C8,13.224 8.224,13 8.5,13 L16.5,13 C16.776,13 17,13.224 17,13.5 L17,14.5 Z M7,8.5 C7,8.776 6.776,9 6.5,9 L5.5,9 C5.224,9 5,8.776 5,8.5 L5,7.5 C5,7.224 5.224,7 5.5,7 L6.5,7 C6.776,7 7,7.224 7,7.5 L7,8.5 Z M7,11.5 C7,11.776 6.776,12 6.5,12 L5.5,12 C5.224,12 5,11.776 5,11.5 L5,10.5 C5,10.224 5.224,10 5.5,10 L6.5,10 C6.776,10 7,10.224 7,10.5 L7,11.5 Z M7,14.5 C7,14.776 6.776,15 6.5,15 L5.5,15 C5.224,15 5,14.776 5,14.5 L5,13.5 C5,13.224 5.224,13 5.5,13 L6.5,13 C6.776,13 7,13.224 7,13.5 L7,14.5 Z M19,2 L3,2 C2.448,2 2,2.448 2,3 L2,19 C2,19.552 2.448,20 3,20 L19,20 C19.552,20 20,19.552 20,19 L20,3 C20,2.448 19.552,2 19,2 L19,2 Z" id="Page-1"></path>
        </g>
    </g>
</svg>