<?xml version="1.0" encoding="UTF-8" standalone="no"?>
<svg width="22px" height="22px" viewBox="0 0 22 22" version="1.1" xmlns="http://www.w3.org/2000/svg" xmlns:xlink="http://www.w3.org/1999/xlink">
    <!-- Generator: Sketch 39.1 (31720) - http://www.bohemiancoding.com/sketch -->
    <title>type_date</title>
    <desc>Created with Sketch.</desc>
    <defs></defs>
    <g id="16-x-16-solid" stroke="none" stroke-width="1" fill="none" fill-rule="evenodd">
        <g id="type_date" fill="#9CACBB">
            <g id="Page-1" transform="translate(2.000000, 2.000000)">
                <polygon id="Fill-4" points="5 4 13 4 13 0 5 0"></polygon>
                <path d="M17,0 L14,0 L14,4 L18,4 L18,1 C18,0.448 17.552,0 17,0" id="Fill-6"></path>
                <path d="M4,0 L1,0 C0.448,0 0,0.448 0,1 L0,4 L4,4 L4,0 Z" id="Fill-7"></path>
                <path d="M6.5049,7.874 L11.5619,7.874 L11.5619,9.093 C10.6219,10.033 9.0639,12.161 9.0529,15 L7.2439,15 C7.2839,12.892 8.5329,10.543 9.6729,9.313 L6.5049,9.313 L6.5049,7.874 Z M-0.0001,17 C-0.0001,17.552 0.4479,18 0.9999,18 L16.9999,18 C17.5519,18 17.9999,17.552 17.9999,17 L17.9999,5 L-0.0001,5 L-0.0001,17 Z" id="Fill-1"></path>
            </g>
        </g>
    </g>
</svg>