<?xml version="1.0" encoding="UTF-8" standalone="no"?>
<svg width="22px" height="22px" viewBox="0 0 22 22" version="1.1" xmlns="http://www.w3.org/2000/svg" xmlns:xlink="http://www.w3.org/1999/xlink">
    <!-- Generator: Sketch 39.1 (31720) - http://www.bohemiancoding.com/sketch -->
    <title>type_boolean</title>
    <desc>Created with Sketch.</desc>
    <defs></defs>
    <g id="16-x-16-solid" stroke="none" stroke-width="1" fill="none" fill-rule="evenodd">
        <g id="type_boolean">
            <g id="Page-1" transform="translate(2.000000, 2.000000)">
                <path d="M17,18 L1,18 C0.448,18 0,17.552 0,17 L0,1 C0,0.448 0.448,0 1,0 L17,0 C17.552,0 18,0.448 18,1 L18,17 C18,17.552 17.552,18 17,18" id="Fill-1" fill="#9CACBB"></path>
                <path d="M8,9 C8,10.105 7.105,11 6,11 C4.895,11 4,10.105 4,9 C4,7.895 4.895,7 6,7 C7.105,7 8,7.895 8,9" id="Fill-3" fill="#FFFFFF"></path>
                <path d="M14,9 C14,10.105 13.105,11 12,11 C10.895,11 10,10.105 10,9 C10,7.895 10.895,7 12,7 C13.105,7 14,7.895 14,9" id="Fill-5" fill="#4C6072"></path>
            </g>
        </g>
    </g>
</svg>