<?xml version="1.0" encoding="utf-8"?>
<!-- Generated by IcoMoon.io -->
<!DOCTYPE svg PUBLIC "-//W3C//DTD SVG 1.1//EN" "http://www.w3.org/Graphics/SVG/1.1/DTD/svg11.dtd">
<svg version="1.1" xmlns="http://www.w3.org/2000/svg" xmlns:xlink="http://www.w3.org/1999/xlink" width="32" height="32" viewBox="0 0 32 32">
<path fill="#9cacbb" d="M27.636 29.091h-23.273c-0.803 0-1.455-0.652-1.455-1.455v-23.273c0-0.803 0.652-1.455 1.455-1.455h23.273c0.803 0 1.455 0.652 1.455 1.455v23.273c0 0.803-0.652 1.455-1.455 1.455z"></path>
<path fill="#fff" d="M14.545 16c0 1.607-1.302 2.909-2.909 2.909s-2.909-1.302-2.909-2.909c0-1.607 1.302-2.909 2.909-2.909s2.909 1.302 2.909 2.909z"></path>
<path fill="#4c6072" d="M23.273 16c0 1.607-1.302 2.909-2.909 2.909s-2.909-1.302-2.909-2.909c0-1.607 1.302-2.909 2.909-2.909s2.909 1.302 2.909 2.909z"></path>
</svg>
