<?xml version="1.0" encoding="UTF-8" standalone="no"?>
<svg width="22px" height="22px" viewBox="0 0 22 22" version="1.1" xmlns="http://www.w3.org/2000/svg" xmlns:xlink="http://www.w3.org/1999/xlink">
    <!-- Generator: Sketch 41.1 (35376) - http://www.bohemiancoding.com/sketch -->
    <title>type-text</title>
    <desc>Created with Sketch.</desc>
    <defs></defs>
    <g id="16-x-16" stroke="none" stroke-width="1" fill-rule="evenodd">
        <g id="type-text">
            <g id="type_text" transform="translate(2.000000, 2.000000)">
                <polygon id="a-center" points="8.9888 8.1919 8.0988 10.1499 9.9028 10.1499 9.0008 8.1919"></polygon>
                <path d="M12.7754,13 L11.4584,13 C11.2444,13 11.1494,12.929 11.0434,12.703 L10.6154,11.766 L7.3864,11.766 L6.9594,12.715 C6.8994,12.857 6.7694,13 6.5314,13 L5.2254,13 C5.0474,13 4.9524,12.846 5.0244,12.691 L8.7394,4.702 C8.7754,4.631 8.8584,4.571 8.9414,4.571 L9.0604,4.571 C9.1434,4.571 9.2264,4.631 9.2614,4.702 L12.9774,12.691 C13.0484,12.846 12.9544,13 12.7754,13 M16.0004,0 L2.0004,0 C0.8954,0 0.0004,0.895 0.0004,2 L0.0004,16 C0.0004,17.105 0.8954,18 2.0004,18 L16.0004,18 C17.1044,18 18.0004,17.105 18.0004,16 L18.0004,2 C18.0004,0.895 17.1044,0 16.0004,0" id="a"></path>
            </g>
        </g>
    </g>
</svg>