<?xml version="1.0" encoding="UTF-8" standalone="no"?>
<svg viewBox="0 0 22 22" version="1.1" xmlns="http://www.w3.org/2000/svg" xmlns:xlink="http://www.w3.org/1999/xlink">
    <!-- Generator: Sketch 41.2 (35397) - http://www.bohemiancoding.com/sketch -->
    <title>type-boolean</title>
    <desc>Created with Sketch.</desc>
    <defs></defs>
    <g id="16-x-16" stroke="none" stroke-width="1" fill-rule="evenodd">
        <g id="type-boolean">
            <g id="type_boolean" transform="translate(2.000000, 2.000000)">
                <g id="Page-1" stroke-width="1"></g>
                <path d="M3,0 L15,0 C16.7,0 18,1.3 18,3 L18,15 C18,16.7 16.7,18 15,18 L3,18 C1.3,18 0,16.7 0,15 L0,3 C0,1.3 1.3,0 3,0" id="shape"></path>
                <path d="M8,9 C8,10.1 7.1,11 6,11 C4.9,11 4,10.1 4,9 C4,7.9 4.9,7 6,7 C7.1,7 8,7.9 8,9" id="left-dot"></path>
                <path d="M14,9 C14,10.1 13.1,11 12,11 C10.9,11 10,10.1 10,9 C10,7.9 10.9,7 12,7 C13.1,7 14,7.9 14,9" id="right-dot"></path>
            </g>
        </g>
    </g>
</svg>
