<?xml version="1.0" encoding="utf-8"?>
<!-- Generated by IcoMoon.io -->
<!DOCTYPE svg PUBLIC "-//W3C//DTD SVG 1.1//EN" "http://www.w3.org/Graphics/SVG/1.1/DTD/svg11.dtd">
<svg version="1.1" xmlns="http://www.w3.org/2000/svg" xmlns:xlink="http://www.w3.org/1999/xlink" width="32" height="32" viewBox="0 0 32 32">
<path fill="#9cacbb" d="M15.984 14.825l-1.295 2.848h2.624l-1.312-2.848z"></path>
<path fill="#9cacbb" d="M21.491 21.818h-1.916c-0.311 0-0.449-0.103-0.604-0.432l-0.623-1.363h-4.697l-0.621 1.38c-0.087 0.207-0.276 0.415-0.623 0.415h-1.9c-0.259 0-0.397-0.224-0.292-0.449l5.404-11.62c0.052-0.103 0.173-0.191 0.294-0.191h0.173c0.121 0 0.241 0.087 0.292 0.191l5.405 11.62c0.103 0.225-0.033 0.449-0.294 0.449zM27.637 2.909h-23.273c-0.804 0-1.455 0.652-1.455 1.455v23.273c0 0.803 0.65 1.455 1.455 1.455h23.273c0.803 0 1.455-0.652 1.455-1.455v-23.273c0-0.803-0.652-1.455-1.455-1.455z"></path>
</svg>
