<?xml version="1.0" encoding="utf-8"?>
<!-- Generated by IcoMoon.io -->
<!DOCTYPE svg PUBLIC "-//W3C//DTD SVG 1.1//EN" "http://www.w3.org/Graphics/SVG/1.1/DTD/svg11.dtd">
<svg version="1.1" xmlns="http://www.w3.org/2000/svg" xmlns:xlink="http://www.w3.org/1999/xlink" width="22" height="22" viewBox="0 0 22 22">
<path fill="#9cacbb" d="M7 6h8v-4h-8z"></path>
<path fill="#9cacbb" d="M19 2h-3v4h4v-3c0-0.552-0.448-1-1-1z"></path>
<path fill="#9cacbb" d="M6 2h-3c-0.552 0-1 0.448-1 1v3h4v-4z"></path>
<path fill="#9cacbb" d="M2 19c0 0.552 0.448 1 1 1h16c0.552 0 1-0.448 1-1v-12h-18v12zM8.505 9.874h5.057v1.219c-0.94 0.94-2.498 3.068-2.509 5.907h-1.809c0.040-2.108 1.289-4.457 2.429-5.687h-3.168v-1.439z"></path>
</svg>
