<?xml version="1.0" encoding="UTF-8" standalone="no"?>
<svg viewBox="0 0 22 22" version="1.1" xmlns="http://www.w3.org/2000/svg" xmlns:xlink="http://www.w3.org/1999/xlink">
    <!-- Generator: Sketch 41.2 (35397) - http://www.bohemiancoding.com/sketch -->
    <title>type-text</title>
    <desc>Created with Sketch.</desc>
    <defs></defs>
    <g id="16-x-16" stroke="none" stroke-width="1" fill-rule="evenodd">
        <g id="type-text">
            <g id="type_text" transform="translate(2.000000, 2.000000)">
                <polygon id="center" points="8.1001 10.0996 9.9001 10.0996 9.0001 8.2006"></polygon>
                <path d="M12.7998,13 L11.4998,13 C11.2998,13 11.1998,12.9 11.0998,12.7 L10.6998,11.8 L7.3998,11.8 L6.9998,12.7 C6.8998,12.9 6.7998,13 6.4998,13 L5.1998,13 C4.9998,13 4.9998,12.8 4.9998,12.7 L8.6998,4.7 C8.6998,4.6 8.7998,4.6 8.8998,4.6 L8.9998,4.6 C9.0998,4.6 9.1998,4.7 9.1998,4.7 L12.9008,12.7 C12.9998,12.8 12.9998,13 12.7998,13 M14.9998,0 L2.9998,0 C1.2998,0 -0.0002,1.3 -0.0002,3 L-0.0002,15 C-0.0002,16.7 1.2998,18 2.9998,18 L14.9998,18 C16.6998,18 17.9998,16.7 17.9998,15 L17.9998,3 C17.9998,1.3 16.6998,0 14.9998,0" id="shape"></path>
            </g>
        </g>
    </g>
</svg>
