<?xml version="1.0" encoding="utf-8"?>
<!-- Generated by IcoMoon.io -->
<!DOCTYPE svg PUBLIC "-//W3C//DTD SVG 1.1//EN" "http://www.w3.org/Graphics/SVG/1.1/DTD/svg11.dtd">
<svg version="1.1" xmlns="http://www.w3.org/2000/svg" xmlns:xlink="http://www.w3.org/1999/xlink" width="32" height="32" viewBox="0 0 32 32">
<path fill="#9cacbb" d="M27.636 2.909h-23.273c-0.803 0-1.455 0.652-1.455 1.455v23.273c0 0.803 0.652 1.455 1.455 1.455h23.273c0.803 0 1.455-0.652 1.455-1.455v-23.273c0-0.803-0.652-1.455-1.455-1.455zM24.727 12.364c0 0.401-0.326 0.727-0.727 0.727h-11.636c-0.401 0-0.727-0.326-0.727-0.727v-1.455c0-0.401 0.326-0.727 0.727-0.727h11.636c0.401 0 0.727 0.326 0.727 0.727v1.455zM24.727 16.727c0 0.401-0.326 0.727-0.727 0.727h-11.636c-0.401 0-0.727-0.326-0.727-0.727v-1.455c0-0.401 0.326-0.727 0.727-0.727h11.636c0.401 0 0.727 0.326 0.727 0.727v1.455zM24.727 21.091c0 0.401-0.326 0.727-0.727 0.727h-11.636c-0.401 0-0.727-0.326-0.727-0.727v-1.455c0-0.401 0.326-0.727 0.727-0.727h11.636c0.401 0 0.727 0.326 0.727 0.727v1.455zM10.182 12.364c0 0.401-0.326 0.727-0.727 0.727h-1.455c-0.401 0-0.727-0.326-0.727-0.727v-1.455c0-0.401 0.326-0.727 0.727-0.727h1.455c0.401 0 0.727 0.326 0.727 0.727v1.455zM10.182 16.727c0 0.401-0.326 0.727-0.727 0.727h-1.455c-0.401 0-0.727-0.326-0.727-0.727v-1.455c0-0.401 0.326-0.727 0.727-0.727h1.455c0.401 0 0.727 0.326 0.727 0.727v1.455zM10.182 21.091c0 0.401-0.326 0.727-0.727 0.727h-1.455c-0.401 0-0.727-0.326-0.727-0.727v-1.455c0-0.401 0.326-0.727 0.727-0.727h1.455c0.401 0 0.727 0.326 0.727 0.727v1.455z"></path>
</svg>
