<?xml version="1.0" encoding="UTF-8" standalone="no"?>
<svg width="22px" height="22px" viewBox="0 0 22 22" version="1.1" xmlns="http://www.w3.org/2000/svg" xmlns:xlink="http://www.w3.org/1999/xlink">
    <!-- Generator: Sketch 41.1 (35376) - http://www.bohemiancoding.com/sketch -->
    <title>type-date</title>
    <desc>Created with Sketch.</desc>
    <defs></defs>
    <g id="16-x-16" stroke="none" stroke-width="1" fill-rule="evenodd">
        <g id="type-date">
            <g id="type_date" transform="translate(2.000000, 2.000000)">
                <path d="M6.5049,7.874 L11.5619,7.874 L11.5619,9.093 C10.6219,10.033 9.0639,12.161 9.0529,15 L7.2439,15 C7.2839,12.892 8.5329,10.543 9.6729,9.313 L6.5049,9.313 L6.5049,7.874 Z M-0.0001,16 C-0.0001,17.105 0.8959,18 1.9999,18 L15.9999,18 C17.1049,18 17.9999,17.105 17.9999,16 L17.9999,5 L-0.0001,5 L-0.0001,16 Z" id="Fill-1"></path>
                <polygon id="Fill-4" points="5 4 13 4 13 0 5 0"></polygon>
                <path d="M16,0 L14,0 L14,4 L18,4 L18,2 C18,0.895 17.105,0 16,0" id="Fill-6"></path>
                <path d="M4,0 L2,0 C0.895,0 0,0.895 0,2 L0,4 L4,4 L4,0 Z" id="Fill-7"></path>
            </g>
        </g>
    </g>
</svg>