<?xml version="1.0" encoding="UTF-8" standalone="no"?>
<svg viewBox="0 0 22 22" version="1.1" xmlns="http://www.w3.org/2000/svg" xmlns:xlink="http://www.w3.org/1999/xlink">
    <!-- Generator: Sketch 41.2 (35397) - http://www.bohemiancoding.com/sketch -->
    <title>type-list</title>
    <desc>Created with Sketch.</desc>
    <defs></defs>
    <g id="16-x-16" stroke="none" stroke-width="1" fill-rule="evenodd">
        <g id="type-list">
            <g id="type_list" transform="translate(2.000000, 2.000000)">
                <path d="M15,6.5 C15,6.8 14.8,7 14.5,7 L6.5,7 C6.2,7 6,6.8 6,6.5 L6,5.5 C6,5.2 6.2,5 6.5,5 L14.5,5 C14.8,5 15,5.2 15,5.5 L15,6.5 Z M15,9.5 C15,9.8 14.8,10 14.5,10 L6.5,10 C6.2,10 6,9.8 6,9.5 L6,8.5 C6,8.2 6.2,8 6.5,8 L14.5,8 C14.8,8 15,8.2 15,8.5 L15,9.5 Z M15,12.5 C15,12.8 14.8,13 14.5,13 L6.5,13 C6.2,13 6,12.8 6,12.5 L6,11.5 C6,11.2 6.2,11 6.5,11 L14.5,11 C14.8,11 15,11.2 15,11.5 L15,12.5 Z M5,6.5 C5,6.8 4.8,7 4.5,7 L3.5,7 C3.2,7 3,6.8 3,6.5 L3,5.5 C3,5.2 3.2,5 3.5,5 L4.5,5 C4.8,5 5,5.2 5,5.5 L5,6.5 Z M5,9.5 C5,9.8 4.8,10 4.5,10 L3.5,10 C3.2,10 3,9.8 3,9.5 L3,8.5 C3,8.2 3.2,8 3.5,8 L4.5,8 C4.8,8 5,8.2 5,8.5 L5,9.5 Z M5,12.5 C5,12.8 4.8,13 4.5,13 L3.5,13 C3.2,13 3,12.8 3,12.5 L3,11.5 C3,11.2 3.2,11 3.5,11 L4.5,11 C4.8,11 5,11.2 5,11.5 L5,12.5 Z M15,0 L3,0 C1.3,0 0,1.3 0,3 L0,15 C0,16.7 1.3,18 3,18 L15,18 C16.7,18 18,16.7 18,15 L18,3 C18,1.3 16.7,0 15,0 L15,0 Z" id="shape"></path>
            </g>
        </g>
    </g>
</svg>
