<?xml version="1.0" encoding="UTF-8" standalone="no"?>
<svg width="22px" height="22px" viewBox="0 0 22 22" version="1.1" xmlns="http://www.w3.org/2000/svg" xmlns:xlink="http://www.w3.org/1999/xlink">
    <!-- Generator: Sketch 41.1 (35376) - http://www.bohemiancoding.com/sketch -->
    <title>type-list</title>
    <desc>Created with Sketch.</desc>
    <defs></defs>
    <g id="16-x-16" stroke="none" stroke-width="1" fill-rule="evenodd">
        <g id="type-list">
            <g id="type_list" transform="translate(2.000000, 2.000000)">
                <path d="M15,6.5 C15,6.776 14.776,7 14.5,7 L6.5,7 C6.224,7 6,6.776 6,6.5 L6,5.5 C6,5.224 6.224,5 6.5,5 L14.5,5 C14.776,5 15,5.224 15,5.5 L15,6.5 Z M15,9.5 C15,9.776 14.776,10 14.5,10 L6.5,10 C6.224,10 6,9.776 6,9.5 L6,8.5 C6,8.224 6.224,8 6.5,8 L14.5,8 C14.776,8 15,8.224 15,8.5 L15,9.5 Z M15,12.5 C15,12.776 14.776,13 14.5,13 L6.5,13 C6.224,13 6,12.776 6,12.5 L6,11.5 C6,11.224 6.224,11 6.5,11 L14.5,11 C14.776,11 15,11.224 15,11.5 L15,12.5 Z M5,6.5 C5,6.776 4.776,7 4.5,7 L3.5,7 C3.224,7 3,6.776 3,6.5 L3,5.5 C3,5.224 3.224,5 3.5,5 L4.5,5 C4.776,5 5,5.224 5,5.5 L5,6.5 Z M5,9.5 C5,9.776 4.776,10 4.5,10 L3.5,10 C3.224,10 3,9.776 3,9.5 L3,8.5 C3,8.224 3.224,8 3.5,8 L4.5,8 C4.776,8 5,8.224 5,8.5 L5,9.5 Z M5,12.5 C5,12.776 4.776,13 4.5,13 L3.5,13 C3.224,13 3,12.776 3,12.5 L3,11.5 C3,11.224 3.224,11 3.5,11 L4.5,11 C4.776,11 5,11.224 5,11.5 L5,12.5 Z M16,0 L2,0 C0.895,0 0,0.895 0,2 L0,16 C0,17.105 0.895,18 2,18 L16,18 C17.105,18 18,17.105 18,16 L18,2 C18,0.895 17.105,0 16,0 L16,0 Z"></path>
            </g>
        </g>
    </g>
</svg>