<?xml version="1.0" encoding="UTF-8" standalone="no"?>
<svg viewBox="0 0 22 22" version="1.1" xmlns="http://www.w3.org/2000/svg" xmlns:xlink="http://www.w3.org/1999/xlink">
    <!-- Generator: Sketch 41.2 (35397) - http://www.bohemiancoding.com/sketch -->
    <title>type-date</title>
    <desc>Created with Sketch.</desc>
    <defs></defs>
    <g id="16-x-16" stroke="none" stroke-width="1" fill-rule="evenodd">
        <g id="type-date">
            <g id="type_date" transform="translate(2.000000, 2.000000)">
                <path d="M6.5,7.8999 L11.6,7.8999 L11.6,9.0999 C10.7,9.9999 9.1,12.1999 9.1,14.9999 L7.2,14.9999 C7.2,12.8999 8.5,10.4999 9.6,9.2999 L6.5,9.2999 L6.5,7.8999 Z M0,14.9999 C0,16.6999 1.3,17.9999 3,17.9999 L15,17.9999 C16.7,17.9999 18,16.6999 18,14.9999 L18,4.9999 L0,4.9999 L0,14.9999 Z" id="Fill-1"></path>
                <polygon id="Fill-3" points="5 4 13 4 13 0 5 0"></polygon>
                <path d="M15,0 L14,0 L14,4 L18,4 L18,3 C18,1.3 16.7,0 15,0" id="Fill-5"></path>
                <path d="M4,0 L3,0 C1.3,0 0,1.3 0,3 L0,4 L4,4 L4,0 Z" id="Fill-6"></path>
            </g>
        </g>
    </g>
</svg>
