<?xml version="1.0" encoding="UTF-8" standalone="no"?>
<svg width="22px" height="22px" viewBox="0 0 22 22" version="1.1" xmlns="http://www.w3.org/2000/svg" xmlns:xlink="http://www.w3.org/1999/xlink">
    <!-- Generator: Sketch 41.1 (35376) - http://www.bohemiancoding.com/sketch -->
    <title>type-boolean</title>
    <desc>Created with Sketch.</desc>
    <defs></defs>
    <g id="16-x-16" stroke="none" stroke-width="1" fill-rule="evenodd">
        <g id="type-boolean">
            <g id="type_boolean" transform="translate(2.000000, 2.000000)">
                <rect id="Rectangle" x="0" y="0" width="18" height="18" rx="2"></rect>
                <path d="M8,9 C8,10.105 7.105,11 6,11 C4.895,11 4,10.105 4,9 C4,7.895 4.895,7 6,7 C7.105,7 8,7.895 8,9" id="left-dot"></path>
                <path d="M14,9 C14,10.105 13.105,11 12,11 C10.895,11 10,10.105 10,9 C10,7.895 10.895,7 12,7 C13.105,7 14,7.895 14,9" id="right-dot"></path>
            </g>
        </g>
    </g>
</svg>