<?xml version="1.0" encoding="UTF-8" standalone="no"?>
<svg width="22px" height="22px" viewBox="0 0 22 22" version="1.1" xmlns="http://www.w3.org/2000/svg" xmlns:xlink="http://www.w3.org/1999/xlink">
    <!-- Generator: Sketch 41.1 (35376) - http://www.bohemiancoding.com/sketch -->
    <title>type-number</title>
    <desc>Created with Sketch.</desc>
    <defs></defs>
    <g id="16-x-16" stroke="none" stroke-width="1" fill-rule="evenodd">
        <g id="type-number">
            <g id="type_number" transform="translate(2.000000, 2.000000)">
                <path d="M11.5652,13.0695 L6.6222,13.0695 L6.6222,11.6995 L8.2082,11.6995 L8.2082,6.6195 L6.6912,6.7225 L6.5652,5.3865 L9.2362,4.8725 L10.1152,4.8725 L10.1152,11.6995 L11.5652,11.6995 L11.5652,13.0695 Z M16.0002,0.0005 L2.0002,0.0005 C0.8952,0.0005 0.0002,0.8955 0.0002,2.0005 L0.0002,16.0005 C0.0002,17.1045 0.8952,18.0005 2.0002,18.0005 L16.0002,18.0005 C17.1042,18.0005 18.0002,17.1045 18.0002,16.0005 L18.0002,2.0005 C18.0002,0.8955 17.1042,0.0005 16.0002,0.0005 L16.0002,0.0005 Z" id="number"></path>
            </g>
        </g>
    </g>
</svg>