<?xml version="1.0" encoding="utf-8"?>
<!-- Generated by IcoMoon.io -->
<!DOCTYPE svg PUBLIC "-//W3C//DTD SVG 1.1//EN" "http://www.w3.org/Graphics/SVG/1.1/DTD/svg11.dtd">
<svg version="1.1" xmlns="http://www.w3.org/2000/svg" xmlns:xlink="http://www.w3.org/1999/xlink" width="22" height="22" viewBox="0 0 22 22">
<path fill="#9cacbb" d="M10.989 10.192l-0.89 1.958h1.804l-0.902-1.958z"></path>
<path fill="#9cacbb" d="M14.775 15h-1.317c-0.214 0-0.309-0.071-0.415-0.297l-0.428-0.937h-3.229l-0.427 0.949c-0.060 0.142-0.19 0.285-0.428 0.285h-1.306c-0.178 0-0.273-0.154-0.201-0.309l3.715-7.989c0.036-0.071 0.119-0.131 0.202-0.131h0.119c0.083 0 0.166 0.060 0.201 0.131l3.716 7.989c0.071 0.155-0.023 0.309-0.202 0.309zM19 2h-16c-0.553 0-1 0.448-1 1v16c0 0.552 0.447 1 1 1h16c0.552 0 1-0.448 1-1v-16c0-0.552-0.448-1-1-1z"></path>
</svg>
