<?xml version="1.0" encoding="utf-8"?>
<!-- Generated by IcoMoon.io -->
<!DOCTYPE svg PUBLIC "-//W3C//DTD SVG 1.1//EN" "http://www.w3.org/Graphics/SVG/1.1/DTD/svg11.dtd">
<svg version="1.1" xmlns="http://www.w3.org/2000/svg" xmlns:xlink="http://www.w3.org/1999/xlink" width="32" height="32" viewBox="0 0 32 32">
<path fill="#9cacbb" d="M10.182 8.727h11.636v-5.818h-11.636z"></path>
<path fill="#9cacbb" d="M27.636 2.909h-4.364v5.818h5.818v-4.364c0-0.803-0.652-1.455-1.455-1.455z"></path>
<path fill="#9cacbb" d="M8.727 2.909h-4.364c-0.803 0-1.455 0.652-1.455 1.455v4.364h5.818v-5.818z"></path>
<path fill="#9cacbb" d="M2.909 27.636c0 0.803 0.652 1.455 1.455 1.455h23.273c0.803 0 1.455-0.652 1.455-1.455v-17.455h-26.182v17.455zM12.371 14.362h7.356v1.773c-1.367 1.367-3.633 4.463-3.649 8.592h-2.631c0.058-3.066 1.875-6.483 3.533-8.272h-4.608v-2.093z"></path>
</svg>
