<?xml version="1.0" encoding="UTF-8" standalone="no"?>
<svg width="22px" height="22px" viewBox="0 0 22 22" version="1.1" xmlns="http://www.w3.org/2000/svg" xmlns:xlink="http://www.w3.org/1999/xlink">
    <!-- Generator: Sketch 44.1 (41455) - http://www.bohemiancoding.com/sketch -->
    <title>User groups</title>
    <desc>Created with Sketch.</desc>
    <defs>
        <linearGradient xmlns="http://www.w3.org/2000/svg" id="blue-gradient" x1="26.97%" x2="74.831%" y1="-36.06%" y2="116.846%">
            <stop offset="0%" stop-color="#083BC1"></stop>
            <stop offset="40.39%" stop-color="#0747C4"></stop>
            <stop offset="100%" stop-color="#07B2D7"></stop>
        </linearGradient>
    </defs>
    <g id="Navigation-icons" stroke="none" stroke-width="1" fill="none" fill-rule="evenodd">
        <g id="User-groups" fill="#6D859E">
            <path d="M14.0749446,13.999 L7.87581895,13.999 C5.1972099,13.999 2.91321275,15.646 2.04961184,17.95 C1.80891924,18.589 2.45765294,19.999 3.69933751,19.999 L18.3010108,19.999 C19.5127379,19.999 20.1645707,18.715 19.9641657,18.123 C19.1511825,15.728 16.8217327,13.999 14.0749446,13.999 Z M16.1399425,6.999 C16.1399425,4.238 13.829087,2 10.9758983,2 C8.12270964,2 5.81082108,4.238 5.81082108,6.999 C5.81082108,9.761 8.12270964,11.999 10.9758983,11.999 C13.829087,11.999 16.1399425,9.761 16.1399425,6.999 Z" id="user"></path>
        </g>
    </g>
</svg>
