<?xml version="1.0" encoding="UTF-8" standalone="no"?>
<svg width="22px" height="22px" viewBox="0 0 22 22" version="1.1" xmlns="http://www.w3.org/2000/svg" xmlns:xlink="http://www.w3.org/1999/xlink">
    <!-- Generator: Sketch 39.1 (31720) - http://www.bohemiancoding.com/sketch -->
    <title>value_relative</title>
    <desc>Created with Sketch.</desc>
    <defs></defs>
    <g id="16-x-16" stroke="none" stroke-width="1" fill="none" fill-rule="evenodd">
        <g id="value_relative" fill="#000000">
            <path d="M13,4 L13,7 L9.999,7 L9.999,4 L8,4 L8,7 L6,7 L6,8.999 L8,8.999 L8,11.999 L6,11.999 L6,14 L8,14 L8,17 L9.999,17 L9.999,14 L13,14 L13,17 L15,17 L15,14 L17,14 L17,11.999 L15,11.999 L15,8.999 L17,8.999 L17,7 L15,7 L15,4 L13,4 Z M9.999,11.999 L13,11.999 L13,8.999 L9.999,8.999 L9.999,11.999 Z" id="Page-1"></path>
        </g>
    </g>
</svg>