<?xml version="1.0" encoding="UTF-8" standalone="no"?>
<svg width="22px" height="22px" viewBox="0 0 22 22" version="1.1" xmlns="http://www.w3.org/2000/svg" xmlns:xlink="http://www.w3.org/1999/xlink">
    <!-- Generator: Sketch 39.1 (31720) - http://www.bohemiancoding.com/sketch -->
    <title>value_relative</title>
    <desc>Created with Sketch.</desc>
    <defs>
        <polygon id="path-1" points="10.0001623 0 -0.000255809951 0 -0.000255809951 13.9999 10.0001623 13.9999 10.0001623 3.55271368e-15"></polygon>
    </defs>
    <g id="16-x-16" stroke="none" stroke-width="1">
        <g id="value_relative">
            <g id="Page-1" transform="translate(4.000000, 4.000000)">
                <g id="Group-3" transform="translate(2.000000, 0.000200)">
                    <mask id="mask-2">
                        <use xlink:href="#path-1"></use>
                    </mask>
                    <g id="Clip-2"></g>
                    <path d="M9.7842,0.0889 C9.5592,-0.0681 9.2452,-0.0131 9.0892,0.2149 L0.0892,13.2159 C-0.0688,13.4429 -0.0118,13.7539 0.2152,13.9109 C0.3022,13.9719 0.4012,13.9999 0.4992,13.9999 C0.6582,13.9999 0.8142,13.9249 0.9112,13.7839 L9.9112,0.7849 C10.0682,0.5579 10.0122,0.2459 9.7842,0.0889" id="Fill-1" mask="url(#mask-2)"></path>
                </g>
                <path d="M10.5,12.0002 C9.673,12.0002 9,11.3272 9,10.5002 C9,9.6732 9.673,9.0002 10.5,9.0002 C11.327,9.0002 12,9.6732 12,10.5002 C12,11.3272 11.327,12.0002 10.5,12.0002 M10.5,7.0002 C8.57,7.0002 7,8.5702 7,10.5002 C7,12.4302 8.57,14.0002 10.5,14.0002 C12.43,14.0002 14,12.4302 14,10.5002 C14,8.5702 12.43,7.0002 10.5,7.0002" id="Fill-4"></path>
                <path d="M2,3.5002 C2,2.6732 2.673,2.0002 3.5,2.0002 C4.327,2.0002 5,2.6732 5,3.5002 C5,4.3272 4.327,5.0002 3.5,5.0002 C2.673,5.0002 2,4.3272 2,3.5002 M7,3.5002 C7,1.5702 5.43,0.0002 3.5,0.0002 C1.57,0.0002 0,1.5702 0,3.5002 C0,5.4302 1.57,7.0002 3.5,7.0002 C5.43,7.0002 7,5.4302 7,3.5002" id="Fill-6"></path>
            </g>
        </g>
    </g>
</svg>