<?xml version="1.0" encoding="utf-8"?>
<!-- Generated by IcoMoon.io -->
<!DOCTYPE svg PUBLIC "-//W3C//DTD SVG 1.1//EN" "http://www.w3.org/Graphics/SVG/1.1/DTD/svg11.dtd">
<svg version="1.1" xmlns="http://www.w3.org/2000/svg" xmlns:xlink="http://www.w3.org/1999/xlink" width="22" height="22" viewBox="0 0 22 22">
<path fill="#000" d="M15.784 4.089c-0.225-0.157-0.539-0.102-0.695 0.126l-9 13.001c-0.158 0.227-0.101 0.538 0.126 0.695 0.087 0.061 0.186 0.089 0.284 0.089 0.159 0 0.315-0.075 0.412-0.216l9-12.999c0.157-0.227 0.101-0.539-0.127-0.696z"></path>
<path fill="#000" d="M14.5 16c-0.827 0-1.5-0.673-1.5-1.5s0.673-1.5 1.5-1.5c0.827 0 1.5 0.673 1.5 1.5s-0.673 1.5-1.5 1.5zM14.5 11c-1.93 0-3.5 1.57-3.5 3.5s1.57 3.5 3.5 3.5c1.93 0 3.5-1.57 3.5-3.5s-1.57-3.5-3.5-3.5z"></path>
<path fill="#000" d="M6 7.5c0-0.827 0.673-1.5 1.5-1.5s1.5 0.673 1.5 1.5c0 0.827-0.673 1.5-1.5 1.5s-1.5-0.673-1.5-1.5zM11 7.5c0-1.93-1.57-3.5-3.5-3.5s-3.5 1.57-3.5 3.5c0 1.93 1.57 3.5 3.5 3.5s3.5-1.57 3.5-3.5z"></path>
</svg>
