<?xml version="1.0" encoding="utf-8"?>
<!-- Generated by IcoMoon.io -->
<!DOCTYPE svg PUBLIC "-//W3C//DTD SVG 1.1//EN" "http://www.w3.org/Graphics/SVG/1.1/DTD/svg11.dtd">
<svg version="1.1" xmlns="http://www.w3.org/2000/svg" xmlns:xlink="http://www.w3.org/1999/xlink" width="32" height="32" viewBox="0 0 32 32">
<path fill="#000" d="M22.959 5.948c-0.327-0.228-0.784-0.148-1.011 0.183l-13.091 18.911c-0.23 0.33-0.147 0.783 0.183 1.011 0.127 0.089 0.271 0.129 0.413 0.129 0.231 0 0.458-0.109 0.599-0.314l13.091-18.908c0.228-0.33 0.147-0.784-0.185-1.012z"></path>
<path fill="#000" d="M21.091 23.273c-1.203 0-2.182-0.979-2.182-2.182s0.979-2.182 2.182-2.182c1.203 0 2.182 0.979 2.182 2.182s-0.979 2.182-2.182 2.182zM21.091 16c-2.807 0-5.091 2.284-5.091 5.091s2.284 5.091 5.091 5.091c2.807 0 5.091-2.284 5.091-5.091s-2.284-5.091-5.091-5.091z"></path>
<path fill="#000" d="M8.727 10.909c0-1.203 0.979-2.182 2.182-2.182s2.182 0.979 2.182 2.182c0 1.203-0.979 2.182-2.182 2.182s-2.182-0.979-2.182-2.182zM16 10.909c0-2.807-2.284-5.091-5.091-5.091s-5.091 2.284-5.091 5.091c0 2.807 2.284 5.091 5.091 5.091s5.091-2.284 5.091-5.091z"></path>
</svg>
