<svg xmlns="http://www.w3.org/2000/svg" width="24" height="24" viewBox="0 0 24 24">
    <g fill="none" fill-rule="evenodd">
        <path fill="#FFF" d="M15.604 11.57a3.975 3.975 0 1 1-7.95-.001 3.975 3.975 0 0 1 7.95 0"/>
        <path fill="#E4567B" d="M4 11.659c0-1.284.321-2.492.881-3.555L1.322 6.278a11.6 11.6 0 0 0-.069 10.619l3.559-1.827A7.598 7.598 0 0 1 4 11.657M19.317 11.659a7.607 7.607 0 0 1-.823 3.435l3.558 1.827a11.587 11.587 0 0 0-.069-10.668l-3.558 1.828a7.614 7.614 0 0 1 .892 3.578M15.2 18.442a7.604 7.604 0 0 1-7.13-.023l-1.846 3.55a11.607 11.607 0 0 0 5.434 1.348 11.6 11.6 0 0 0 5.387-1.325l-1.845-3.55zM8.143 4.862A7.61 7.61 0 0 1 11.658 4c1.25 0 2.425.307 3.468.839l1.844-3.55a11.597 11.597 0 0 0-10.672.023l1.845 3.55z"/>
    </g>
</svg>
